<svg version="1.1" xmlns="http://www.w3.org/2000/svg" viewBox="0 0 1509.42036848946 410.361839563887" width="1509.42036848946" height="410.361839563887">
    <!-- svg-source:excalidraw -->

    <defs>
        <style class="style-fonts">
            @font-face {
            font-family: "Virgil";
            src: url("https://excalidraw.com/Virgil.woff2");
            }
            @font-face {
            font-family: "Cascadia";
            src: url("https://excalidraw.com/Cascadia.woff2");
            }
        </style>
    </defs>
    <rect x="0" y="0" width="1509.42036848946" height="410.361839563887" fill="#ffffff"></rect><g stroke-linecap="round"><g transform="translate(14.140625 10.505274663334717) rotate(0 0.2876193219749439 123.41684107848442)"><path d="M0.22 0.35 C0.68 41.41, 1.4 204.98, 1.7 245.87 M-1.13 -0.51 C-0.67 40.79, 0.63 206.12, 1.13 247.34" stroke="#000000" stroke-width="1" fill="none"></path></g></g><g stroke-linecap="round" transform="translate(15.140625 76.50527466333472) rotate(0 47.5 24)"><path d="M0 0 C0 0, 0 0, 0 0 M0 0 C0 0, 0 0, 0 0 M-0.2 6.25 C1.2 4.47, 2.03 4.53, 4.87 -0.27 M-0.03 6.08 C1.29 4.42, 3.48 2.2, 5.18 0.49 M0.48 13.02 C4.36 6.17, 6.32 2.34, 11.41 0.32 M0.13 12.38 C2.91 8.26, 5.41 5.11, 10.4 -0.43 M1.17 17.28 C2.65 13.5, 10.01 6.74, 14.59 2.29 M0.09 18.13 C4.05 12.26, 9.19 7.35, 15.6 0.05 M0.91 23.19 C3.08 19.55, 9.6 13.55, 22.49 1.35 M0.91 23.85 C6.57 16.69, 13.21 9.95, 20.56 0.83 M0.13 31.29 C7.06 20.87, 16.44 12.23, 26.63 -1.68 M-0.06 31.14 C9.7 19.98, 16.65 10.69, 25.44 1.23 M-0.69 35.38 C6.57 28.9, 11.51 20.31, 32.53 -0.69 M-0.45 37.73 C7.67 29.38, 14.72 19.14, 32.53 0.76 M-0.55 40.69 C9.99 32.11, 16.53 23.42, 36.97 1.5 M1.03 42.96 C9.39 31.07, 20.96 19.31, 36.66 0.29 M-0.87 48.97 C9.39 38.67, 17.3 26.69, 43.61 -1.29 M1.06 48.51 C13.53 32.4, 26.66 17.12, 42.33 -0.83 M7.48 46.61 C19.75 31.45, 35.94 12.43, 48.18 -0.95 M6.08 48.06 C16.02 37.03, 26.72 23.65, 48.22 0.49 M12.74 48.1 C27.99 29.33, 40.7 13.91, 54.04 -1.47 M10.32 48.27 C20.82 35.88, 31.85 24.54, 52.31 0.18 M15.8 46.8 C25.96 33.06, 39.7 18.94, 57.31 -1.27 M16.8 49.19 C30.23 31.03, 45.97 13.46, 58.37 0.31 M20.58 46.61 C37.2 29.84, 55.87 11.46, 62.54 0.35 M21.1 47.43 C33.42 34.98, 46.41 21.16, 63.1 0.14 M27.14 47.59 C38.36 34.77, 53.88 16.64, 67.81 0.89 M25.96 49.36 C38.7 33, 52.75 19.52, 68.63 -0.56 M31.35 47.58 C44.46 35.94, 55.13 24.85, 76.32 0.26 M32.3 48.31 C48.49 29.68, 64.78 10.62, 73.62 -0.4 M37.95 47.85 C51.8 31.45, 62.56 18.58, 77.57 -1.59 M37.84 47.76 C49.22 34.28, 61.43 22.39, 79.81 0.82 M44.21 46.67 C58.54 30.38, 72.12 11.97, 86.98 0.94 M42.11 48.47 C53.52 36.34, 63.07 23.42, 85.07 -0.67 M49.08 49 C59.38 33.91, 71.43 21.53, 90.96 0.75 M49.03 47.78 C56.81 38.08, 67.15 26.06, 90 0.57 M52.76 48.08 C68.89 34.63, 82.53 16.95, 93.93 0.39 M53.99 48.67 C66.27 34.81, 76.76 21.85, 94.28 1.11 M57.85 47.04 C70.58 32.42, 84.2 19.61, 93.48 7.97 M58.37 49.05 C72.5 32.57, 85.52 17.93, 95.31 6.1 M64.35 49.33 C72.11 41.98, 79.68 30.75, 96.48 12.97 M64.02 49.64 C71.18 40.96, 77.15 33.59, 95.8 12.69 M70 48.52 C79.4 38.56, 85.91 28.76, 94.36 18.66 M69.01 47.41 C77 39.57, 83.5 30.51, 96.41 17.98 M74.76 50.25 C82.3 39.43, 87.32 31.51, 93.41 25.74 M73.55 49.07 C79.28 41.39, 86.52 35.16, 95.54 24.21 M79.72 46.54 C85.76 42.61, 90.05 35.22, 93.83 30.67 M80.35 48.93 C83.69 44.44, 87.82 38.95, 95.81 30.71 M84.38 49.31 C88.4 45.14, 93.01 42.12, 94.35 35.8 M85.16 48.24 C87.69 45.82, 90.7 41.57, 95.73 37.16 M90.23 48.44 C91.43 46.81, 92.19 46.11, 95.21 42.7 M90.4 48.12 C91.77 46.95, 93.57 44.58, 95.46 43.26" stroke="#868e96" stroke-width="0.5" fill="none"></path><path d="M-1.42 -0.91 C29.33 2.66, 62.11 1.88, 94.04 1.78 M-0.28 0.39 C20.03 1.1, 39.79 0.44, 95.94 -0.97 M93.3 -0.09 C93.72 9.88, 95.11 20.58, 94.17 49.09 M95.32 -0.47 C95.92 11.5, 94.62 21.67, 95.21 48.96 M93.7 47.2 C73.74 46.49, 51.39 46.37, 0.66 48.64 M95.38 48.35 C73.87 47.52, 51.78 48.79, 0.9 47.93 M-1.59 49.16 C1.59 34.32, -1.2 19.05, 0.86 1.3 M0.15 47.1 C-0.14 29.94, -0.83 11.51, 0.26 -0.05" stroke="#000000" stroke-width="1" fill="none"></path></g><g transform="translate(31.140625 28.505274663334717) rotate(0 42.5 13)"><text x="0" y="18" font-family="Virgil, Segoe UI Emoji" font-size="20px" fill="#000000" text-anchor="start" style="white-space: pre;" direction="ltr">RESTFul</text></g><g stroke-linecap="round" transform="translate(15.140625 141.50527466333472) rotate(0 47.5 24)"><path d="M0 0 C0 0, 0 0, 0 0 M0 0 C0 0, 0 0, 0 0 M-0.97 6.84 C0.66 4.99, 2.71 3.48, 4.6 0.93 M-0.65 6.71 C1.41 4.69, 2.82 2.18, 5.13 0.54 M0.04 10.69 C2.88 8.53, 4.78 6.58, 11.4 -1.38 M0.9 11.9 C3 7.21, 6.66 3.9, 9.9 -0.37 M0.26 19.73 C4.75 12.81, 6.59 10.26, 14.54 0.79 M-0.91 17.83 C3.88 12.35, 9.57 7.92, 15.8 -0.29 M-1.48 22.69 C5.84 14.92, 14.74 8.95, 21.94 -1.43 M-0.27 24.26 C6.83 15.25, 14.89 8.36, 20.35 -0.55 M-1.59 28.83 C10.62 18.64, 16.21 10.35, 28.02 0.02 M0.32 29.94 C5.93 24.34, 12.22 17.51, 26.8 1.24 M-1.72 36.63 C10.36 24.36, 20.6 12.16, 31.78 -1.68 M-1.1 37.15 C8.51 26.89, 16.96 15.07, 32.23 -1.01 M-0.36 43.38 C6.78 33.77, 14.27 25.85, 38.15 1.08 M0.09 43.1 C12.82 27.13, 26.85 10.81, 36.02 1.23 M0.19 46.28 C16.81 31.17, 31.72 11.82, 41.54 -0.07 M-0.4 48.68 C11.85 35.07, 22.05 22.41, 42.89 0.33 M6.83 50.5 C18.65 30.75, 35.63 16.37, 47.05 0.16 M4.59 48.06 C20.08 32.51, 35.63 15.67, 47.42 -0.32 M12.16 48.73 C25.1 35.7, 36.66 19.4, 54.04 -1.65 M11.69 47.72 C25.69 30.03, 41 12.95, 53.18 -1.14 M16.08 47.9 C33.83 30.81, 47.41 11.71, 57.27 -0.01 M16.02 48.83 C29.48 34.75, 42.49 20.46, 57.23 0.86 M20.14 48.82 C37.73 34.53, 48.24 17.97, 62.56 1.11 M20.94 48.45 C35.32 33.6, 48.36 17.3, 63.22 -0.8 M28.67 47.87 C38.77 33.36, 54.37 15.73, 67.83 1.88 M26.64 48.69 C39.42 35.2, 49.85 20.56, 67.95 -0.78 M32.39 46.58 C48.42 28.7, 61.92 13.85, 74.81 0.28 M33.22 47.96 C42.47 34.95, 55.08 21.31, 74.41 -0.84 M37.56 49.26 C51.01 34.53, 62.83 21.34, 78.14 1.7 M37.22 48.09 C49.37 34.98, 60.99 22.19, 80.37 -0.55 M41.59 48.63 C52.66 35.14, 65.88 22.76, 84.95 0.53 M42.7 47.56 C59.4 29.43, 74.51 10.91, 85.43 -0.2 M46.16 47.46 C58.21 34.29, 71.98 23.55, 88.07 1.86 M47.81 48.68 C65.11 29.78, 81.62 11.21, 89.58 0.46 M52.86 48.15 C68.71 28.37, 83.03 10.74, 96.92 -0.21 M53.83 48.78 C63.66 36.38, 71.92 25.12, 95.59 0.12 M60.3 46.43 C69.15 37.36, 75.93 24.35, 96.69 5.39 M57.76 47.38 C67.37 38.65, 76.14 30.31, 95.66 5.41 M63.09 49.64 C71.88 42.3, 77.29 32.96, 96.54 14.43 M62.69 48.13 C71.44 40.57, 78.83 31.84, 94.95 12.19 M68.25 46.69 C78.23 36.82, 85.85 26.46, 96.75 19.85 M69.69 48.27 C78.1 38.54, 87.15 27.38, 96.27 17.63 M75.6 49.88 C77.64 43.2, 84.67 38.75, 95.13 23.43 M73.6 48.05 C79.08 42.95, 83.82 37.25, 95.88 25.36 M80.74 49.31 C83.61 40.43, 90.99 37.53, 94 30.07 M79.49 48.68 C82.47 44.24, 87.15 40.94, 95.9 31.4 M84.32 50.13 C87.97 45.02, 92.79 39.71, 96.35 37.48 M85.13 49.33 C87.34 45.02, 90.79 42.09, 96.02 35.78 M90.68 48.15 C91.76 45.6, 94.72 44.39, 95.24 43.05 M90.49 48.57 C91.83 47.25, 92.35 45.97, 95.47 42.98" stroke="#868e96" stroke-width="0.5" fill="none"></path><path d="M1.47 1.29 C34.78 1.01, 69.69 2.41, 94.4 -1.4 M0.35 0.06 C37.47 -0.42, 73.96 0.27, 95.11 0.19 M95.82 -0.14 C96.44 11.52, 93.82 18.14, 94.64 46.4 M94.1 -0.22 C93.8 18.97, 94.21 37.05, 94.17 48.32 M94.33 47.61 C71 50.21, 45.55 49.39, -1.37 49.28 M95.74 47.65 C57.35 49.5, 21.64 48.26, 0.95 48.05 M-0.85 49.79 C0.96 28.88, 0.69 13.94, 0.88 -0.43 M-0.66 47.3 C0.79 33.43, 0.81 18.21, -0.27 0.55" stroke="#000000" stroke-width="1" fill="none"></path></g><g transform="translate(32.140625 87.50527466333472) rotate(0 29.5 13)"><text x="0" y="18" font-family="Virgil, Segoe UI Emoji" font-size="20px" fill="#000000" text-anchor="start" style="white-space: pre;" direction="ltr">names</text></g><g transform="translate(40.140625 150.50527466333472) rotate(0 25 13)"><text x="0" y="18" font-family="Virgil, Segoe UI Emoji" font-size="20px" fill="#000000" text-anchor="start" style="white-space: pre;" direction="ltr">sizes</text></g><g stroke-linecap="round" transform="translate(121.140625 74.50527466333472) rotate(0 80.5 24)"><path d="M0 0 C0 0, 0 0, 0 0 M0 0 C0 0, 0 0, 0 0 M0.01 5.85 C1.21 5.09, 2.79 3.17, 5.13 0.01 M-0.62 6.21 C1.12 4.95, 2.63 3.13, 4.66 0.72 M1.55 11.82 C1.49 8.45, 4.54 6.98, 9.77 -0.42 M0.57 12.8 C4.2 8.22, 8.03 2.46, 10.53 0.17 M-0.24 16.86 C3.89 13.85, 8.24 6.74, 16.15 -0.24 M0.21 17.53 C4.61 12.11, 10.82 5.84, 16.05 -0.34 M1.53 24.9 C8.47 17.46, 14.09 8.66, 22.42 -1.42 M-0.59 25.05 C7.92 15.62, 15.25 7.9, 20.32 0.38 M-0.98 30.54 C8.07 20.12, 18.67 8.17, 27.29 0.91 M0.37 30.94 C7.54 21.7, 13.81 14.97, 27.24 -0.32 M-0.72 36.81 C7.02 29.85, 12.35 19.79, 30.96 -0.02 M-0.34 36.34 C11.5 22.44, 23.08 9.2, 32.19 0.57 M1.02 41.04 C15.48 27.1, 29.72 11.15, 36.06 -1.05 M0.17 41.56 C12 30.67, 21.18 17.87, 36.58 0.95 M-0.33 47.97 C15.97 29.12, 30 13.11, 43.21 0.48 M-0.38 48.83 C15.65 29.35, 30.3 12, 42.88 0.79 M4.3 49.84 C22.99 29.21, 39.29 8.05, 48.21 0.42 M4.96 47.93 C22.7 29, 39.95 10.83, 47.22 -0.68 M10.22 49.86 C25.53 31.85, 41.32 14.22, 53.63 1.4 M10.34 47.19 C27.56 30.31, 42.49 12.7, 52.41 0.22 M16.55 49.01 C24.33 39.91, 35.02 30.14, 57.93 -1.55 M16.15 47.89 C29.08 32.92, 42.08 18.22, 58.56 0.83 M20.53 49.67 C33.35 34.63, 45.69 19.47, 63.11 0.63 M22.77 47.43 C33.61 33.44, 45.86 18.43, 64.08 -0.71 M26.69 49.26 C38.38 35.21, 48.77 23.84, 67.83 0.7 M27.17 48.53 C38.31 35.41, 49.91 20.77, 68.3 -0.22 M30.47 49.83 C42.82 35.46, 49.24 26.41, 75.01 0.65 M31.97 48.44 C44.3 35.23, 55.31 21.22, 74.49 -0.36 M39.31 47.77 C45.11 38.72, 57.06 28.73, 80.98 1.41 M37.99 48.1 C47.75 37.53, 57.86 25.55, 78.44 0.65 M44.34 47.33 C54.51 33.79, 66.61 17.86, 83.09 0.45 M43.31 47.34 C52.31 34.98, 63.46 23.52, 85.51 0.12 M49.43 50.33 C63.32 30.56, 79.63 8.6, 88.86 1.4 M47.84 48.09 C61.02 33.76, 72.67 18.13, 89.21 0.16 M54.89 49.72 C64.13 39.44, 73.79 27.82, 95.57 -0.36 M54.41 47.49 C69.3 29.33, 86.21 11.42, 96.27 -1.19 M58.52 47.26 C70.65 31.83, 84.63 15.49, 99.41 0.02 M59.27 49.19 C70.13 35.84, 80.8 23.76, 101.17 -0.74 M62.64 47.86 C70.75 38.62, 82.43 26.96, 107.1 -1.64 M64.54 49.19 C75.84 34.41, 87.28 21.21, 107.23 -1 M70.47 49.46 C83.84 29.68, 100.07 13.48, 113.01 -0.81 M70.06 47.33 C79.83 36.39, 88 26.04, 111.14 -0.92 M74.53 48.93 C81.3 39.15, 90.08 27.39, 118.12 2.06 M75.21 48.72 C88.82 31.63, 103.51 16.57, 115.43 -0.03 M79.63 48.4 C90.97 32.05, 107.33 17.05, 122.45 -0.58 M79.32 47.65 C90.66 34.76, 103.5 22.07, 122.23 -0.98 M83.97 48.92 C97.75 34.75, 109.55 17.94, 125.45 -1.49 M84.24 48.82 C101.7 30.01, 118.09 10.51, 127.18 -0.07 M90.77 48.08 C107.41 30.74, 123.02 13.9, 132.98 -0.26 M91.4 48.49 C106.1 31.07, 121.17 14.5, 131.81 0.64 M97.43 49.63 C110.69 31.76, 120.28 19.83, 138.42 2.3 M96.39 47.71 C107.4 33.17, 120.92 19.37, 138.1 0.58 M103.11 49.09 C116.27 28.71, 133.9 10.83, 142.29 1.78 M101.97 47.45 C117.42 30.47, 132.46 13.77, 143.55 -0.22 M105.87 47.42 C121.36 32.29, 132.29 16.06, 149.42 -0.18 M106.7 47.83 C120.3 30.85, 136.18 14.06, 147.75 0.11 M110.29 48.59 C124.1 34.42, 133.34 24.77, 152.5 1.71 M111.95 47.3 C125.2 32.37, 138.16 17.71, 153.41 0.45 M116.64 49.23 C126.4 36.7, 137.59 23, 157.29 2.03 M116.5 47.83 C126.27 37.07, 136.33 26.68, 158.97 -0.11 M124.42 48.27 C133.54 35.71, 142.43 25.75, 164.85 -0.23 M121.56 48.07 C137.74 30.94, 150.51 14.53, 162.3 0.41 M125.55 48.54 C135.34 38.51, 147.09 26.32, 164.74 8 M127.38 48.59 C136.11 37, 146.03 25.51, 163.31 8.09 M132 46.4 C143.37 37.57, 150.32 27.79, 161.81 15.1 M132.29 48.99 C142.63 37.33, 152.13 26.37, 162.2 13.94 M136.86 49.4 C143.48 41.87, 150.34 30.89, 162.12 18.79 M137.24 49.19 C142.43 41.54, 148.08 35.39, 162.8 19.5 M142.01 49.83 C153.01 38.76, 158.35 30.25, 161.3 27.46 M142.92 48.51 C147.58 43.11, 152.4 39.16, 162.39 25.66 M147.24 50.43 C153.51 44.62, 158.8 36.02, 163.51 30.52 M148.25 48.94 C151.02 44.94, 154.91 41.67, 164.06 32.64 M154.02 49.28 C156.13 44.47, 157.94 43.06, 162.66 39.41 M153.79 48.2 C157.3 45.45, 160.43 41.75, 163.15 38.87 M158.95 48.5 C159.6 47.77, 160.54 46.98, 162.17 44.76 M159.21 48.65 C160.33 47.43, 160.89 46.49, 162.56 44.61" stroke="#868e96" stroke-width="0.5" fill="none"></path><path d="M0.88 -0.43 C34.37 -2.18, 70.11 -1.89, 159.6 0.81 M-0.27 0.55 C47.73 1.19, 96.34 1.52, 161.53 0.35 M159.79 -0.38 C159.41 14.48, 159.58 27.9, 162.96 46.09 M161.03 0.34 C160.7 10.08, 162.05 20.15, 161.56 47.53 M160.04 49.43 C111.47 49.39, 59.57 46.11, 1.58 47.97 M161.37 48.44 C102.84 46.27, 46.92 46.72, -0.84 48.14 M0.96 46.31 C0.82 34.95, 1.21 24.51, -0.35 -1.69 M-0.91 47.59 C-0.4 38.49, 0.63 28.04, 0.65 0.7" stroke="#000000" stroke-width="1" fill="none"></path></g><g stroke-linecap="round" transform="translate(126.140625 165.50527466333472) rotate(0 73.5 24)"><path d="M0 0 C0 0, 0 0, 0 0 M0 0 C0 0, 0 0, 0 0 M-0.05 6.17 C1.78 3.76, 2.4 2.85, 4.26 -0.32 M-0.09 6.13 C1.25 4.39, 2.94 3.32, 5.15 0.64 M1.06 10.96 C4.37 7.36, 7.02 2.09, 12.18 0.94 M-0.62 12.4 C2.98 9.3, 4.83 5.62, 10.66 -0.35 M0.91 19.06 C3.74 12.46, 8.19 8.83, 16.55 0.99 M0.86 17.83 C2.57 15.13, 6.99 9.92, 15.59 0.82 M-0.66 24.17 C8.76 18.23, 15.7 8.23, 20.18 -0.13 M0.57 24.76 C7.07 17.5, 11.92 11.02, 20.52 0.59 M-0.81 29.17 C8.45 18.69, 18.52 9.97, 24.32 2.18 M-0.29 31.18 C10.05 18.98, 19.34 8.62, 26.15 0.31 M0.43 37.49 C8.34 29.98, 16.06 18.57, 33.23 0.38 M0.1 37.8 C7.4 28.98, 13.5 21.45, 32.55 0.1 M0.84 42.72 C13.48 29.12, 23.23 15.59, 35.69 0.79 M-0.15 41.62 C10.71 30.25, 20.19 17.78, 37.74 0.11 M1.01 49.73 C15.22 31.16, 27 15.46, 40.65 1.07 M-0.21 48.56 C11.46 34.02, 24.68 20.92, 42.78 -0.45 M5.31 46.78 C21.15 31.11, 35.47 12.17, 46.32 -0.03 M5.94 49.17 C16.14 36.92, 27 23.68, 48.3 0.01 M10.49 48.97 C25.25 32.68, 40.69 17.77, 51.82 -1.13 M11.47 47.63 C23.37 35.02, 35.63 19.93, 53.55 0.57 M15.21 49.03 C25.03 36.87, 33.82 27.27, 58.29 -0.56 M15.69 48.11 C28.98 34.46, 43.35 17.07, 59.02 1.03 M22.39 48.98 C30 40.07, 38.47 27.84, 64.53 1.26 M21.87 47.98 C34.8 31.49, 48.86 17, 63.46 -0.94 M28.36 49.75 C38.22 32.7, 50.09 19.99, 68.13 -0.55 M25.82 48.98 C42.79 29.11, 57.57 12.66, 68.42 -0.59 M30.47 48.79 C43.88 36.28, 58.31 21.23, 73.05 -1.71 M32.89 48.46 C42.59 37.04, 51.3 27.54, 75.38 -0.91 M36.24 49.73 C52.98 32.92, 67.45 13.79, 78.8 0.85 M36.59 48.5 C50.51 32.66, 63.84 18.34, 80.26 0.58 M42.95 47.98 C60.68 29.04, 75.52 11.94, 84.04 -1.41 M43.66 47.15 C55.71 33.42, 68.96 18.84, 84.49 -1.02 M46.79 48.35 C58.9 35.57, 69.77 23.69, 91.71 1.03 M48.56 47.59 C59.05 34.7, 72.61 20.12, 89.6 -0.77 M54.48 46.69 C66.56 34.12, 81 18.63, 96.63 1.33 M54.61 47.34 C63.77 36.88, 73 26.48, 96.24 -0.74 M60.39 47.53 C68.06 36.99, 79.2 25.11, 98.69 1.94 M58.53 47.42 C67.43 38.32, 77.95 27.08, 100.78 -0.77 M65.5 50.4 C79.68 30.6, 93.83 16.34, 106.38 0.24 M62.81 48.3 C71.88 38.72, 81.15 28.71, 106.36 -1.33 M69.83 47.75 C79.01 35.92, 90.91 23.05, 110.01 -1.88 M69.61 47.35 C81.72 32.93, 93.32 18.94, 111.43 -0.3 M72.84 46.85 C90.95 30.85, 103.31 14.42, 116.63 0.38 M74.56 48.26 C88.5 32.98, 101.62 17.91, 116.19 0.94 M80.37 48.08 C94.48 30.85, 107.65 18.03, 122.41 0.63 M79.19 48.98 C92.65 32.6, 105.96 19.29, 122.43 0.96 M85.8 50.63 C94.18 39.76, 102.2 29.79, 125.11 -0.88 M85.48 48.92 C94.95 38.61, 103.29 28.54, 127.35 -0.27 M89.68 50.11 C103.61 33.2, 113.19 22.65, 131.02 1.13 M90.94 48.11 C101.99 35.36, 112.43 22.02, 131.97 0.55 M96.8 48.15 C109.19 34.39, 120.33 21.91, 136.05 -1.38 M95.13 48.45 C105.14 37.33, 116.33 24.59, 137.74 1.22 M99.88 50.04 C111.21 36.45, 118.68 25.75, 141.43 -0.18 M100.79 48.79 C110 37.75, 119.75 27.45, 143.52 -0.76 M104.67 50.36 C119.17 31.75, 132.91 15.8, 146.1 -0.36 M106.35 48.23 C116.98 36.47, 127.83 23.8, 147.57 1.78 M113.54 46.6 C121.41 37.34, 128.24 26.46, 147.76 8.27 M110.99 47.24 C119.3 39.33, 127.95 30.26, 147.92 5.81 M118.68 48.79 C127.18 37.05, 139.49 23.24, 147.81 11.29 M117.25 48.87 C126.07 38.97, 134.14 27.54, 146.79 13.81 M121.65 49.09 C130.15 38.42, 137.79 30.04, 149.8 18.3 M122.04 47.94 C130.69 38.11, 138.71 28.1, 148.5 17.94 M126.56 47.5 C133.17 41.06, 142.5 30.34, 149.21 23.36 M127.24 48.21 C133.03 43.13, 137.37 37.26, 148.65 26.05 M131.64 49.38 C135.09 43.88, 142.59 37.81, 148.38 31.28 M132.74 47.58 C137.35 43.72, 141.68 38.02, 148.51 31.53 M138.35 47.48 C140.65 44.15, 146.04 38.98, 148.67 35.94 M138.77 49.08 C140.98 45.6, 143.56 41.14, 148.62 36.88 M143.61 48.62 C144.73 46.61, 145.93 45.5, 147.8 43.73 M143.84 48.37 C144.93 46.41, 146.57 44.36, 147.71 43.29" stroke="#868e96" stroke-width="0.5" fill="none"></path><path d="M1.58 -0.03 C54.96 -0.09, 106.11 2.18, 147.89 -1.29 M-0.84 0.14 C36.31 -0.14, 73.52 0.56, 146.16 0.36 M146.65 -1.69 C145.46 12.21, 147.34 25.32, 146.17 46.54 M147.65 0.7 C146.41 16.93, 147.19 33.66, 147.23 48.12 M145.78 46.51 C89.19 46.93, 34.84 47.21, -1.24 48.55 M146.31 47.33 C104.25 47.06, 63.17 47.06, -0.68 48.35 M0.36 47.14 C-1.55 34.19, 0.84 16.15, -0.96 0.73 M-0.82 48.91 C-1.18 32.3, -0.24 18.92, -0.14 -0.71" stroke="#000000" stroke-width="1" fill="none"></path></g><g transform="translate(188.140625 136.50527466333472) rotate(0 9 13)"><text x="0" y="18" font-family="Virgil, Segoe UI Emoji" font-size="20px" fill="#000000" text-anchor="start" style="white-space: pre;" direction="ltr">...</text></g><g transform="translate(152.140625 120.50527466333472) rotate(0 49 13)"><text x="0" y="18" font-family="Virgil, Segoe UI Emoji" font-size="20px" fill="#000000" text-anchor="start" style="white-space: pre;" direction="ltr">properties</text></g><g stroke-linecap="round" transform="translate(519.1406249999995 65.00527466333472) rotate(0 75.5 24)"><path d="M0 0 C0 0, 0 0, 0 0 M0 0 C0 0, 0 0, 0 0 M0 6.58 C0.72 5.1, 2.46 3.72, 5.54 0.61 M-0.44 6.06 C1.65 4.35, 3.53 1.6, 5.28 0.63 M-1.07 11.09 C3.57 6.15, 6.54 3.79, 12.18 -1.01 M-0.12 11.71 C3.54 7.43, 8.35 2.65, 11.34 -0.68 M0.84 18.67 C3.94 13.02, 9.5 6.15, 17.22 1.1 M-0.35 19.18 C3.76 14.57, 8.56 8.55, 15.7 -0.31 M1.85 23.24 C8.3 15.42, 16.85 3.31, 20.87 -0.68 M-0.43 24.51 C6.7 16.53, 12.91 8.75, 21 0.4 M-0.3 32.27 C7.12 24.54, 13.23 14.51, 24.9 -0.17 M-0.1 31.44 C5.18 24.61, 9.64 18.46, 25.92 -0.56 M0.82 36.33 C7.86 24.97, 20.34 11.25, 33.37 -0.47 M-0.21 36.4 C5.9 29.21, 14.87 20.78, 32.62 -0.44 M-1.29 44.48 C9.84 28.1, 24.42 15.84, 36.42 1.21 M-0.04 42.96 C9.59 33.8, 17.5 23.7, 36.42 0.56 M1.28 47.16 C15.2 30.3, 32.08 14.16, 44.12 0.89 M0.09 47.69 C10.12 37.71, 18 27.08, 41.68 -0.55 M5.95 50.02 C13.47 39.94, 23.22 26.65, 45.87 -0.77 M6 48.9 C21.56 29.4, 37.58 11.38, 47.23 0.88 M10.6 47.15 C27.43 29.19, 42.47 15.02, 52.25 0.86 M10.64 48.8 C25.69 31.98, 41.48 13.63, 52.39 -0.61 M17.27 49.61 C25.79 36.52, 38.11 22.19, 58.4 1.81 M15.88 48.98 C32.45 30.9, 49.46 11.92, 58.32 -0.24 M20.84 46.81 C33.91 34.93, 44.84 20.41, 61.93 0.83 M21.21 48.75 C33.28 36.4, 43.15 22.99, 63.99 -0.72 M28.37 49.92 C36.95 36.88, 47.13 24.46, 70.24 -1.18 M27.18 47.48 C35.73 38.42, 44.05 27.28, 69.63 0.1 M32.98 47.23 C39.78 38.7, 51.13 27.77, 74.43 -1.86 M33.36 48.83 C43.44 35.39, 55.18 20.88, 74.65 -0.49 M37.24 47.54 C49.61 32.59, 61.84 20.76, 80.66 2.05 M37.72 49.18 C48.91 35.73, 59.15 23.54, 79.08 0.3 M43.04 47.48 C57.93 34.31, 71.12 18.51, 84.04 -1.95 M42.64 47.82 C59.35 30.4, 72.59 12.68, 85.51 -0.98 M46.95 46.98 C63.24 30.79, 76.1 13.76, 91.99 1.25 M48.27 47.39 C57.2 38.72, 65.89 28.01, 90.55 0.33 M54.11 48.55 C63.98 34.78, 74.2 23.54, 94.14 -2.24 M54.55 48.06 C68.79 31.17, 84.05 13.27, 94.71 -0.72 M57.6 48.71 C70.4 33.75, 82.72 19.42, 101.65 0.08 M58.57 47.95 C76.16 28.62, 92.16 8.78, 99.9 -0.34 M63.68 50.1 C79.17 33.81, 94.88 14.51, 105.16 -1.57 M63.92 48.14 C75.93 34.83, 90.24 18.34, 105.32 0.28 M70.4 49.1 C80.34 33.47, 97.44 15.91, 110.1 0.17 M69.34 49.24 C84.96 28.99, 101.13 11.34, 110.95 -0.69 M74.29 47.49 C87.06 35.88, 97.5 22.91, 117.95 1.88 M73.5 47.97 C89.07 30.42, 104.6 11.99, 116.75 1.32 M79.58 48.51 C91.93 32.45, 107.13 15.69, 120.87 1.05 M80.25 48.17 C87.81 37.87, 97.01 26.76, 121.48 -0.17 M85.56 48.28 C102.67 29.55, 118.57 11.01, 128.38 -0.37 M84.06 49.2 C97.39 34.29, 110.89 18.84, 127.34 -0.07 M92.46 47.18 C100.31 36.52, 108.78 28.77, 132.55 0.22 M89.96 48.17 C105.92 31.66, 121.03 13.62, 133.27 -0.72 M96.83 49.21 C109.07 33.33, 122.14 16.1, 139.4 1.39 M94.98 48.29 C112.74 30.54, 128.98 12.45, 138.41 0.47 M101.4 49.34 C117.55 29.91, 130.97 14.3, 142.78 1.1 M102.09 49.2 C117.7 31.71, 132.9 14.13, 144.03 -0.71 M106.49 48.94 C116.17 37.65, 126.24 25.09, 147.72 0.05 M105.61 49.23 C116.42 36.05, 128.18 23.21, 148.94 1.07 M111.85 47.12 C120.05 38.29, 126.64 30.05, 150.99 2.57 M111.21 47.76 C121.35 38.36, 129.83 27.01, 152.15 0.49 M116.03 48.1 C129.43 34.61, 140.21 18.51, 152.51 7.99 M117.28 49.53 C127.96 36.11, 136.78 24.71, 152.29 7.92 M122.29 48.6 C132.48 38.28, 142.13 25.64, 153.06 12.97 M122.9 48.89 C133.77 35.44, 144.57 23.18, 153.43 12.62 M125.96 49.23 C132.51 42.41, 137.66 36.56, 151.2 18.95 M127.27 48.22 C133.64 41.71, 138.98 34.7, 151.99 19.19 M132.3 49.81 C142.26 37.2, 147.44 28.91, 153.03 26.99 M133.67 48.15 C139.44 41.59, 145.54 34.97, 152.67 25.31 M139.88 48.82 C140.55 42.82, 145.03 40.93, 151.61 33.13 M138.85 47.9 C140.71 45.23, 145.07 40.99, 151.85 32.07 M142.91 47.18 C145.68 44.99, 149.54 40.63, 152.18 37.15 M143.26 47.78 C147.42 44.48, 150.28 41.29, 152.63 38.77 M148.62 48.69 C150.43 46.14, 151.8 44.29, 152.05 43.68 M148.86 48.51 C149.56 47.36, 151.17 45.68, 152.65 44.18" stroke="#868e96" stroke-width="0.5" fill="none"></path><path d="M-0.19 1.54 C57.49 -0.33, 120.13 1.14, 152.43 -1.36 M0.34 0.83 C44.27 0.49, 90.95 -1.09, 150.01 0.68 M152.59 -1.42 C151.84 16.98, 149.42 35.54, 149.54 49.58 M150.91 -0.17 C150.88 13.23, 150.97 24.71, 151.49 48.99 M152.73 46.46 C102.91 46.6, 57.3 47.86, 0.26 46.08 M151.94 47.63 C120.64 46.27, 88.14 47, -0.62 47.78 M-1.93 49.55 C-1.29 30.92, 0.96 11.31, 1.99 0.94 M0.27 48.04 C0.26 36.89, 0.73 27.74, -0.43 0.28" stroke="#000000" stroke-width="1" fill="none"></path></g><g stroke-linecap="round" transform="translate(668.1406249999995 121.00527466333472) rotate(0 135.5 24)"><path d="M0 0 C0 0, 0 0, 0 0 M0 0 C0 0, 0 0, 0 0 M-0.08 6.06 C1.61 4.56, 3.41 3.13, 5.23 0.95 M-0.6 6.35 C1.52 4.49, 2.59 3.1, 5.25 0.67 M-0.81 11.52 C2.08 6.83, 7.57 6.12, 9.66 1.39 M-0.2 11.35 C3.2 8.67, 6.11 5.91, 9.98 -0.12 M0.11 17.79 C2.93 14.99, 4.55 12.49, 16.39 -0.64 M0.62 18.48 C6.3 12.77, 10.55 5.41, 14.98 1.22 M-0.57 23.71 C5.29 18.96, 6.9 13.59, 20.65 0.25 M0.69 23.92 C6.97 16.01, 13.45 8.7, 21.73 -0.47 M1.8 30.84 C10.25 20.59, 16.39 9.98, 25.79 -1.7 M0.96 30.51 C9.06 19.5, 17.87 9.67, 25.39 0.52 M-0.8 34.9 C11.95 22.84, 22.33 10.21, 31.52 -1.67 M-0.74 35.94 C10.19 26.32, 19.91 14.69, 31.56 0.05 M2.09 40.56 C9.39 31.89, 20.82 18.5, 37.83 -1.25 M0.58 43.51 C10.19 32.58, 18.85 20.81, 37.18 0.8 M-0.47 47.56 C8.78 39.07, 18.73 28.91, 43.55 -1.87 M0.06 48.35 C9.26 37.22, 17.85 27.03, 42.1 -1.09 M7.02 47.8 C18.71 35.16, 27.23 19.39, 46.52 1.9 M5.9 48.55 C18.36 32.76, 32.35 17.09, 48.17 0.75 M10.18 49.81 C24.03 33.18, 41.67 13.41, 54.18 0.88 M11.83 47.68 C23.21 36.03, 33.06 21.9, 52.72 -0.45 M17.27 46.53 C28.33 34.52, 38.15 23.15, 59.76 2 M16.64 48.68 C32.62 31.97, 47.67 13.92, 57.71 0.08 M20.5 47.97 C34.37 33.46, 45.55 19.44, 64.82 -1.15 M22.45 48.54 C31.2 37.82, 38.88 28.1, 63.27 -0.62 M28.25 47.83 C40.78 31.82, 53.89 19.58, 67.43 -1.64 M25.8 49 C43.15 29.64, 58.4 11.78, 68.71 -0.58 M31.6 46.11 C48.35 31.27, 62.76 14.83, 72.79 -0.62 M33.19 47.22 C45.36 32.95, 56.43 20.27, 74.16 -0.21 M36.53 47.78 C47.6 34.16, 61.85 23.35, 81.33 -0.65 M38.16 48.5 C46.13 37.56, 55.32 27.81, 79.58 0.39 M42.51 49.34 C59.39 32.48, 73.59 14.38, 83.36 0.87 M42.85 48.95 C52.02 36.6, 60.9 27.16, 84.34 0.13 M46.64 49.53 C61.41 31.55, 75.41 17, 91.19 -1.6 M47.04 48.17 C58.65 36.43, 68.17 26.26, 90.27 -0.42 M54.24 47.85 C65.71 32.3, 79.76 15.98, 93.74 0.79 M53.75 47.95 C64.55 35.74, 74.41 22.29, 95.26 -0.28 M59.02 47.3 C70.67 33.29, 82.99 21.91, 100.69 2.01 M58.27 48.96 C69.27 35.47, 79.8 21.99, 100.27 0.56 M65.04 49.65 C82.04 31.96, 95.98 10.69, 105.08 -0.33 M63.09 48.16 C77.45 34.69, 88.62 17.95, 106.93 -0.14 M70.09 46.37 C86.43 30.79, 100.85 8.89, 111.44 1.74 M70.23 47.78 C81.46 32.95, 95.3 18.46, 110.59 -0.17 M73.1 49.52 C86.73 34.73, 99.02 23.52, 117.78 1.86 M73.58 48.22 C90.76 29.17, 107.09 11.1, 117.22 0.55 M80.15 47.08 C93.13 33.23, 105.44 15.74, 122.99 -1.78 M79.82 47.51 C94.45 30.7, 108.33 13.78, 121.76 0.9 M84.56 49.6 C94.43 37.83, 104.46 27.8, 126.2 0.49 M85.47 47.99 C96.22 36.46, 106.47 24.48, 126.49 -0.48 M89.5 48.83 C101.81 33.4, 117.05 19.15, 132.82 1.13 M90.48 49.01 C108.02 30.09, 124.01 10.82, 131.89 0.23 M96.15 48.33 C108.39 33.17, 119.33 21.85, 138.62 2.04 M95.23 49.58 C108.95 35.14, 122.3 20.4, 137.7 0.72 M102.32 50.09 C110.6 36.18, 122.73 21.87, 144.37 1.21 M102.17 49.09 C112.25 37.21, 122.2 25.9, 142.56 -0.76 M106.55 49.19 C122.74 30.78, 137.62 10.83, 147.94 -0.71 M106.83 48.02 C116.13 37.51, 125.83 25.64, 148.96 -0.69 M110.76 48.38 C126.51 29.42, 142.81 12.17, 154.99 -1.73 M111.4 48.56 C123.02 36.06, 132.64 23.48, 152.91 0.35 M116.37 48.75 C128.56 34.18, 138.09 22.56, 159 0.08 M117.79 49.36 C128.92 33, 142.15 19.11, 158.93 0.43 M122.91 48.31 C133.35 37.05, 141.62 25.99, 163.98 1.19 M123.2 48.17 C132.64 36.13, 143.18 25.63, 163.63 -1.09 M128.16 48.64 C143.19 30.6, 159.22 10.98, 168.55 -0.7 M127.16 48.57 C144.06 29.35, 160.25 11.65, 168.79 1.18 M134.78 49.51 C144.8 31.45, 159.05 17.39, 176.59 -0.1 M133.12 48.64 C148.88 30.52, 164.79 11.84, 174.91 -0.73 M138.42 47.53 C152.6 29.77, 170.7 10.62, 181.32 -1.06 M137.5 47.63 C150.34 34.76, 161.77 20.56, 180.26 0.63 M142.33 46.71 C161.02 29.1, 176.28 9.73, 183.98 1.4 M143.26 48.68 C153.88 37.17, 164.45 26.59, 186.48 0.73 M149.55 49.17 C163.76 29.31, 180.3 8.02, 189.93 0 M148.93 47.47 C162.49 33.91, 174.21 18.59, 191.59 -0.17 M153.46 49.68 C168.96 27.94, 185.7 10.44, 195.27 -2.25 M154.24 48.94 C171.51 29.6, 187.8 10.8, 195.6 -0.43 M157.93 50.37 C166.99 39.51, 178.56 29.12, 202.97 -1.4 M159.09 47.98 C170.54 36.09, 180.22 22.45, 201.56 -0.23 M163.98 47.27 C183.47 29, 196.03 12.65, 205.51 -1.94 M165.21 48.07 C175.8 37.69, 185.06 26.81, 207.08 -0.97 M169.86 49.01 C183.99 34.33, 192.8 22.03, 212.96 1.87 M169.15 48.03 C181.13 37.08, 190.51 25.96, 211.47 -0.55 M173.68 47.38 C186.5 35.57, 194.74 25.69, 215.68 0.53 M175.87 48.66 C188.85 32.04, 201.8 16.95, 217.24 -0.68 M181.57 48.02 C190.12 33.64, 202.68 22.78, 224.36 0.04 M179.8 47.47 C191.93 35.92, 201.52 24.21, 223.18 -0.19 M185.61 49.73 C197.18 36.97, 207.87 23.98, 228.71 0.41 M185.77 48.05 C193.88 38.58, 203.73 28.1, 227.94 -0.38 M191.24 47.39 C203.63 32.97, 215.73 19.23, 233.56 -1.62 M191.29 49.09 C205.92 32.35, 220.07 15.28, 233.06 -0.25 M196.71 46.84 C210.2 35.48, 219.16 20.95, 236.81 -1.26 M196.97 49.27 C207.73 35.98, 220.07 21.07, 237.91 0.84 M202.98 48.19 C210.19 37.34, 218.38 27.46, 244.89 1.23 M201.38 48.68 C215.56 32.51, 230.71 15.31, 244 0.18 M205.91 48.55 C220.63 30.21, 238.61 10.61, 248.09 -0.59 M206.1 49.57 C219.52 35.59, 230.86 20.52, 249.38 0.59 M210.84 48.54 C222.46 36.52, 229.05 28.41, 254.61 0.01 M213.35 48.97 C225.11 33.53, 239.24 18.11, 255.46 -0.07 M216.73 47.02 C231.55 30.75, 247.15 12.18, 258.63 1.59 M216.97 49.43 C233.98 30.06, 250.81 10.85, 260.14 -0.29 M222.8 47.62 C234.49 38.6, 242.99 24.12, 266.94 1.16 M224.05 47.68 C232.74 36.69, 244.08 25.57, 265.38 -0.17 M228.63 49.46 C241.13 35.12, 249.43 23.69, 271.1 0.79 M227.93 49.31 C242.78 31.89, 255.83 16.66, 270.19 -0.74 M232.8 49.68 C249.18 31.62, 264.14 11.2, 272.05 0.49 M233.82 47.49 C241.53 37.36, 251.22 28.5, 274.31 2.94 M237.01 50.15 C246.68 40.72, 255.93 31.16, 274.9 9.86 M237.83 47.62 C249.05 37.8, 256.89 26.91, 273.82 7.55 M244.69 48.03 C252.38 36.86, 265.44 25.14, 275.47 14.14 M244.55 48.05 C255.67 34.28, 267.66 22.98, 274.71 13.57 M249.18 50.44 C258.24 36.94, 265.99 28.73, 272.52 21.91 M250.1 48.74 C257.84 38.96, 267.32 28.39, 274.01 21.07 M256.28 49.04 C259.93 43.78, 264.31 34.18, 273.07 28.69 M255.68 47.97 C258.66 43.21, 264.18 38.48, 274.02 27.38 M260.43 46.72 C263.57 44.33, 270.51 37.69, 275.72 31.83 M260.66 49.03 C264.63 43.66, 269.13 36.67, 274.62 31.99 M266.63 48.11 C269.38 43.58, 272.29 41.25, 273.88 38.02 M265.93 48.54 C268.18 45.13, 270.74 42.17, 273.59 39.33 M270.45 47.93 C271.54 46.74, 273.29 45.75, 274.16 44.33 M270.46 48.51 C271.88 46.95, 273.12 45.8, 273.86 44.79" stroke="#868e96" stroke-width="0.5" fill="none"></path><path d="M1.21 -1.26 C71.43 1.7, 144.14 1.32, 269.94 -0.01 M0.65 -0.76 C97.24 -0.36, 192.55 -1.5, 271.53 0.5 M269.58 1.2 C270.49 9.57, 271.58 20.13, 272.58 47.32 M270.83 0.34 C271.09 10.24, 269.79 20.11, 271.99 48.11 M269.8 47.17 C191.31 50.12, 112.81 50.04, -1.5 46.52 M270.71 48.53 C213.85 49.38, 157.78 49.51, -0.18 48.75 M1.55 47.02 C2.06 31.85, 1.48 15.15, 0.94 -1.78 M0.04 48.37 C-0.68 33.35, 0.31 16.59, 0.28 -0.88" stroke="#000000" stroke-width="1" fill="none"></path></g><g stroke-linecap="round"><g transform="translate(515.3530056780246 23.34621456388703) rotate(0 -0.09616643782896972 115.71018849936154)"><path d="M0.93 -0.97 C0.89 37.78, -0.08 193.54, -0.11 232.39 M-0.05 1.14 C-0.26 39.59, -1.19 192.69, -1.11 230.87" stroke="#000000" stroke-width="1" fill="none"></path></g></g><g stroke-linecap="round"><g transform="translate(884.3530056780255 20.346214563886974) rotate(0 0.08907898887991905 112.90173413523776)"><path d="M-0.97 -0.11 C-0.76 37.57, 0.84 189.43, 1.15 227.01 M0.72 -1.21 C0.89 36.05, 0.83 187.38, 0.8 225.3" stroke="#000000" stroke-width="1" fill="none"></path></g></g><g transform="translate(629.1406249999995 185.0052746633347) rotate(0 98 13)"><text x="0" y="18" font-family="Virgil, Segoe UI Emoji" font-size="20px" fill="#000000" text-anchor="start" style="white-space: pre;" direction="ltr">two steps requests</text></g><g transform="translate(1246.140625 57.00527466333472) rotate(0 69 13)"><text x="0" y="18" font-family="Virgil, Segoe UI Emoji" font-size="20px" fill="#000000" text-anchor="start" style="white-space: pre;" direction="ltr">single request</text></g><g stroke-linecap="round"><g transform="translate(1130.3530056780255 76.58843358485024) rotate(0 -0.3342354283572604 69.81113354978778)"><path d="M0.48 1.14 C0.5 24.5, -0.06 116.07, -0.13 138.92 M-0.73 0.7 C-0.86 23.85, -1.15 114.82, -1.14 137.4" stroke="#000000" stroke-width="1" fill="none"></path></g></g><g stroke-linecap="round" transform="translate(1135.140625 104.00527466333472) rotate(0 181 24)"><path d="M0 0 C0 0, 0 0, 0 0 M0 0 C0 0, 0 0, 0 0 M-0.68 6.93 C1.25 5, 3.89 1.82, 4.38 0.01 M-0.04 6.62 C0.8 5, 2.4 3.12, 5.04 0.69 M-0.3 12.82 C4.47 8.99, 9.54 4.1, 10.92 -0.71 M-0.25 11.53 C3.14 8.84, 5.7 5.12, 9.89 0.38 M-1.3 19.76 C4.9 14.89, 7.4 7.91, 16.04 -0.7 M0.67 19.17 C3.61 14.16, 7.34 9.51, 16.35 -0.34 M1.07 22.13 C5.56 19.23, 8.96 12.17, 22.98 -0.18 M0.55 23.67 C3.94 19.4, 9.62 13.94, 21.27 -0.88 M1.88 32.02 C5.73 23.51, 12.98 13.16, 26.72 -0.2 M-0.08 30.04 C7.71 20.69, 15.41 12.95, 26.88 1.26 M0.37 38.39 C8.65 26.89, 15.59 18.1, 31.25 0.27 M-0.26 36.61 C10.78 25.93, 21.03 13.83, 31.39 -0.94 M-0.69 42.11 C15.44 26.87, 25.04 10.84, 37.83 -1.15 M-0.41 41.82 C13.01 27.42, 24.79 12.75, 37.86 0.84 M1 46.16 C9.49 38.87, 17.81 27.88, 43.57 0.35 M0.74 48.44 C10.89 35.34, 21.26 23.68, 41.75 -1.1 M7.25 48.65 C20.59 32.39, 36.19 13.75, 45.59 -0.6 M4.99 48.7 C17.78 33.72, 30.3 19.24, 48.01 0.24 M10.97 47.33 C29.26 28.18, 44.56 7.73, 51.63 -0.95 M11.18 48.82 C25.99 32.54, 41.09 14.56, 52.58 -0.79 M16.67 47.36 C27.68 35.63, 43.26 17.65, 56.18 1.44 M16.7 48.88 C28.16 33.33, 43.43 16.81, 57.55 0.26 M21.87 49.95 C36.92 28.18, 53.02 11.55, 63.1 -1.61 M21.8 47.5 C34.14 34.84, 45.27 21.56, 64.62 0.55 M25.21 47.04 C41.11 30.24, 56.46 11.46, 69.73 2.03 M26.61 48.57 C39.38 32.82, 53.64 16.77, 68.24 0.69 M33.07 47.84 C39.53 37.87, 49.01 25.9, 73.54 -0.55 M32.74 47.88 C49.7 29.19, 65.87 10.46, 75.15 -0.59 M35.7 49.54 C49.23 34.96, 63.33 18.92, 80.26 -0.7 M38.36 47.89 C46.87 37.2, 55.68 28.05, 79.4 0.25 M41.86 47.86 C59.18 32.14, 74.32 13.39, 86.48 -1.6 M43.69 48.33 C56.72 32.29, 70.14 15.75, 85.97 0.27 M46.91 47.76 C66.21 30.66, 82.43 13.18, 91.78 0.42 M48.15 48.95 C63.46 30.88, 77.34 14.83, 89.83 0.68 M55.48 49.96 C71.07 32.35, 86.16 14.82, 97.37 -1.56 M53.84 48.18 C63.37 37.03, 73.3 25.11, 95.45 -0.42 M57.54 49.66 C68.36 35.76, 81.34 22.21, 102.21 1.64 M58.68 47.82 C67.06 38.46, 74.77 29.26, 99.9 0.64 M62.44 47.88 C74.01 38.64, 82.47 25.72, 105.61 -2.14 M63.27 48.49 C78.7 31.88, 92.75 13.87, 106.44 -0.24 M70.25 50.29 C83.18 33.36, 92.41 20.26, 111.4 0.28 M69.22 48.55 C83.11 33.28, 96.52 17.08, 111.5 -0.21 M75.18 50.17 C90.05 30.96, 104.9 14.19, 117.87 -1.24 M73.55 49.04 C82.67 38.56, 91.36 28.59, 115.69 -0.06 M79.6 47.72 C90.4 36.94, 99.07 25.22, 121.17 -1.29 M79.54 49.13 C97.22 28.21, 112.6 9.36, 122.05 0.74 M86.09 48.72 C98.42 34.66, 111.4 20.51, 126.73 0.02 M85.82 48.82 C94.42 36.15, 105.23 25.34, 126.46 0.97 M92.12 47.11 C99 38.1, 110.85 26.04, 131.24 0.36 M89.95 47.56 C103.95 31.85, 119.18 14.38, 132.5 -0.91 M94.15 47.7 C113.09 30.74, 127.89 14.01, 138.74 1.86 M95.42 49.03 C112.07 28.63, 128.37 9.4, 136.55 -0.07 M102.27 48.68 C111.54 35.75, 126.87 19.22, 143.29 1.72 M101.28 47.77 C112.88 34.34, 122.8 21.47, 143.33 -0.62 M104.29 48.36 C115.94 39.99, 122.97 29.79, 149.05 -1.18 M105.19 47.88 C119.44 34.01, 131.02 21.48, 148.97 1.1 M112.43 47.71 C120.6 38.19, 131.9 24.6, 152.94 0.36 M110.93 47.69 C122.27 36.54, 133.49 21.81, 154.56 -0.85 M115.37 49.02 C126.41 39.81, 136.66 28.28, 160.73 0.49 M117.53 48.49 C126.99 38.63, 136.3 25.96, 159.24 0.75 M120.94 46.52 C138.45 31.2, 155.65 10.8, 165.72 -1.1 M122.79 47.19 C132.59 37.7, 141.96 25.78, 163.74 -1.11 M128.2 49.04 C143.16 31.56, 155.2 14.33, 168.81 -0.49 M128.36 49 C138.6 34.94, 149.02 22.95, 169.43 1.1 M134.07 46.54 C144.27 35.8, 157.15 20.54, 173.14 1.02 M133.29 48.12 C145.41 34.94, 157.31 21.15, 175.93 0.05 M137.5 48.85 C151.43 30.97, 167.26 16.24, 180.24 -0.39 M137.12 48.48 C150.13 33.69, 162.66 18.88, 180.12 0.34 M142.03 48.22 C154.31 38.3, 162.15 27.48, 184.62 -0.52 M143.41 48.33 C154.43 35.76, 167.24 20.86, 185.75 -0.92 M147.95 49.97 C159.21 37.63, 168.89 27.95, 189.92 -0.44 M148.81 49 C163.75 31.28, 178.06 14.12, 190.44 0.66 M154.95 47.1 C170.26 29.79, 185.86 14.34, 195.51 0.08 M154.64 47.58 C167.45 31.57, 180.81 17.24, 195.33 -0.63 M158.17 46.94 C171.94 37.34, 182.22 23.37, 200.67 1.21 M159.93 47.58 C173.62 33.06, 186.74 15.97, 202.05 0.17 M166.91 49.75 C179.17 32.63, 191.67 20.3, 207.12 1.68 M165.01 47.64 C176.48 32.97, 189.75 18.63, 206.35 -0.71 M168.71 47.38 C186.55 31.07, 200.27 14.35, 211.26 1.45 M170.54 48.21 C180.2 37.66, 191.54 25.37, 211.13 0.99 M175.95 49.85 C190.12 29.61, 206.66 14.66, 218.69 0.24 M175.09 48.24 C188.56 34.79, 200.11 19.09, 218.01 0.18 M182.04 47.99 C195.65 34.12, 207.65 16.17, 224.4 0.25 M180.2 47.86 C189.29 38.23, 197.78 28.03, 222.4 -0.82 M187.35 48.85 C194.01 37.06, 202.68 29.29, 227.39 0.74 M185.3 47.83 C202.99 29.85, 219.3 11.57, 229.04 0.34 M190.61 46.51 C204.93 32.04, 222.98 10.45, 234.74 0.65 M192.03 48.46 C199.56 37.34, 208.27 29.15, 233.1 0.78 M196.33 49.03 C208.2 34.14, 219.11 21.2, 239.67 2 M196.6 48.57 C206.88 36.77, 215.62 24.38, 239.05 -0.2 M200.76 49.75 C217.44 29.53, 233.76 12.72, 244.85 0.73 M202.67 48.9 C217.12 31.22, 232.32 13.83, 243.02 -0.19 M208.05 49.98 C223.14 28.55, 240.11 12.19, 249.9 1.63 M206.46 48.84 C220.02 31.6, 236.01 16.08, 249.15 1.3 M212.81 49.58 C224.36 35.14, 235.8 21.83, 253.26 1.64 M212.28 49.06 C222.18 37.54, 231.26 25.95, 254.47 0.24 M216.29 49.6 C228.02 37.53, 236.03 26.5, 260.41 0.57 M217.59 48.25 C230.98 30.46, 246.47 14.23, 260.01 0.81 M224.98 46.93 C233.52 37.32, 242.21 26.24, 266.42 -0.39 M222.57 47.78 C238.84 31.46, 252.93 12.56, 264.29 0.02 M226.75 48.87 C238.1 32.9, 253.08 20.45, 268.12 0.06 M227.19 48.38 C242.96 31.93, 257.53 14.41, 270.48 0.5 M233.45 47.8 C247.49 34, 260.66 17.04, 274.71 -2.1 M232.77 48.85 C246.56 32.59, 259.62 17.78, 275.86 -0.93 M237.07 47.81 C249.58 37.09, 256.83 27.85, 279.9 -1.57 M239.02 48.75 C255.86 29.62, 271.31 12.37, 280.95 -0.48 M244.34 47.26 C254.25 35.16, 263.67 24.08, 284.49 -1.13 M243.64 49.05 C259.4 31.18, 274.48 13.71, 287.07 -0.74 M248.85 49.5 C258.41 35.5, 269.82 24.76, 292.54 -0.97 M249.36 48.88 C261.79 32.38, 276.61 17.9, 291.35 0 M253.69 49.42 C267.2 33.61, 282.61 18.54, 298 -0.1 M255.49 48.14 C267.44 33.46, 280.56 17.71, 296.36 0.45 M259.58 48.11 C270.5 36.59, 280.22 24.24, 300.79 -1.69 M259.01 48.25 C269.78 38.09, 278.38 27.32, 301.13 1.02 M267.49 47.47 C280.61 29.54, 296.74 11.37, 309.46 1.48 M266.13 48.81 C276.55 36.43, 286.16 24.61, 306.71 0.47 M270.74 48.85 C277.37 39.31, 285.79 30.08, 313.32 1.76 M271.32 48.31 C285.09 31.36, 299.12 15.18, 313.26 0.64 M277.67 47.65 C287.06 38.17, 295.89 27.97, 317.02 -0.87 M276.92 48.76 C289.96 31.57, 302.02 18.02, 317.61 -0.9 M279.72 48 C293.7 34.16, 308.32 18.59, 324.73 -0.07 M282.16 48.46 C295.27 32.5, 307.26 17.86, 322.27 -0.12 M286.08 49.28 C304.44 29.55, 320.59 11.05, 330.75 -0.57 M286.76 48.63 C296.01 36.34, 305.84 26.82, 329.08 0.11 M291.84 48.89 C302.59 36.79, 308.83 28.47, 335.59 0.46 M291.95 48.1 C300.36 38.38, 309.4 28.11, 334.2 0.74 M295.88 49.49 C304.97 37.83, 315.74 24.62, 340.67 0.05 M297.4 48.79 C310.09 33.32, 324.87 16.11, 339.7 -0.79 M304.37 49.94 C315.09 35.96, 325.94 21.13, 344.38 0.03 M301.6 48.58 C312.44 36.59, 323.43 24.91, 344.63 0.17 M306.11 48.19 C324.73 31.18, 340.05 12.91, 348.08 -1.55 M308.12 48.32 C319.51 33.46, 332.88 19.33, 349.9 0.87 M314.52 48.6 C327.03 29.33, 342.27 14.51, 355.51 0.38 M312.6 49.22 C325.37 32.75, 337.11 19.74, 354.66 0.12 M319.79 48.63 C328.62 35.09, 343.85 21.77, 360.19 0.9 M317.74 49.54 C329.99 34.78, 343.2 20.49, 360.61 1.24 M323.44 49.41 C339.92 28.93, 353.37 14, 365.4 2.59 M322.93 47.3 C338.35 31.27, 354.04 13.22, 362.96 1.74 M330.53 50.39 C339.6 35.94, 346.97 25.53, 363.61 6.54 M329.27 48.97 C341.55 33.09, 356.75 17.28, 364.77 8.25 M336.21 47.96 C343.9 35.52, 354.53 21.97, 363.77 14.08 M335.14 48.1 C344.67 36.25, 355.18 25.88, 363.15 14.45 M337.88 50.08 C345.1 38.45, 355.23 33.11, 362.74 18.26 M339.26 48.09 C348.28 39.64, 355.49 29.07, 363.69 20.49 M345.83 46.89 C350.63 43.88, 354.18 38.22, 365.39 25.97 M344.27 48.83 C348.3 43.93, 353.2 38.95, 363.45 27.27 M351.33 49.38 C354.04 47.07, 355.94 41.59, 362.55 33.26 M349.78 49.39 C355.48 42.29, 361.01 36.76, 363.87 31.76 M356.71 48.01 C357.48 44.27, 361.18 42.12, 363.05 39.58 M355.83 48.5 C359.25 44.56, 361.76 41.01, 364.78 38.13 M361.06 48.14 C361.87 48, 362.35 46.8, 363.45 45.05 M360.59 48.44 C361.62 47.25, 362.47 46, 364.03 44.57" stroke="#868e96" stroke-width="0.5" fill="none"></path><path d="M-0.14 1.21 C72.56 -1.64, 144.08 -1.76, 361.58 -1.08 M0.34 -0.17 C116.28 0.68, 233.85 0.12, 362.47 -0.12 M362.09 -0.96 C360.18 12.17, 363.87 22.32, 363.47 47.33 M361.29 0.98 C360.93 14.66, 362.42 30.34, 361.77 48.48 M361.78 48.56 C281.95 48.31, 200.23 47.53, -0.57 48.38 M362.23 47.68 C233.7 47.11, 106.23 47.41, 0.5 48.32 M-0.89 47.06 C0.8 37.94, -1.37 27.07, -1.69 -0.83 M0.21 48.75 C-0.28 38.91, 0.29 27.38, -0.82 -0.5" stroke="#000000" stroke-width="1" fill="none"></path></g><g stroke-linecap="round"><g transform="translate(1499.3530056780255 68.58843358485024) rotate(0 -0.8311459802484933 78.99661519853092)"><path d="M-0.13 1.15 C-0.2 27.17, 0.17 131.28, 0.04 157.29 M-1.66 0.71 C-1.92 26.88, -1.42 129.71, -0.89 155.43" stroke="#000000" stroke-width="1" fill="none"></path></g></g><g stroke-linecap="round"><g transform="translate(134.890625 308.385277063887) rotate(0 611.0702826927043 -0.6815745842084269)"><path d="M1.03 -1.18 C204.83 -1.07, 1018.88 -0.48, 1222.02 -0.38 M0.12 0.81 C203.91 0.67, 1017.93 -1.59, 1221.61 -2.17" stroke="#000000" stroke-width="1" fill="none"></path></g><g transform="translate(134.890625 308.385277063887) rotate(0 611.0702826927043 -0.6815745842084269)"><path d="M-0.44 -14.91 C1.69 -14.02, 1.46 -7.61, 1.88 -2.52 M1.24 -16.06 C0.69 -11.59, 0.69 -6, 0.45 -1.74" stroke="#000000" stroke-width="1" fill="none"></path></g><g transform="translate(134.890625 308.385277063887) rotate(0 611.0702826927043 -0.6815745842084269)"><path d="M-0.46 15.09 C1.94 8.9, 1.72 8.23, 1.88 -2.52 M1.22 13.94 C0.88 7.9, 0.89 2.98, 0.45 -1.74" stroke="#000000" stroke-width="1" fill="none"></path></g><g transform="translate(134.890625 308.385277063887) rotate(0 611.0702826927043 -0.6815745842084269)"><path d="M1220.17 14.11 C1222.56 7.91, 1222.33 7.25, 1222.46 -3.5 M1221.85 12.96 C1221.49 6.92, 1221.49 2, 1221.03 -2.73" stroke="#000000" stroke-width="1" fill="none"></path></g><g transform="translate(134.890625 308.385277063887) rotate(0 611.0702826927043 -0.6815745842084269)"><path d="M1220.09 -15.89 C1222.23 -15.01, 1222.01 -8.59, 1222.46 -3.5 M1221.77 -17.04 C1221.24 -12.58, 1221.26 -6.99, 1221.03 -2.73" stroke="#000000" stroke-width="1" fill="none"></path></g></g><g transform="translate(10 340.361839563887) rotate(0 99 26)"><text x="0" y="18" font-family="Virgil, Segoe UI Emoji" font-size="20px" fill="#000000" text-anchor="start" style="white-space: pre;" direction="ltr">Lower latency</text><text x="0" y="44" font-family="Virgil, Segoe UI Emoji" font-size="20px" fill="#000000" text-anchor="start" style="white-space: pre;" direction="ltr">Higher total runtime</text></g><g transform="translate(645 328.361839563887) rotate(0 49.5 13)"><text x="0" y="18" font-family="Virgil, Segoe UI Emoji" font-size="20px" fill="#000000" text-anchor="start" style="white-space: pre;" direction="ltr">tradeoffs</text></g><g transform="translate(1269 348.361839563887) rotate(0 99 26)"><text x="0" y="18" font-family="Virgil, Segoe UI Emoji" font-size="20px" fill="#000000" text-anchor="start" style="white-space: pre;" direction="ltr">Higher latency</text><text x="0" y="44" font-family="Virgil, Segoe UI Emoji" font-size="20px" fill="#000000" text-anchor="start" style="white-space: pre;" direction="ltr">Lower total runtime</text></g></svg>