<svg version="1.1" xmlns="http://www.w3.org/2000/svg" viewBox="0 0 390.21180986799936 188.86830677938963" width="390.21180986799936" height="188.86830677938963">
    <!-- svg-source:excalidraw -->

    <defs>
        <style class="style-fonts">
            @font-face {
            font-family: "Virgil";
            src: url("https://excalidraw.com/Virgil.woff2");
            }
            @font-face {
            font-family: "Cascadia";
            src: url("https://excalidraw.com/Cascadia.woff2");
            }
        </style>
    </defs>
    <rect x="0" y="0" width="390.21180986799936" height="188.86830677938963" fill="#ffffff"></rect><g transform="translate(126.93206637853928 10) rotate(0 69 13)"><text x="0" y="18" font-family="Virgil, Segoe UI Emoji" font-size="20px" fill="#000000" text-anchor="start" style="white-space: pre;" direction="ltr">single request</text></g><g stroke-linecap="round"><g transform="translate(11.144447056564786 29.58315892151552) rotate(0 -0.3342354283572604 69.81113354978778)"><path d="M0.48 1.14 C0.5 24.5, -0.06 116.07, -0.13 138.92 M-0.73 0.7 C-0.86 23.85, -1.15 114.82, -1.14 137.4" stroke="#000000" stroke-width="1" fill="none"></path></g></g><g stroke-linecap="round" transform="translate(15.932066378539275 57) rotate(0 181 24)"><path d="M0 0 C0 0, 0 0, 0 0 M0 0 C0 0, 0 0, 0 0 M-0.68 6.93 C1.25 5, 3.89 1.82, 4.38 0.01 M-0.04 6.62 C0.8 5, 2.4 3.12, 5.04 0.69 M-0.3 12.82 C4.47 8.99, 9.54 4.1, 10.92 -0.71 M-0.25 11.53 C3.14 8.84, 5.7 5.12, 9.89 0.38 M-1.3 19.76 C4.9 14.89, 7.4 7.91, 16.04 -0.7 M0.67 19.17 C3.61 14.16, 7.34 9.51, 16.35 -0.34 M1.07 22.13 C5.56 19.23, 8.96 12.17, 22.98 -0.18 M0.55 23.67 C3.94 19.4, 9.62 13.94, 21.27 -0.88 M1.88 32.02 C5.73 23.51, 12.98 13.16, 26.72 -0.2 M-0.08 30.04 C7.71 20.69, 15.41 12.95, 26.88 1.26 M0.37 38.39 C8.65 26.89, 15.59 18.1, 31.25 0.27 M-0.26 36.61 C10.78 25.93, 21.03 13.83, 31.39 -0.94 M-0.69 42.11 C15.44 26.87, 25.04 10.84, 37.83 -1.15 M-0.41 41.82 C13.01 27.42, 24.79 12.75, 37.86 0.84 M1 46.16 C9.49 38.87, 17.81 27.88, 43.57 0.35 M0.74 48.44 C10.89 35.34, 21.26 23.68, 41.75 -1.1 M7.25 48.65 C20.59 32.39, 36.19 13.75, 45.59 -0.6 M4.99 48.7 C17.78 33.72, 30.3 19.24, 48.01 0.24 M10.97 47.33 C29.26 28.18, 44.56 7.73, 51.63 -0.95 M11.18 48.82 C25.99 32.54, 41.09 14.56, 52.58 -0.79 M16.67 47.36 C27.68 35.63, 43.26 17.65, 56.18 1.44 M16.7 48.88 C28.16 33.33, 43.43 16.81, 57.55 0.26 M21.87 49.95 C36.92 28.18, 53.02 11.55, 63.1 -1.61 M21.8 47.5 C34.14 34.84, 45.27 21.56, 64.62 0.55 M25.21 47.04 C41.11 30.24, 56.46 11.46, 69.73 2.03 M26.61 48.57 C39.38 32.82, 53.64 16.77, 68.24 0.69 M33.07 47.84 C39.53 37.87, 49.01 25.9, 73.54 -0.55 M32.74 47.88 C49.7 29.19, 65.87 10.46, 75.15 -0.59 M35.7 49.54 C49.23 34.96, 63.33 18.92, 80.26 -0.7 M38.36 47.89 C46.87 37.2, 55.68 28.05, 79.4 0.25 M41.86 47.86 C59.18 32.14, 74.32 13.39, 86.48 -1.6 M43.69 48.33 C56.72 32.29, 70.14 15.75, 85.97 0.27 M46.91 47.76 C66.21 30.66, 82.43 13.18, 91.78 0.42 M48.15 48.95 C63.46 30.88, 77.34 14.83, 89.83 0.68 M55.48 49.96 C71.07 32.35, 86.16 14.82, 97.37 -1.56 M53.84 48.18 C63.37 37.03, 73.3 25.11, 95.45 -0.42 M57.54 49.66 C68.36 35.76, 81.34 22.21, 102.21 1.64 M58.68 47.82 C67.06 38.46, 74.77 29.26, 99.9 0.64 M62.44 47.88 C74.01 38.64, 82.47 25.72, 105.61 -2.14 M63.27 48.49 C78.7 31.88, 92.75 13.87, 106.44 -0.24 M70.25 50.29 C83.18 33.36, 92.41 20.26, 111.4 0.28 M69.22 48.55 C83.11 33.28, 96.52 17.08, 111.5 -0.21 M75.18 50.17 C90.05 30.96, 104.9 14.19, 117.87 -1.24 M73.55 49.04 C82.67 38.56, 91.36 28.59, 115.69 -0.06 M79.6 47.72 C90.4 36.94, 99.07 25.22, 121.17 -1.29 M79.54 49.13 C97.22 28.21, 112.6 9.36, 122.05 0.74 M86.09 48.72 C98.42 34.66, 111.4 20.51, 126.73 0.02 M85.82 48.82 C94.42 36.15, 105.23 25.34, 126.46 0.97 M92.12 47.11 C99 38.1, 110.85 26.04, 131.24 0.36 M89.95 47.56 C103.95 31.85, 119.18 14.38, 132.5 -0.91 M94.15 47.7 C113.09 30.74, 127.89 14.01, 138.74 1.86 M95.42 49.03 C112.07 28.63, 128.37 9.4, 136.55 -0.07 M102.27 48.68 C111.54 35.75, 126.87 19.22, 143.29 1.72 M101.28 47.77 C112.88 34.34, 122.8 21.47, 143.33 -0.62 M104.29 48.36 C115.94 39.99, 122.97 29.79, 149.05 -1.18 M105.19 47.88 C119.44 34.01, 131.02 21.48, 148.97 1.1 M112.43 47.71 C120.6 38.19, 131.9 24.6, 152.94 0.36 M110.93 47.69 C122.27 36.54, 133.49 21.81, 154.56 -0.85 M115.37 49.02 C126.41 39.81, 136.66 28.28, 160.73 0.49 M117.53 48.49 C126.99 38.63, 136.3 25.96, 159.24 0.75 M120.94 46.52 C138.45 31.2, 155.65 10.8, 165.72 -1.1 M122.79 47.19 C132.59 37.7, 141.96 25.78, 163.74 -1.11 M128.2 49.04 C143.16 31.56, 155.2 14.33, 168.81 -0.49 M128.36 49 C138.6 34.94, 149.02 22.95, 169.43 1.1 M134.07 46.54 C144.27 35.8, 157.15 20.54, 173.14 1.02 M133.29 48.12 C145.41 34.94, 157.31 21.15, 175.93 0.05 M137.5 48.85 C151.43 30.97, 167.26 16.24, 180.24 -0.39 M137.12 48.48 C150.13 33.69, 162.66 18.88, 180.12 0.34 M142.03 48.22 C154.31 38.3, 162.15 27.48, 184.62 -0.52 M143.41 48.33 C154.43 35.76, 167.24 20.86, 185.75 -0.92 M147.95 49.97 C159.21 37.63, 168.89 27.95, 189.92 -0.44 M148.81 49 C163.75 31.28, 178.06 14.12, 190.44 0.66 M154.95 47.1 C170.26 29.79, 185.86 14.34, 195.51 0.08 M154.64 47.58 C167.45 31.57, 180.81 17.24, 195.33 -0.63 M158.17 46.94 C171.94 37.34, 182.22 23.37, 200.67 1.21 M159.93 47.58 C173.62 33.06, 186.74 15.97, 202.05 0.17 M166.91 49.75 C179.17 32.63, 191.67 20.3, 207.12 1.68 M165.01 47.64 C176.48 32.97, 189.75 18.63, 206.35 -0.71 M168.71 47.38 C186.55 31.07, 200.27 14.35, 211.26 1.45 M170.54 48.21 C180.2 37.66, 191.54 25.37, 211.13 0.99 M175.95 49.85 C190.12 29.61, 206.66 14.66, 218.69 0.24 M175.09 48.24 C188.56 34.79, 200.11 19.09, 218.01 0.18 M182.04 47.99 C195.65 34.12, 207.65 16.17, 224.4 0.25 M180.2 47.86 C189.29 38.23, 197.78 28.03, 222.4 -0.82 M187.35 48.85 C194.01 37.06, 202.68 29.29, 227.39 0.74 M185.3 47.83 C202.99 29.85, 219.3 11.57, 229.04 0.34 M190.61 46.51 C204.93 32.04, 222.98 10.45, 234.74 0.65 M192.03 48.46 C199.56 37.34, 208.27 29.15, 233.1 0.78 M196.33 49.03 C208.2 34.14, 219.11 21.2, 239.67 2 M196.6 48.57 C206.88 36.77, 215.62 24.38, 239.05 -0.2 M200.76 49.75 C217.44 29.53, 233.76 12.72, 244.85 0.73 M202.67 48.9 C217.12 31.22, 232.32 13.83, 243.02 -0.19 M208.05 49.98 C223.14 28.55, 240.11 12.19, 249.9 1.63 M206.46 48.84 C220.02 31.6, 236.01 16.08, 249.15 1.3 M212.81 49.58 C224.36 35.14, 235.8 21.83, 253.26 1.64 M212.28 49.06 C222.18 37.54, 231.26 25.95, 254.47 0.24 M216.29 49.6 C228.02 37.53, 236.03 26.5, 260.41 0.57 M217.59 48.25 C230.98 30.46, 246.47 14.23, 260.01 0.81 M224.98 46.93 C233.52 37.32, 242.21 26.24, 266.42 -0.39 M222.57 47.78 C238.84 31.46, 252.93 12.56, 264.29 0.02 M226.75 48.87 C238.1 32.9, 253.08 20.45, 268.12 0.06 M227.19 48.38 C242.96 31.93, 257.53 14.41, 270.48 0.5 M233.45 47.8 C247.49 34, 260.66 17.04, 274.71 -2.1 M232.77 48.85 C246.56 32.59, 259.62 17.78, 275.86 -0.93 M237.07 47.81 C249.58 37.09, 256.83 27.85, 279.9 -1.57 M239.02 48.75 C255.86 29.62, 271.31 12.37, 280.95 -0.48 M244.34 47.26 C254.25 35.16, 263.67 24.08, 284.49 -1.13 M243.64 49.05 C259.4 31.18, 274.48 13.71, 287.07 -0.74 M248.85 49.5 C258.41 35.5, 269.82 24.76, 292.54 -0.97 M249.36 48.88 C261.79 32.38, 276.61 17.9, 291.35 0 M253.69 49.42 C267.2 33.61, 282.61 18.54, 298 -0.1 M255.49 48.14 C267.44 33.46, 280.56 17.71, 296.36 0.45 M259.58 48.11 C270.5 36.59, 280.22 24.24, 300.79 -1.69 M259.01 48.25 C269.78 38.09, 278.38 27.32, 301.13 1.02 M267.49 47.47 C280.61 29.54, 296.74 11.37, 309.46 1.48 M266.13 48.81 C276.55 36.43, 286.16 24.61, 306.71 0.47 M270.74 48.85 C277.37 39.31, 285.79 30.08, 313.32 1.76 M271.32 48.31 C285.09 31.36, 299.12 15.18, 313.26 0.64 M277.67 47.65 C287.06 38.17, 295.89 27.97, 317.02 -0.87 M276.92 48.76 C289.96 31.57, 302.02 18.02, 317.61 -0.9 M279.72 48 C293.7 34.16, 308.32 18.59, 324.73 -0.07 M282.16 48.46 C295.27 32.5, 307.26 17.86, 322.27 -0.12 M286.08 49.28 C304.44 29.55, 320.59 11.05, 330.75 -0.57 M286.76 48.63 C296.01 36.34, 305.84 26.82, 329.08 0.11 M291.84 48.89 C302.59 36.79, 308.83 28.47, 335.59 0.46 M291.95 48.1 C300.36 38.38, 309.4 28.11, 334.2 0.74 M295.88 49.49 C304.97 37.83, 315.74 24.62, 340.67 0.05 M297.4 48.79 C310.09 33.32, 324.87 16.11, 339.7 -0.79 M304.37 49.94 C315.09 35.96, 325.94 21.13, 344.38 0.03 M301.6 48.58 C312.44 36.59, 323.43 24.91, 344.63 0.17 M306.11 48.19 C324.73 31.18, 340.05 12.91, 348.08 -1.55 M308.12 48.32 C319.51 33.46, 332.88 19.33, 349.9 0.87 M314.52 48.6 C327.03 29.33, 342.27 14.51, 355.51 0.38 M312.6 49.22 C325.37 32.75, 337.11 19.74, 354.66 0.12 M319.79 48.63 C328.62 35.09, 343.85 21.77, 360.19 0.9 M317.74 49.54 C329.99 34.78, 343.2 20.49, 360.61 1.24 M323.44 49.41 C339.92 28.93, 353.37 14, 365.4 2.59 M322.93 47.3 C338.35 31.27, 354.04 13.22, 362.96 1.74 M330.53 50.39 C339.6 35.94, 346.97 25.53, 363.61 6.54 M329.27 48.97 C341.55 33.09, 356.75 17.28, 364.77 8.25 M336.21 47.96 C343.9 35.52, 354.53 21.97, 363.77 14.08 M335.14 48.1 C344.67 36.25, 355.18 25.88, 363.15 14.45 M337.88 50.08 C345.1 38.45, 355.23 33.11, 362.74 18.26 M339.26 48.09 C348.28 39.64, 355.49 29.07, 363.69 20.49 M345.83 46.89 C350.63 43.88, 354.18 38.22, 365.39 25.97 M344.27 48.83 C348.3 43.93, 353.2 38.95, 363.45 27.27 M351.33 49.38 C354.04 47.07, 355.94 41.59, 362.55 33.26 M349.78 49.39 C355.48 42.29, 361.01 36.76, 363.87 31.76 M356.71 48.01 C357.48 44.27, 361.18 42.12, 363.05 39.58 M355.83 48.5 C359.25 44.56, 361.76 41.01, 364.78 38.13 M361.06 48.14 C361.87 48, 362.35 46.8, 363.45 45.05 M360.59 48.44 C361.62 47.25, 362.47 46, 364.03 44.57" stroke="#868e96" stroke-width="0.5" fill="none"></path><path d="M-0.14 1.21 C72.56 -1.64, 144.08 -1.76, 361.58 -1.08 M0.34 -0.17 C116.28 0.68, 233.85 0.12, 362.47 -0.12 M362.09 -0.96 C360.18 12.17, 363.87 22.32, 363.47 47.33 M361.29 0.98 C360.93 14.66, 362.42 30.34, 361.77 48.48 M361.78 48.56 C281.95 48.31, 200.23 47.53, -0.57 48.38 M362.23 47.68 C233.7 47.11, 106.23 47.41, 0.5 48.32 M-0.89 47.06 C0.8 37.94, -1.37 27.07, -1.69 -0.83 M0.21 48.75 C-0.28 38.91, 0.29 27.38, -0.82 -0.5" stroke="#000000" stroke-width="1" fill="none"></path></g><g stroke-linecap="round"><g transform="translate(380.1444470565648 21.58315892151552) rotate(0 -0.8311459802484933 78.99661519853092)"><path d="M-0.13 1.15 C-0.2 27.17, 0.17 131.28, 0.04 157.29 M-1.66 0.71 C-1.92 26.88, -1.42 129.71, -0.89 155.43" stroke="#000000" stroke-width="1" fill="none"></path></g></g></svg>