<svg width="240" height="56" viewBox="0 0 240 56" fill="none" xmlns="http://www.w3.org/2000/svg">
<g clip-path="url(#clip0_2371_288561)">
<path d="M35.3899 24.5597V19.0266L27.9056 11.0267L22.7474 10.0969V4.4886V0L10.9211 11.7012L0 36.1007L16.9805 41.2243L9.79463 32.5913L14.2216 13.7863L19.9549 6.58157V18.2136L14.2216 23.1908L27.3641 27.3075L31.0025 25.1235L35.9789 28.9435C35.6389 30.4351 36.4097 31.9583 37.8148 32.5636L37.8722 32.5894C36.6646 34.6665 34.6429 34.6467 32.295 33.7941L24.9391 30.5597L22.0102 33.7941L28.1566 40.9217L22.0557 46.8504L6.02579 41.8138L18.5517 55.4913L32.2555 45.5547V37.7901C37.2279 39.1195 40.5382 36.5616 41.8208 30.623L35.3899 24.5597ZM28.3839 23.4499L24.6051 20.1146H29.5598L30.7554 22.0652L28.3839 23.4499Z" fill="#1A1523"/>
<path d="M35.3896 4.57925L29.4649 10.0728L35.3896 16.3299V4.57925Z" fill="#1A1523"/>
<path d="M68.8267 34.5185H73.0044V34.6748C72.627 38.8904 69.4927 43.1397 63.3051 43.1397C57.1156 43.1397 52.7166 38.5581 52.7166 31.9844C52.7166 25.4108 56.9713 20.8411 63.3051 20.8411C69.6389 20.8411 72.627 25.0903 72.9945 29.3059V29.4503H68.8287L68.8069 29.3395C68.4848 27.2367 66.8505 24.7797 63.3526 24.7797C59.6076 24.7797 56.9852 27.749 56.9852 31.9864C56.9852 36.2238 59.6076 39.205 63.3526 39.205C66.8524 39.205 68.4848 36.748 68.8069 34.6452L68.8267 34.5185Z" fill="#1A1523"/>
<path d="M85.77 20.8374C79.6042 20.8374 75.304 25.419 75.304 31.9808C75.304 38.5426 79.6042 43.136 85.77 43.136C91.9358 43.136 96.2479 38.5544 96.2479 31.9808C96.2479 25.4071 91.9378 20.8374 85.77 20.8374ZM91.9813 31.9827C91.9813 36.232 89.426 39.2013 85.77 39.2013C82.114 39.2013 79.5706 36.232 79.5706 31.9827C79.5706 27.7335 82.1259 24.7761 85.77 24.7761C89.4142 24.7761 91.9813 27.7454 91.9813 31.9827Z" fill="#1A1523"/>
<path d="M118.604 29.9808V42.8037H114.338V30.8136C114.338 26.5762 112.816 24.6079 109.549 24.6079C106.527 24.6079 103.271 27.6999 103.271 32.6929V42.8037H98.9941V21.1717H103.271V22.7167C103.271 23.4843 103.304 24.24 102.638 25.3636L103.126 25.8305C104.016 23.8166 106.715 20.8374 110.549 20.8374C115.826 20.8374 118.604 23.9966 118.604 29.9808Z" fill="#1A1523"/>
<path d="M137.96 12.4973V22.974C137.96 23.7079 138.105 24.2203 138.605 25.0531L138.071 25.4982C137.038 22.6615 134.215 20.8375 130.838 20.8375C125.305 20.8375 121.283 25.5319 121.283 31.9928C121.283 38.4537 125.305 43.1381 130.838 43.1381C134.059 43.1381 136.783 41.4922 137.96 38.879V42.8058H142.239V12.4993H137.96V12.4973ZM131.682 39.2014C128.848 39.2014 125.56 37.3103 125.56 31.9947C125.56 26.6792 128.848 24.7762 131.682 24.7762C135.259 24.7762 137.96 27.88 137.96 31.9947C137.96 36.1095 135.261 39.2014 131.682 39.2014Z" fill="#1A1523"/>
<path d="M165.682 21.1716V42.8036H161.415V38.4554C160.115 40.7126 157.548 43.1379 154.127 43.1379C148.86 43.1379 146.072 39.9787 146.072 33.9965V21.1736H150.351V33.1637C150.351 37.401 151.862 39.3694 155.129 39.3694C158.151 39.3694 161.417 36.2774 161.417 31.2843V21.1736H165.682V21.1716Z" fill="#1A1523"/>
<path d="M188.471 42.804H183.281L183.248 42.7604L175.748 33.1957L173.647 35.2985V42.8059H169.369V12.4856H173.647V30.2026L182.368 21.172H187.846L187.613 21.4054L178.447 30.5369L188.471 42.804Z" fill="#1A1523"/>
<path d="M197.106 24.9419V35.9983C197.106 38.4335 197.64 39.0348 199.805 39.0348H203.118V42.8054H199.473C194.762 42.8054 192.841 40.9597 192.841 36.4097V24.9419H188.841V21.1714H192.841V15.1655H197.108V21.1714H203.396V24.9419H197.106Z" fill="#1A1523"/>
<path d="M215.217 20.8374C209.051 20.8374 204.741 25.419 204.741 31.9926C204.741 38.5663 209.051 43.138 215.217 43.138C221.385 43.138 225.683 38.5564 225.683 31.9926C225.683 25.4309 221.385 20.8374 215.217 20.8374ZM221.416 31.9926C221.416 36.23 218.861 39.1993 215.217 39.1993C211.573 39.1993 209.006 36.23 209.006 31.9926C209.006 27.7553 211.563 24.7741 215.217 24.7741C218.873 24.7761 221.416 27.7454 221.416 31.9926Z" fill="#1A1523"/>
<path d="M240.607 20.8374V25.2093H240.462C237.451 24.9877 235.496 25.421 234.297 26.5327C233.129 27.6346 232.607 29.4585 232.607 32.4496V42.8037H228.328V21.1717H232.607V22.7286C232.607 23.5515 232.607 24.0975 231.895 25.2311L232.484 25.686C233.797 22.3943 235.063 20.8374 240.474 20.8374H240.607Z" fill="#1A1523"/>
</g>
<defs>
<clipPath id="clip0_2371_288561">
<rect width="240" height="55.4913" fill="white"/>
</clipPath>
</defs>
</svg>
