<svg version="1.1" xmlns="http://www.w3.org/2000/svg" viewBox="0 0 289.12952964046053 267.8442314836383" width="289.12952964046053" height="267.8442314836383">
    <!-- svg-source:excalidraw -->

    <defs>
        <style class="style-fonts">
            @font-face {
            font-family: "Virgil";
            src: url("https://excalidraw.com/Virgil.woff2");
            }
            @font-face {
            font-family: "Cascadia";
            src: url("https://excalidraw.com/Cascadia.woff2");
            }
        </style>
    </defs>
    <rect x="0" y="0" width="289.12952964046053" height="267.8442314836383" fill="#ffffff"></rect><g stroke-linecap="round"><g transform="translate(11.129529640460532 10.505274663334717) rotate(0 0.2876193219749439 123.41684107848442)"><path d="M0.22 0.35 C0.68 41.41, 1.4 204.98, 1.7 245.87 M-1.13 -0.51 C-0.67 40.79, 0.63 206.12, 1.13 247.34" stroke="#000000" stroke-width="1" fill="none"></path></g></g><g stroke-linecap="round" transform="translate(12.129529640460532 76.50527466333472) rotate(0 47.5 24)"><path d="M0 0 C0 0, 0 0, 0 0 M0 0 C0 0, 0 0, 0 0 M-0.2 6.25 C1.2 4.47, 2.03 4.53, 4.87 -0.27 M-0.03 6.08 C1.29 4.42, 3.48 2.2, 5.18 0.49 M0.48 13.02 C4.36 6.17, 6.32 2.34, 11.41 0.32 M0.13 12.38 C2.91 8.26, 5.41 5.11, 10.4 -0.43 M1.17 17.28 C2.65 13.5, 10.01 6.74, 14.59 2.29 M0.09 18.13 C4.05 12.26, 9.19 7.35, 15.6 0.05 M0.91 23.19 C3.08 19.55, 9.6 13.55, 22.49 1.35 M0.91 23.85 C6.57 16.69, 13.21 9.95, 20.56 0.83 M0.13 31.29 C7.06 20.87, 16.44 12.23, 26.63 -1.68 M-0.06 31.14 C9.7 19.98, 16.65 10.69, 25.44 1.23 M-0.69 35.38 C6.57 28.9, 11.51 20.31, 32.53 -0.69 M-0.45 37.73 C7.67 29.38, 14.72 19.14, 32.53 0.76 M-0.55 40.69 C9.99 32.11, 16.53 23.42, 36.97 1.5 M1.03 42.96 C9.39 31.07, 20.96 19.31, 36.66 0.29 M-0.87 48.97 C9.39 38.67, 17.3 26.69, 43.61 -1.29 M1.06 48.51 C13.53 32.4, 26.66 17.12, 42.33 -0.83 M7.48 46.61 C19.75 31.45, 35.94 12.43, 48.18 -0.95 M6.08 48.06 C16.02 37.03, 26.72 23.65, 48.22 0.49 M12.74 48.1 C27.99 29.33, 40.7 13.91, 54.04 -1.47 M10.32 48.27 C20.82 35.88, 31.85 24.54, 52.31 0.18 M15.8 46.8 C25.96 33.06, 39.7 18.94, 57.31 -1.27 M16.8 49.19 C30.23 31.03, 45.97 13.46, 58.37 0.31 M20.58 46.61 C37.2 29.84, 55.87 11.46, 62.54 0.35 M21.1 47.43 C33.42 34.98, 46.41 21.16, 63.1 0.14 M27.14 47.59 C38.36 34.77, 53.88 16.64, 67.81 0.89 M25.96 49.36 C38.7 33, 52.75 19.52, 68.63 -0.56 M31.35 47.58 C44.46 35.94, 55.13 24.85, 76.32 0.26 M32.3 48.31 C48.49 29.68, 64.78 10.62, 73.62 -0.4 M37.95 47.85 C51.8 31.45, 62.56 18.58, 77.57 -1.59 M37.84 47.76 C49.22 34.28, 61.43 22.39, 79.81 0.82 M44.21 46.67 C58.54 30.38, 72.12 11.97, 86.98 0.94 M42.11 48.47 C53.52 36.34, 63.07 23.42, 85.07 -0.67 M49.08 49 C59.38 33.91, 71.43 21.53, 90.96 0.75 M49.03 47.78 C56.81 38.08, 67.15 26.06, 90 0.57 M52.76 48.08 C68.89 34.63, 82.53 16.95, 93.93 0.39 M53.99 48.67 C66.27 34.81, 76.76 21.85, 94.28 1.11 M57.85 47.04 C70.58 32.42, 84.2 19.61, 93.48 7.97 M58.37 49.05 C72.5 32.57, 85.52 17.93, 95.31 6.1 M64.35 49.33 C72.11 41.98, 79.68 30.75, 96.48 12.97 M64.02 49.64 C71.18 40.96, 77.15 33.59, 95.8 12.69 M70 48.52 C79.4 38.56, 85.91 28.76, 94.36 18.66 M69.01 47.41 C77 39.57, 83.5 30.51, 96.41 17.98 M74.76 50.25 C82.3 39.43, 87.32 31.51, 93.41 25.74 M73.55 49.07 C79.28 41.39, 86.52 35.16, 95.54 24.21 M79.72 46.54 C85.76 42.61, 90.05 35.22, 93.83 30.67 M80.35 48.93 C83.69 44.44, 87.82 38.95, 95.81 30.71 M84.38 49.31 C88.4 45.14, 93.01 42.12, 94.35 35.8 M85.16 48.24 C87.69 45.82, 90.7 41.57, 95.73 37.16 M90.23 48.44 C91.43 46.81, 92.19 46.11, 95.21 42.7 M90.4 48.12 C91.77 46.95, 93.57 44.58, 95.46 43.26" stroke="#868e96" stroke-width="0.5" fill="none"></path><path d="M-1.42 -0.91 C29.33 2.66, 62.11 1.88, 94.04 1.78 M-0.28 0.39 C20.03 1.1, 39.79 0.44, 95.94 -0.97 M93.3 -0.09 C93.72 9.88, 95.11 20.58, 94.17 49.09 M95.32 -0.47 C95.92 11.5, 94.62 21.67, 95.21 48.96 M93.7 47.2 C73.74 46.49, 51.39 46.37, 0.66 48.64 M95.38 48.35 C73.87 47.52, 51.78 48.79, 0.9 47.93 M-1.59 49.16 C1.59 34.32, -1.2 19.05, 0.86 1.3 M0.15 47.1 C-0.14 29.94, -0.83 11.51, 0.26 -0.05" stroke="#000000" stroke-width="1" fill="none"></path></g><g transform="translate(28.129529640460532 28.505274663334717) rotate(0 42.5 13)"><text x="0" y="18" font-family="Virgil, Segoe UI Emoji" font-size="20px" fill="#000000" text-anchor="start" style="white-space: pre;" direction="ltr">RESTFul</text></g><g stroke-linecap="round" transform="translate(12.129529640460532 141.50527466333472) rotate(0 47.5 24)"><path d="M0 0 C0 0, 0 0, 0 0 M0 0 C0 0, 0 0, 0 0 M-0.97 6.84 C0.66 4.99, 2.71 3.48, 4.6 0.93 M-0.65 6.71 C1.41 4.69, 2.82 2.18, 5.13 0.54 M0.04 10.69 C2.88 8.53, 4.78 6.58, 11.4 -1.38 M0.9 11.9 C3 7.21, 6.66 3.9, 9.9 -0.37 M0.26 19.73 C4.75 12.81, 6.59 10.26, 14.54 0.79 M-0.91 17.83 C3.88 12.35, 9.57 7.92, 15.8 -0.29 M-1.48 22.69 C5.84 14.92, 14.74 8.95, 21.94 -1.43 M-0.27 24.26 C6.83 15.25, 14.89 8.36, 20.35 -0.55 M-1.59 28.83 C10.62 18.64, 16.21 10.35, 28.02 0.02 M0.32 29.94 C5.93 24.34, 12.22 17.51, 26.8 1.24 M-1.72 36.63 C10.36 24.36, 20.6 12.16, 31.78 -1.68 M-1.1 37.15 C8.51 26.89, 16.96 15.07, 32.23 -1.01 M-0.36 43.38 C6.78 33.77, 14.27 25.85, 38.15 1.08 M0.09 43.1 C12.82 27.13, 26.85 10.81, 36.02 1.23 M0.19 46.28 C16.81 31.17, 31.72 11.82, 41.54 -0.07 M-0.4 48.68 C11.85 35.07, 22.05 22.41, 42.89 0.33 M6.83 50.5 C18.65 30.75, 35.63 16.37, 47.05 0.16 M4.59 48.06 C20.08 32.51, 35.63 15.67, 47.42 -0.32 M12.16 48.73 C25.1 35.7, 36.66 19.4, 54.04 -1.65 M11.69 47.72 C25.69 30.03, 41 12.95, 53.18 -1.14 M16.08 47.9 C33.83 30.81, 47.41 11.71, 57.27 -0.01 M16.02 48.83 C29.48 34.75, 42.49 20.46, 57.23 0.86 M20.14 48.82 C37.73 34.53, 48.24 17.97, 62.56 1.11 M20.94 48.45 C35.32 33.6, 48.36 17.3, 63.22 -0.8 M28.67 47.87 C38.77 33.36, 54.37 15.73, 67.83 1.88 M26.64 48.69 C39.42 35.2, 49.85 20.56, 67.95 -0.78 M32.39 46.58 C48.42 28.7, 61.92 13.85, 74.81 0.28 M33.22 47.96 C42.47 34.95, 55.08 21.31, 74.41 -0.84 M37.56 49.26 C51.01 34.53, 62.83 21.34, 78.14 1.7 M37.22 48.09 C49.37 34.98, 60.99 22.19, 80.37 -0.55 M41.59 48.63 C52.66 35.14, 65.88 22.76, 84.95 0.53 M42.7 47.56 C59.4 29.43, 74.51 10.91, 85.43 -0.2 M46.16 47.46 C58.21 34.29, 71.98 23.55, 88.07 1.86 M47.81 48.68 C65.11 29.78, 81.62 11.21, 89.58 0.46 M52.86 48.15 C68.71 28.37, 83.03 10.74, 96.92 -0.21 M53.83 48.78 C63.66 36.38, 71.92 25.12, 95.59 0.12 M60.3 46.43 C69.15 37.36, 75.93 24.35, 96.69 5.39 M57.76 47.38 C67.37 38.65, 76.14 30.31, 95.66 5.41 M63.09 49.64 C71.88 42.3, 77.29 32.96, 96.54 14.43 M62.69 48.13 C71.44 40.57, 78.83 31.84, 94.95 12.19 M68.25 46.69 C78.23 36.82, 85.85 26.46, 96.75 19.85 M69.69 48.27 C78.1 38.54, 87.15 27.38, 96.27 17.63 M75.6 49.88 C77.64 43.2, 84.67 38.75, 95.13 23.43 M73.6 48.05 C79.08 42.95, 83.82 37.25, 95.88 25.36 M80.74 49.31 C83.61 40.43, 90.99 37.53, 94 30.07 M79.49 48.68 C82.47 44.24, 87.15 40.94, 95.9 31.4 M84.32 50.13 C87.97 45.02, 92.79 39.71, 96.35 37.48 M85.13 49.33 C87.34 45.02, 90.79 42.09, 96.02 35.78 M90.68 48.15 C91.76 45.6, 94.72 44.39, 95.24 43.05 M90.49 48.57 C91.83 47.25, 92.35 45.97, 95.47 42.98" stroke="#868e96" stroke-width="0.5" fill="none"></path><path d="M1.47 1.29 C34.78 1.01, 69.69 2.41, 94.4 -1.4 M0.35 0.06 C37.47 -0.42, 73.96 0.27, 95.11 0.19 M95.82 -0.14 C96.44 11.52, 93.82 18.14, 94.64 46.4 M94.1 -0.22 C93.8 18.97, 94.21 37.05, 94.17 48.32 M94.33 47.61 C71 50.21, 45.55 49.39, -1.37 49.28 M95.74 47.65 C57.35 49.5, 21.64 48.26, 0.95 48.05 M-0.85 49.79 C0.96 28.88, 0.69 13.94, 0.88 -0.43 M-0.66 47.3 C0.79 33.43, 0.81 18.21, -0.27 0.55" stroke="#000000" stroke-width="1" fill="none"></path></g><g transform="translate(29.129529640460532 87.50527466333472) rotate(0 29.5 13)"><text x="0" y="18" font-family="Virgil, Segoe UI Emoji" font-size="20px" fill="#000000" text-anchor="start" style="white-space: pre;" direction="ltr">names</text></g><g transform="translate(37.12952964046053 150.50527466333472) rotate(0 25 13)"><text x="0" y="18" font-family="Virgil, Segoe UI Emoji" font-size="20px" fill="#000000" text-anchor="start" style="white-space: pre;" direction="ltr">sizes</text></g><g stroke-linecap="round" transform="translate(118.12952964046053 74.50527466333472) rotate(0 80.5 24)"><path d="M0 0 C0 0, 0 0, 0 0 M0 0 C0 0, 0 0, 0 0 M0.01 5.85 C1.21 5.09, 2.79 3.17, 5.13 0.01 M-0.62 6.21 C1.12 4.95, 2.63 3.13, 4.66 0.72 M1.55 11.82 C1.49 8.45, 4.54 6.98, 9.77 -0.42 M0.57 12.8 C4.2 8.22, 8.03 2.46, 10.53 0.17 M-0.24 16.86 C3.89 13.85, 8.24 6.74, 16.15 -0.24 M0.21 17.53 C4.61 12.11, 10.82 5.84, 16.05 -0.34 M1.53 24.9 C8.47 17.46, 14.09 8.66, 22.42 -1.42 M-0.59 25.05 C7.92 15.62, 15.25 7.9, 20.32 0.38 M-0.98 30.54 C8.07 20.12, 18.67 8.17, 27.29 0.91 M0.37 30.94 C7.54 21.7, 13.81 14.97, 27.24 -0.32 M-0.72 36.81 C7.02 29.85, 12.35 19.79, 30.96 -0.02 M-0.34 36.34 C11.5 22.44, 23.08 9.2, 32.19 0.57 M1.02 41.04 C15.48 27.1, 29.72 11.15, 36.06 -1.05 M0.17 41.56 C12 30.67, 21.18 17.87, 36.58 0.95 M-0.33 47.97 C15.97 29.12, 30 13.11, 43.21 0.48 M-0.38 48.83 C15.65 29.35, 30.3 12, 42.88 0.79 M4.3 49.84 C22.99 29.21, 39.29 8.05, 48.21 0.42 M4.96 47.93 C22.7 29, 39.95 10.83, 47.22 -0.68 M10.22 49.86 C25.53 31.85, 41.32 14.22, 53.63 1.4 M10.34 47.19 C27.56 30.31, 42.49 12.7, 52.41 0.22 M16.55 49.01 C24.33 39.91, 35.02 30.14, 57.93 -1.55 M16.15 47.89 C29.08 32.92, 42.08 18.22, 58.56 0.83 M20.53 49.67 C33.35 34.63, 45.69 19.47, 63.11 0.63 M22.77 47.43 C33.61 33.44, 45.86 18.43, 64.08 -0.71 M26.69 49.26 C38.38 35.21, 48.77 23.84, 67.83 0.7 M27.17 48.53 C38.31 35.41, 49.91 20.77, 68.3 -0.22 M30.47 49.83 C42.82 35.46, 49.24 26.41, 75.01 0.65 M31.97 48.44 C44.3 35.23, 55.31 21.22, 74.49 -0.36 M39.31 47.77 C45.11 38.72, 57.06 28.73, 80.98 1.41 M37.99 48.1 C47.75 37.53, 57.86 25.55, 78.44 0.65 M44.34 47.33 C54.51 33.79, 66.61 17.86, 83.09 0.45 M43.31 47.34 C52.31 34.98, 63.46 23.52, 85.51 0.12 M49.43 50.33 C63.32 30.56, 79.63 8.6, 88.86 1.4 M47.84 48.09 C61.02 33.76, 72.67 18.13, 89.21 0.16 M54.89 49.72 C64.13 39.44, 73.79 27.82, 95.57 -0.36 M54.41 47.49 C69.3 29.33, 86.21 11.42, 96.27 -1.19 M58.52 47.26 C70.65 31.83, 84.63 15.49, 99.41 0.02 M59.27 49.19 C70.13 35.84, 80.8 23.76, 101.17 -0.74 M62.64 47.86 C70.75 38.62, 82.43 26.96, 107.1 -1.64 M64.54 49.19 C75.84 34.41, 87.28 21.21, 107.23 -1 M70.47 49.46 C83.84 29.68, 100.07 13.48, 113.01 -0.81 M70.06 47.33 C79.83 36.39, 88 26.04, 111.14 -0.92 M74.53 48.93 C81.3 39.15, 90.08 27.39, 118.12 2.06 M75.21 48.72 C88.82 31.63, 103.51 16.57, 115.43 -0.03 M79.63 48.4 C90.97 32.05, 107.33 17.05, 122.45 -0.58 M79.32 47.65 C90.66 34.76, 103.5 22.07, 122.23 -0.98 M83.97 48.92 C97.75 34.75, 109.55 17.94, 125.45 -1.49 M84.24 48.82 C101.7 30.01, 118.09 10.51, 127.18 -0.07 M90.77 48.08 C107.41 30.74, 123.02 13.9, 132.98 -0.26 M91.4 48.49 C106.1 31.07, 121.17 14.5, 131.81 0.64 M97.43 49.63 C110.69 31.76, 120.28 19.83, 138.42 2.3 M96.39 47.71 C107.4 33.17, 120.92 19.37, 138.1 0.58 M103.11 49.09 C116.27 28.71, 133.9 10.83, 142.29 1.78 M101.97 47.45 C117.42 30.47, 132.46 13.77, 143.55 -0.22 M105.87 47.42 C121.36 32.29, 132.29 16.06, 149.42 -0.18 M106.7 47.83 C120.3 30.85, 136.18 14.06, 147.75 0.11 M110.29 48.59 C124.1 34.42, 133.34 24.77, 152.5 1.71 M111.95 47.3 C125.2 32.37, 138.16 17.71, 153.41 0.45 M116.64 49.23 C126.4 36.7, 137.59 23, 157.29 2.03 M116.5 47.83 C126.27 37.07, 136.33 26.68, 158.97 -0.11 M124.42 48.27 C133.54 35.71, 142.43 25.75, 164.85 -0.23 M121.56 48.07 C137.74 30.94, 150.51 14.53, 162.3 0.41 M125.55 48.54 C135.34 38.51, 147.09 26.32, 164.74 8 M127.38 48.59 C136.11 37, 146.03 25.51, 163.31 8.09 M132 46.4 C143.37 37.57, 150.32 27.79, 161.81 15.1 M132.29 48.99 C142.63 37.33, 152.13 26.37, 162.2 13.94 M136.86 49.4 C143.48 41.87, 150.34 30.89, 162.12 18.79 M137.24 49.19 C142.43 41.54, 148.08 35.39, 162.8 19.5 M142.01 49.83 C153.01 38.76, 158.35 30.25, 161.3 27.46 M142.92 48.51 C147.58 43.11, 152.4 39.16, 162.39 25.66 M147.24 50.43 C153.51 44.62, 158.8 36.02, 163.51 30.52 M148.25 48.94 C151.02 44.94, 154.91 41.67, 164.06 32.64 M154.02 49.28 C156.13 44.47, 157.94 43.06, 162.66 39.41 M153.79 48.2 C157.3 45.45, 160.43 41.75, 163.15 38.87 M158.95 48.5 C159.6 47.77, 160.54 46.98, 162.17 44.76 M159.21 48.65 C160.33 47.43, 160.89 46.49, 162.56 44.61" stroke="#868e96" stroke-width="0.5" fill="none"></path><path d="M0.88 -0.43 C34.37 -2.18, 70.11 -1.89, 159.6 0.81 M-0.27 0.55 C47.73 1.19, 96.34 1.52, 161.53 0.35 M159.79 -0.38 C159.41 14.48, 159.58 27.9, 162.96 46.09 M161.03 0.34 C160.7 10.08, 162.05 20.15, 161.56 47.53 M160.04 49.43 C111.47 49.39, 59.57 46.11, 1.58 47.97 M161.37 48.44 C102.84 46.27, 46.92 46.72, -0.84 48.14 M0.96 46.31 C0.82 34.95, 1.21 24.51, -0.35 -1.69 M-0.91 47.59 C-0.4 38.49, 0.63 28.04, 0.65 0.7" stroke="#000000" stroke-width="1" fill="none"></path></g><g stroke-linecap="round" transform="translate(123.12952964046053 165.50527466333472) rotate(0 73.5 24)"><path d="M0 0 C0 0, 0 0, 0 0 M0 0 C0 0, 0 0, 0 0 M-0.05 6.17 C1.78 3.76, 2.4 2.85, 4.26 -0.32 M-0.09 6.13 C1.25 4.39, 2.94 3.32, 5.15 0.64 M1.06 10.96 C4.37 7.36, 7.02 2.09, 12.18 0.94 M-0.62 12.4 C2.98 9.3, 4.83 5.62, 10.66 -0.35 M0.91 19.06 C3.74 12.46, 8.19 8.83, 16.55 0.99 M0.86 17.83 C2.57 15.13, 6.99 9.92, 15.59 0.82 M-0.66 24.17 C8.76 18.23, 15.7 8.23, 20.18 -0.13 M0.57 24.76 C7.07 17.5, 11.92 11.02, 20.52 0.59 M-0.81 29.17 C8.45 18.69, 18.52 9.97, 24.32 2.18 M-0.29 31.18 C10.05 18.98, 19.34 8.62, 26.15 0.31 M0.43 37.49 C8.34 29.98, 16.06 18.57, 33.23 0.38 M0.1 37.8 C7.4 28.98, 13.5 21.45, 32.55 0.1 M0.84 42.72 C13.48 29.12, 23.23 15.59, 35.69 0.79 M-0.15 41.62 C10.71 30.25, 20.19 17.78, 37.74 0.11 M1.01 49.73 C15.22 31.16, 27 15.46, 40.65 1.07 M-0.21 48.56 C11.46 34.02, 24.68 20.92, 42.78 -0.45 M5.31 46.78 C21.15 31.11, 35.47 12.17, 46.32 -0.03 M5.94 49.17 C16.14 36.92, 27 23.68, 48.3 0.01 M10.49 48.97 C25.25 32.68, 40.69 17.77, 51.82 -1.13 M11.47 47.63 C23.37 35.02, 35.63 19.93, 53.55 0.57 M15.21 49.03 C25.03 36.87, 33.82 27.27, 58.29 -0.56 M15.69 48.11 C28.98 34.46, 43.35 17.07, 59.02 1.03 M22.39 48.98 C30 40.07, 38.47 27.84, 64.53 1.26 M21.87 47.98 C34.8 31.49, 48.86 17, 63.46 -0.94 M28.36 49.75 C38.22 32.7, 50.09 19.99, 68.13 -0.55 M25.82 48.98 C42.79 29.11, 57.57 12.66, 68.42 -0.59 M30.47 48.79 C43.88 36.28, 58.31 21.23, 73.05 -1.71 M32.89 48.46 C42.59 37.04, 51.3 27.54, 75.38 -0.91 M36.24 49.73 C52.98 32.92, 67.45 13.79, 78.8 0.85 M36.59 48.5 C50.51 32.66, 63.84 18.34, 80.26 0.58 M42.95 47.98 C60.68 29.04, 75.52 11.94, 84.04 -1.41 M43.66 47.15 C55.71 33.42, 68.96 18.84, 84.49 -1.02 M46.79 48.35 C58.9 35.57, 69.77 23.69, 91.71 1.03 M48.56 47.59 C59.05 34.7, 72.61 20.12, 89.6 -0.77 M54.48 46.69 C66.56 34.12, 81 18.63, 96.63 1.33 M54.61 47.34 C63.77 36.88, 73 26.48, 96.24 -0.74 M60.39 47.53 C68.06 36.99, 79.2 25.11, 98.69 1.94 M58.53 47.42 C67.43 38.32, 77.95 27.08, 100.78 -0.77 M65.5 50.4 C79.68 30.6, 93.83 16.34, 106.38 0.24 M62.81 48.3 C71.88 38.72, 81.15 28.71, 106.36 -1.33 M69.83 47.75 C79.01 35.92, 90.91 23.05, 110.01 -1.88 M69.61 47.35 C81.72 32.93, 93.32 18.94, 111.43 -0.3 M72.84 46.85 C90.95 30.85, 103.31 14.42, 116.63 0.38 M74.56 48.26 C88.5 32.98, 101.62 17.91, 116.19 0.94 M80.37 48.08 C94.48 30.85, 107.65 18.03, 122.41 0.63 M79.19 48.98 C92.65 32.6, 105.96 19.29, 122.43 0.96 M85.8 50.63 C94.18 39.76, 102.2 29.79, 125.11 -0.88 M85.48 48.92 C94.95 38.61, 103.29 28.54, 127.35 -0.27 M89.68 50.11 C103.61 33.2, 113.19 22.65, 131.02 1.13 M90.94 48.11 C101.99 35.36, 112.43 22.02, 131.97 0.55 M96.8 48.15 C109.19 34.39, 120.33 21.91, 136.05 -1.38 M95.13 48.45 C105.14 37.33, 116.33 24.59, 137.74 1.22 M99.88 50.04 C111.21 36.45, 118.68 25.75, 141.43 -0.18 M100.79 48.79 C110 37.75, 119.75 27.45, 143.52 -0.76 M104.67 50.36 C119.17 31.75, 132.91 15.8, 146.1 -0.36 M106.35 48.23 C116.98 36.47, 127.83 23.8, 147.57 1.78 M113.54 46.6 C121.41 37.34, 128.24 26.46, 147.76 8.27 M110.99 47.24 C119.3 39.33, 127.95 30.26, 147.92 5.81 M118.68 48.79 C127.18 37.05, 139.49 23.24, 147.81 11.29 M117.25 48.87 C126.07 38.97, 134.14 27.54, 146.79 13.81 M121.65 49.09 C130.15 38.42, 137.79 30.04, 149.8 18.3 M122.04 47.94 C130.69 38.11, 138.71 28.1, 148.5 17.94 M126.56 47.5 C133.17 41.06, 142.5 30.34, 149.21 23.36 M127.24 48.21 C133.03 43.13, 137.37 37.26, 148.65 26.05 M131.64 49.38 C135.09 43.88, 142.59 37.81, 148.38 31.28 M132.74 47.58 C137.35 43.72, 141.68 38.02, 148.51 31.53 M138.35 47.48 C140.65 44.15, 146.04 38.98, 148.67 35.94 M138.77 49.08 C140.98 45.6, 143.56 41.14, 148.62 36.88 M143.61 48.62 C144.73 46.61, 145.93 45.5, 147.8 43.73 M143.84 48.37 C144.93 46.41, 146.57 44.36, 147.71 43.29" stroke="#868e96" stroke-width="0.5" fill="none"></path><path d="M1.58 -0.03 C54.96 -0.09, 106.11 2.18, 147.89 -1.29 M-0.84 0.14 C36.31 -0.14, 73.52 0.56, 146.16 0.36 M146.65 -1.69 C145.46 12.21, 147.34 25.32, 146.17 46.54 M147.65 0.7 C146.41 16.93, 147.19 33.66, 147.23 48.12 M145.78 46.51 C89.19 46.93, 34.84 47.21, -1.24 48.55 M146.31 47.33 C104.25 47.06, 63.17 47.06, -0.68 48.35 M0.36 47.14 C-1.55 34.19, 0.84 16.15, -0.96 0.73 M-0.82 48.91 C-1.18 32.3, -0.24 18.92, -0.14 -0.71" stroke="#000000" stroke-width="1" fill="none"></path></g><g transform="translate(185.12952964046053 136.50527466333472) rotate(0 9 13)"><text x="0" y="18" font-family="Virgil, Segoe UI Emoji" font-size="20px" fill="#000000" text-anchor="start" style="white-space: pre;" direction="ltr">...</text></g><g transform="translate(149.12952964046053 120.50527466333472) rotate(0 49 13)"><text x="0" y="18" font-family="Virgil, Segoe UI Emoji" font-size="20px" fill="#000000" text-anchor="start" style="white-space: pre;" direction="ltr">properties</text></g></svg>
