<svg version="1.1" xmlns="http://www.w3.org/2000/svg" viewBox="0 0 444.90540703844135 256.60061578423404" width="444.90540703844135" height="256.60061578423404">
    <!-- svg-source:excalidraw -->

    <defs>
        <style class="style-fonts">
            @font-face {
            font-family: "Virgil";
            src: url("https://excalidraw.com/Virgil.woff2");
            }
            @font-face {
            font-family: "Cascadia";
            src: url("https://excalidraw.com/Cascadia.woff2");
            }
        </style>
    </defs>
    <rect x="0" y="0" width="444.90540703844135" height="256.60061578423404" fill="#ffffff"></rect><g stroke-linecap="round" transform="translate(14.905407038441354 55.86991958135428) rotate(0 75.5 24)"><path d="M0 0 C0 0, 0 0, 0 0 M0 0 C0 0, 0 0, 0 0 M0 6.58 C0.72 5.1, 2.46 3.72, 5.54 0.61 M-0.44 6.06 C1.65 4.35, 3.53 1.6, 5.28 0.63 M-1.07 11.09 C3.57 6.15, 6.54 3.79, 12.18 -1.01 M-0.12 11.71 C3.54 7.43, 8.35 2.65, 11.34 -0.68 M0.84 18.67 C3.94 13.02, 9.5 6.15, 17.22 1.1 M-0.35 19.18 C3.76 14.57, 8.56 8.55, 15.7 -0.31 M1.85 23.24 C8.3 15.42, 16.85 3.31, 20.87 -0.68 M-0.43 24.51 C6.7 16.53, 12.91 8.75, 21 0.4 M-0.3 32.27 C7.12 24.54, 13.23 14.51, 24.9 -0.17 M-0.1 31.44 C5.18 24.61, 9.64 18.46, 25.92 -0.56 M0.82 36.33 C7.86 24.97, 20.34 11.25, 33.37 -0.47 M-0.21 36.4 C5.9 29.21, 14.87 20.78, 32.62 -0.44 M-1.29 44.48 C9.84 28.1, 24.42 15.84, 36.42 1.21 M-0.04 42.96 C9.59 33.8, 17.5 23.7, 36.42 0.56 M1.28 47.16 C15.2 30.3, 32.08 14.16, 44.12 0.89 M0.09 47.69 C10.12 37.71, 18 27.08, 41.68 -0.55 M5.95 50.02 C13.47 39.94, 23.22 26.65, 45.87 -0.77 M6 48.9 C21.56 29.4, 37.58 11.38, 47.23 0.88 M10.6 47.15 C27.43 29.19, 42.47 15.02, 52.25 0.86 M10.64 48.8 C25.69 31.98, 41.48 13.63, 52.39 -0.61 M17.27 49.61 C25.79 36.52, 38.11 22.19, 58.4 1.81 M15.88 48.98 C32.45 30.9, 49.46 11.92, 58.32 -0.24 M20.84 46.81 C33.91 34.93, 44.84 20.41, 61.93 0.83 M21.21 48.75 C33.28 36.4, 43.15 22.99, 63.99 -0.72 M28.37 49.92 C36.95 36.88, 47.13 24.46, 70.24 -1.18 M27.18 47.48 C35.73 38.42, 44.05 27.28, 69.63 0.1 M32.98 47.23 C39.78 38.7, 51.13 27.77, 74.43 -1.86 M33.36 48.83 C43.44 35.39, 55.18 20.88, 74.65 -0.49 M37.24 47.54 C49.61 32.59, 61.84 20.76, 80.66 2.05 M37.72 49.18 C48.91 35.73, 59.15 23.54, 79.08 0.3 M43.04 47.48 C57.93 34.31, 71.12 18.51, 84.04 -1.95 M42.64 47.82 C59.35 30.4, 72.59 12.68, 85.51 -0.98 M46.95 46.98 C63.24 30.79, 76.1 13.76, 91.99 1.25 M48.27 47.39 C57.2 38.72, 65.89 28.01, 90.55 0.33 M54.11 48.55 C63.98 34.78, 74.2 23.54, 94.14 -2.24 M54.55 48.06 C68.79 31.17, 84.05 13.27, 94.71 -0.72 M57.6 48.71 C70.4 33.75, 82.72 19.42, 101.65 0.08 M58.57 47.95 C76.16 28.62, 92.16 8.78, 99.9 -0.34 M63.68 50.1 C79.17 33.81, 94.88 14.51, 105.16 -1.57 M63.92 48.14 C75.93 34.83, 90.24 18.34, 105.32 0.28 M70.4 49.1 C80.34 33.47, 97.44 15.91, 110.1 0.17 M69.34 49.24 C84.96 28.99, 101.13 11.34, 110.95 -0.69 M74.29 47.49 C87.06 35.88, 97.5 22.91, 117.95 1.88 M73.5 47.97 C89.07 30.42, 104.6 11.99, 116.75 1.32 M79.58 48.51 C91.93 32.45, 107.13 15.69, 120.87 1.05 M80.25 48.17 C87.81 37.87, 97.01 26.76, 121.48 -0.17 M85.56 48.28 C102.67 29.55, 118.57 11.01, 128.38 -0.37 M84.06 49.2 C97.39 34.29, 110.89 18.84, 127.34 -0.07 M92.46 47.18 C100.31 36.52, 108.78 28.77, 132.55 0.22 M89.96 48.17 C105.92 31.66, 121.03 13.62, 133.27 -0.72 M96.83 49.21 C109.07 33.33, 122.14 16.1, 139.4 1.39 M94.98 48.29 C112.74 30.54, 128.98 12.45, 138.41 0.47 M101.4 49.34 C117.55 29.91, 130.97 14.3, 142.78 1.1 M102.09 49.2 C117.7 31.71, 132.9 14.13, 144.03 -0.71 M106.49 48.94 C116.17 37.65, 126.24 25.09, 147.72 0.05 M105.61 49.23 C116.42 36.05, 128.18 23.21, 148.94 1.07 M111.85 47.12 C120.05 38.29, 126.64 30.05, 150.99 2.57 M111.21 47.76 C121.35 38.36, 129.83 27.01, 152.15 0.49 M116.03 48.1 C129.43 34.61, 140.21 18.51, 152.51 7.99 M117.28 49.53 C127.96 36.11, 136.78 24.71, 152.29 7.92 M122.29 48.6 C132.48 38.28, 142.13 25.64, 153.06 12.97 M122.9 48.89 C133.77 35.44, 144.57 23.18, 153.43 12.62 M125.96 49.23 C132.51 42.41, 137.66 36.56, 151.2 18.95 M127.27 48.22 C133.64 41.71, 138.98 34.7, 151.99 19.19 M132.3 49.81 C142.26 37.2, 147.44 28.91, 153.03 26.99 M133.67 48.15 C139.44 41.59, 145.54 34.97, 152.67 25.31 M139.88 48.82 C140.55 42.82, 145.03 40.93, 151.61 33.13 M138.85 47.9 C140.71 45.23, 145.07 40.99, 151.85 32.07 M142.91 47.18 C145.68 44.99, 149.54 40.63, 152.18 37.15 M143.26 47.78 C147.42 44.48, 150.28 41.29, 152.63 38.77 M148.62 48.69 C150.43 46.14, 151.8 44.29, 152.05 43.68 M148.86 48.51 C149.56 47.36, 151.17 45.68, 152.65 44.18" stroke="#868e96" stroke-width="0.5" fill="none"></path><path d="M-0.19 1.54 C57.49 -0.33, 120.13 1.14, 152.43 -1.36 M0.34 0.83 C44.27 0.49, 90.95 -1.09, 150.01 0.68 M152.59 -1.42 C151.84 16.98, 149.42 35.54, 149.54 49.58 M150.91 -0.17 C150.88 13.23, 150.97 24.71, 151.49 48.99 M152.73 46.46 C102.91 46.6, 57.3 47.86, 0.26 46.08 M151.94 47.63 C120.64 46.27, 88.14 47, -0.62 47.78 M-1.93 49.55 C-1.29 30.92, 0.96 11.31, 1.99 0.94 M0.27 48.04 C0.26 36.89, 0.73 27.74, -0.43 0.28" stroke="#000000" stroke-width="1" fill="none"></path></g><g stroke-linecap="round" transform="translate(163.90540703844135 111.86991958135428) rotate(0 135.5 24)"><path d="M0 0 C0 0, 0 0, 0 0 M0 0 C0 0, 0 0, 0 0 M-0.08 6.06 C1.61 4.56, 3.41 3.13, 5.23 0.95 M-0.6 6.35 C1.52 4.49, 2.59 3.1, 5.25 0.67 M-0.81 11.52 C2.08 6.83, 7.57 6.12, 9.66 1.39 M-0.2 11.35 C3.2 8.67, 6.11 5.91, 9.98 -0.12 M0.11 17.79 C2.93 14.99, 4.55 12.49, 16.39 -0.64 M0.62 18.48 C6.3 12.77, 10.55 5.41, 14.98 1.22 M-0.57 23.71 C5.29 18.96, 6.9 13.59, 20.65 0.25 M0.69 23.92 C6.97 16.01, 13.45 8.7, 21.73 -0.47 M1.8 30.84 C10.25 20.59, 16.39 9.98, 25.79 -1.7 M0.96 30.51 C9.06 19.5, 17.87 9.67, 25.39 0.52 M-0.8 34.9 C11.95 22.84, 22.33 10.21, 31.52 -1.67 M-0.74 35.94 C10.19 26.32, 19.91 14.69, 31.56 0.05 M2.09 40.56 C9.39 31.89, 20.82 18.5, 37.83 -1.25 M0.58 43.51 C10.19 32.58, 18.85 20.81, 37.18 0.8 M-0.47 47.56 C8.78 39.07, 18.73 28.91, 43.55 -1.87 M0.06 48.35 C9.26 37.22, 17.85 27.03, 42.1 -1.09 M7.02 47.8 C18.71 35.16, 27.23 19.39, 46.52 1.9 M5.9 48.55 C18.36 32.76, 32.35 17.09, 48.17 0.75 M10.18 49.81 C24.03 33.18, 41.67 13.41, 54.18 0.88 M11.83 47.68 C23.21 36.03, 33.06 21.9, 52.72 -0.45 M17.27 46.53 C28.33 34.52, 38.15 23.15, 59.76 2 M16.64 48.68 C32.62 31.97, 47.67 13.92, 57.71 0.08 M20.5 47.97 C34.37 33.46, 45.55 19.44, 64.82 -1.15 M22.45 48.54 C31.2 37.82, 38.88 28.1, 63.27 -0.62 M28.25 47.83 C40.78 31.82, 53.89 19.58, 67.43 -1.64 M25.8 49 C43.15 29.64, 58.4 11.78, 68.71 -0.58 M31.6 46.11 C48.35 31.27, 62.76 14.83, 72.79 -0.62 M33.19 47.22 C45.36 32.95, 56.43 20.27, 74.16 -0.21 M36.53 47.78 C47.6 34.16, 61.85 23.35, 81.33 -0.65 M38.16 48.5 C46.13 37.56, 55.32 27.81, 79.58 0.39 M42.51 49.34 C59.39 32.48, 73.59 14.38, 83.36 0.87 M42.85 48.95 C52.02 36.6, 60.9 27.16, 84.34 0.13 M46.64 49.53 C61.41 31.55, 75.41 17, 91.19 -1.6 M47.04 48.17 C58.65 36.43, 68.17 26.26, 90.27 -0.42 M54.24 47.85 C65.71 32.3, 79.76 15.98, 93.74 0.79 M53.75 47.95 C64.55 35.74, 74.41 22.29, 95.26 -0.28 M59.02 47.3 C70.67 33.29, 82.99 21.91, 100.69 2.01 M58.27 48.96 C69.27 35.47, 79.8 21.99, 100.27 0.56 M65.04 49.65 C82.04 31.96, 95.98 10.69, 105.08 -0.33 M63.09 48.16 C77.45 34.69, 88.62 17.95, 106.93 -0.14 M70.09 46.37 C86.43 30.79, 100.85 8.89, 111.44 1.74 M70.23 47.78 C81.46 32.95, 95.3 18.46, 110.59 -0.17 M73.1 49.52 C86.73 34.73, 99.02 23.52, 117.78 1.86 M73.58 48.22 C90.76 29.17, 107.09 11.1, 117.22 0.55 M80.15 47.08 C93.13 33.23, 105.44 15.74, 122.99 -1.78 M79.82 47.51 C94.45 30.7, 108.33 13.78, 121.76 0.9 M84.56 49.6 C94.43 37.83, 104.46 27.8, 126.2 0.49 M85.47 47.99 C96.22 36.46, 106.47 24.48, 126.49 -0.48 M89.5 48.83 C101.81 33.4, 117.05 19.15, 132.82 1.13 M90.48 49.01 C108.02 30.09, 124.01 10.82, 131.89 0.23 M96.15 48.33 C108.39 33.17, 119.33 21.85, 138.62 2.04 M95.23 49.58 C108.95 35.14, 122.3 20.4, 137.7 0.72 M102.32 50.09 C110.6 36.18, 122.73 21.87, 144.37 1.21 M102.17 49.09 C112.25 37.21, 122.2 25.9, 142.56 -0.76 M106.55 49.19 C122.74 30.78, 137.62 10.83, 147.94 -0.71 M106.83 48.02 C116.13 37.51, 125.83 25.64, 148.96 -0.69 M110.76 48.38 C126.51 29.42, 142.81 12.17, 154.99 -1.73 M111.4 48.56 C123.02 36.06, 132.64 23.48, 152.91 0.35 M116.37 48.75 C128.56 34.18, 138.09 22.56, 159 0.08 M117.79 49.36 C128.92 33, 142.15 19.11, 158.93 0.43 M122.91 48.31 C133.35 37.05, 141.62 25.99, 163.98 1.19 M123.2 48.17 C132.64 36.13, 143.18 25.63, 163.63 -1.09 M128.16 48.64 C143.19 30.6, 159.22 10.98, 168.55 -0.7 M127.16 48.57 C144.06 29.35, 160.25 11.65, 168.79 1.18 M134.78 49.51 C144.8 31.45, 159.05 17.39, 176.59 -0.1 M133.12 48.64 C148.88 30.52, 164.79 11.84, 174.91 -0.73 M138.42 47.53 C152.6 29.77, 170.7 10.62, 181.32 -1.06 M137.5 47.63 C150.34 34.76, 161.77 20.56, 180.26 0.63 M142.33 46.71 C161.02 29.1, 176.28 9.73, 183.98 1.4 M143.26 48.68 C153.88 37.17, 164.45 26.59, 186.48 0.73 M149.55 49.17 C163.76 29.31, 180.3 8.02, 189.93 0 M148.93 47.47 C162.49 33.91, 174.21 18.59, 191.59 -0.17 M153.46 49.68 C168.96 27.94, 185.7 10.44, 195.27 -2.25 M154.24 48.94 C171.51 29.6, 187.8 10.8, 195.6 -0.43 M157.93 50.37 C166.99 39.51, 178.56 29.12, 202.97 -1.4 M159.09 47.98 C170.54 36.09, 180.22 22.45, 201.56 -0.23 M163.98 47.27 C183.47 29, 196.03 12.65, 205.51 -1.94 M165.21 48.07 C175.8 37.69, 185.06 26.81, 207.08 -0.97 M169.86 49.01 C183.99 34.33, 192.8 22.03, 212.96 1.87 M169.15 48.03 C181.13 37.08, 190.51 25.96, 211.47 -0.55 M173.68 47.38 C186.5 35.57, 194.74 25.69, 215.68 0.53 M175.87 48.66 C188.85 32.04, 201.8 16.95, 217.24 -0.68 M181.57 48.02 C190.12 33.64, 202.68 22.78, 224.36 0.04 M179.8 47.47 C191.93 35.92, 201.52 24.21, 223.18 -0.19 M185.61 49.73 C197.18 36.97, 207.87 23.98, 228.71 0.41 M185.77 48.05 C193.88 38.58, 203.73 28.1, 227.94 -0.38 M191.24 47.39 C203.63 32.97, 215.73 19.23, 233.56 -1.62 M191.29 49.09 C205.92 32.35, 220.07 15.28, 233.06 -0.25 M196.71 46.84 C210.2 35.48, 219.16 20.95, 236.81 -1.26 M196.97 49.27 C207.73 35.98, 220.07 21.07, 237.91 0.84 M202.98 48.19 C210.19 37.34, 218.38 27.46, 244.89 1.23 M201.38 48.68 C215.56 32.51, 230.71 15.31, 244 0.18 M205.91 48.55 C220.63 30.21, 238.61 10.61, 248.09 -0.59 M206.1 49.57 C219.52 35.59, 230.86 20.52, 249.38 0.59 M210.84 48.54 C222.46 36.52, 229.05 28.41, 254.61 0.01 M213.35 48.97 C225.11 33.53, 239.24 18.11, 255.46 -0.07 M216.73 47.02 C231.55 30.75, 247.15 12.18, 258.63 1.59 M216.97 49.43 C233.98 30.06, 250.81 10.85, 260.14 -0.29 M222.8 47.62 C234.49 38.6, 242.99 24.12, 266.94 1.16 M224.05 47.68 C232.74 36.69, 244.08 25.57, 265.38 -0.17 M228.63 49.46 C241.13 35.12, 249.43 23.69, 271.1 0.79 M227.93 49.31 C242.78 31.89, 255.83 16.66, 270.19 -0.74 M232.8 49.68 C249.18 31.62, 264.14 11.2, 272.05 0.49 M233.82 47.49 C241.53 37.36, 251.22 28.5, 274.31 2.94 M237.01 50.15 C246.68 40.72, 255.93 31.16, 274.9 9.86 M237.83 47.62 C249.05 37.8, 256.89 26.91, 273.82 7.55 M244.69 48.03 C252.38 36.86, 265.44 25.14, 275.47 14.14 M244.55 48.05 C255.67 34.28, 267.66 22.98, 274.71 13.57 M249.18 50.44 C258.24 36.94, 265.99 28.73, 272.52 21.91 M250.1 48.74 C257.84 38.96, 267.32 28.39, 274.01 21.07 M256.28 49.04 C259.93 43.78, 264.31 34.18, 273.07 28.69 M255.68 47.97 C258.66 43.21, 264.18 38.48, 274.02 27.38 M260.43 46.72 C263.57 44.33, 270.51 37.69, 275.72 31.83 M260.66 49.03 C264.63 43.66, 269.13 36.67, 274.62 31.99 M266.63 48.11 C269.38 43.58, 272.29 41.25, 273.88 38.02 M265.93 48.54 C268.18 45.13, 270.74 42.17, 273.59 39.33 M270.45 47.93 C271.54 46.74, 273.29 45.75, 274.16 44.33 M270.46 48.51 C271.88 46.95, 273.12 45.8, 273.86 44.79" stroke="#868e96" stroke-width="0.5" fill="none"></path><path d="M1.21 -1.26 C71.43 1.7, 144.14 1.32, 269.94 -0.01 M0.65 -0.76 C97.24 -0.36, 192.55 -1.5, 271.53 0.5 M269.58 1.2 C270.49 9.57, 271.58 20.13, 272.58 47.32 M270.83 0.34 C271.09 10.24, 269.79 20.11, 271.99 48.11 M269.8 47.17 C191.31 50.12, 112.81 50.04, -1.5 46.52 M270.71 48.53 C213.85 49.38, 157.78 49.51, -0.18 48.75 M1.55 47.02 C2.06 31.85, 1.48 15.15, 0.94 -1.78 M0.04 48.37 C-0.68 33.35, 0.31 16.59, 0.28 -0.88" stroke="#000000" stroke-width="1" fill="none"></path></g><g stroke-linecap="round"><g transform="translate(11.11778771646641 14.210859481906596) rotate(0 -0.09616643782896972 115.71018849936154)"><path d="M0.93 -0.97 C0.89 37.78, -0.08 193.54, -0.11 232.39 M-0.05 1.14 C-0.26 39.59, -1.19 192.69, -1.11 230.87" stroke="#000000" stroke-width="1" fill="none"></path></g></g><g stroke-linecap="round"><g transform="translate(380.1177877164673 11.210859481906539) rotate(0 0.08907898887991905 112.90173413523776)"><path d="M-0.97 -0.11 C-0.76 37.57, 0.84 189.43, 1.15 227.01 M0.72 -1.21 C0.89 36.05, 0.83 187.38, 0.8 225.3" stroke="#000000" stroke-width="1" fill="none"></path></g></g><g transform="translate(124.90540703844135 175.86991958135425) rotate(0 98 13)"><text x="0" y="18" font-family="Virgil, Segoe UI Emoji" font-size="20px" fill="#000000" text-anchor="start" style="white-space: pre;" direction="ltr">two steps requests</text></g></svg>