<svg version="1.1" xmlns="http://www.w3.org/2000/svg" viewBox="0 0 1027.9732317954395 812.6704906958894" width="1027.9732317954395" height="812.6704906958894">
  <!-- svg-source:excalidraw -->
  
  <defs>
    <style class="style-fonts">
      @font-face {
        font-family: "Virgil";
        src: url("https://excalidraw.com/Virgil.woff2");
      }
      @font-face {
        font-family: "Cascadia";
        src: url("https://excalidraw.com/Cascadia.woff2");
      }
    </style>
  </defs>
  <rect x="0" y="0" width="1027.9732317954395" height="812.6704906958894" fill="#ffffff"></rect><g stroke-linecap="round" transform="translate(289.48916415998974 86.26131302575413) rotate(0 35.5 31)"><path d="M0 0 C0 0, 0 0, 0 0 M0 0 C0 0, 0 0, 0 0 M-0.75 5.63 C1.97 4.77, 2.79 1.87, 4.49 -0.33 M-0.55 6.44 C0.49 4.83, 2.07 4.39, 4.89 0.52 M-1.21 12.48 C4.56 7.58, 5.28 5.49, 11.35 -1.19 M0.04 11.81 C3.7 7.9, 7.11 4.52, 10.41 -0.29 M-0.01 16.62 C7.48 10.24, 11.74 4.02, 15.91 1.5 M-0.28 19.37 C6.04 12.41, 12.43 5.21, 16.59 1.22 M-1.07 25.51 C6.3 15.9, 13.77 7.53, 21.84 0.14 M-0.44 24.04 C8.25 14.61, 17.22 5.9, 20.44 0.21 M-1.22 31.74 C10.59 18.6, 21.2 8.88, 25.5 -1.05 M0.35 30.1 C9.04 21.21, 16.26 11.53, 26.5 0.8 M-1.23 38.43 C8 29.76, 14.1 20.7, 30.97 0.9 M-0.9 36 C8.76 26.74, 18.17 15.67, 32.48 0.28 M-0.54 42.19 C8.78 32.06, 15.9 23.31, 36.49 1.94 M-0.71 42.37 C8.24 32.04, 16.74 22.47, 36.17 0.86 M0.23 47.82 C10.66 36.68, 25.61 23.09, 43.25 1.43 M-0.86 47.97 C8.86 38.06, 18.54 27.09, 42.97 -0.61 M-0.62 55.56 C10.88 40.63, 23.56 27.03, 45.59 0.7 M0.5 54.22 C11.12 40.36, 22.03 27.2, 46.89 1.13 M0.38 59.64 C11.99 47.18, 23.11 31.32, 51.78 1.55 M-0.19 60.94 C18.07 39.86, 36.44 18.68, 54.02 -0.54 M2.59 64.45 C18.21 45.93, 34.77 26.91, 58.26 0.71 M1.58 63.82 C17.46 47.05, 32.54 29.22, 57.58 -0.29 M9.55 65.33 C21.18 50.08, 32.68 38.78, 62.39 0.37 M7.41 64.46 C28.48 39.85, 50.77 14.32, 63.36 -1.2 M14.5 63.39 C34.24 40.29, 52.99 17.48, 68.72 -1.32 M12.31 64.4 C29.26 45.99, 45.09 27.13, 68.79 1.09 M17.71 62.63 C34.49 44.37, 54.71 25.26, 72.38 1.74 M18.74 63.54 C36.65 42.46, 55.57 22.16, 73.05 1.57 M22.16 63.54 C34.46 49.23, 51.03 34.7, 73.37 6.13 M23.04 64.95 C36.76 48.93, 50.79 32.76, 72.13 7.67 M30.2 65.54 C38.99 54.98, 45.71 43.19, 72.53 13.08 M28.86 64.57 C38.12 54.43, 47.62 42.56, 73.53 14.64 M33.91 65.52 C46.03 49.52, 60.17 38.4, 74.55 19.28 M34.24 65.01 C47.24 49.55, 59.86 35.47, 72.03 19.67 M39.74 64.29 C51.56 51.21, 62.55 40.47, 73.45 27.15 M39.05 63.27 C49.83 52.54, 59 41.94, 71.92 25.35 M46.85 65.15 C50.43 58.65, 59.16 48.55, 72.66 32.06 M44.02 64.51 C53.2 55.39, 59.94 47.16, 73.85 32.17 M51.79 64.34 C54.59 57.16, 60.53 52.72, 71.31 36.81 M50.24 63.77 C55.29 57.61, 60.66 50.65, 73.8 38.26 M54.81 65.54 C60.33 58.54, 62.73 53.7, 72.27 42.94 M56.14 63.74 C60.49 59.3, 64.04 53.8, 71.97 43.9 M59.94 63.23 C65.27 59.72, 68.59 55.5, 71.77 49.45 M60.34 65.24 C63.26 61.33, 66.97 56.98, 73.03 49.55 M65.27 64.59 C67.09 61.96, 69.57 60.61, 72.68 55.99 M66.04 63.75 C68.65 60.77, 70.92 58.36, 72.56 56.14" stroke="#be4bdb" stroke-width="0.5" fill="none"></path><path d="M-1.09 -1.58 C15.06 -0.7, 30.01 0.23, 69.62 -0.69 M0.27 -0.57 C27.93 -0.59, 55.33 -0.25, 71.62 -0.94 M72.37 1.66 C72.66 21.97, 70.83 41.92, 70.85 62.54 M71.61 -0.72 C70.98 13.65, 71.55 28.45, 71.98 61.2 M72.53 62.9 C44.65 64.19, 21.83 61.73, 0.39 60.58 M71.48 62.36 C43.9 62.59, 16.89 61.23, 0.87 62.68 M-1.12 61.85 C-1.5 45.39, 0.51 29.08, -0.57 -1.78 M-0.1 61.87 C0.82 41.6, 0.33 19.91, 0.57 0.03" stroke="#000000" stroke-width="1" fill="none"></path></g><g transform="translate(310.98916415998974 104.26131302575413) rotate(0 14 13)"><text x="14" y="18" font-family="Virgil, Segoe UI Emoji" font-size="20px" fill="#000000" text-anchor="middle" style="white-space: pre;" direction="ltr">d2</text></g><g stroke-linecap="round" transform="translate(28.98916415998974 82.76131302575413) rotate(0 35.5 31)"><path d="M0 0 C0 0, 0 0, 0 0 M0 0 C0 0, 0 0, 0 0 M0.21 6.77 C0.52 4.55, 1.7 2.97, 4.2 -0.05 M-0.6 6 C1.09 5.48, 1.94 3.95, 4.92 0.45 M1.61 11.03 C2.9 8.38, 7.84 2.93, 10.69 -0.53 M0.47 11.64 C4.48 7.61, 7.47 3.14, 11.31 0.11 M1.46 17.29 C5.21 11.79, 11.28 6.96, 17.31 2.32 M0.17 19.23 C3.8 15.09, 7.4 11.67, 15.64 0.82 M0.06 23.18 C7.39 15.01, 13.12 10.21, 23.2 1.69 M0.14 24.1 C6.34 18.78, 10.42 11.94, 22 -0.45 M0.67 29.78 C8.54 23.26, 13.22 13.13, 26.43 0.36 M0.94 30.67 C9.03 19.95, 18.36 10.15, 25.57 -0.05 M0.42 38.58 C11.37 23.89, 23.25 9.74, 31.48 1.13 M0 36.85 C8 27.96, 15.26 20.65, 31.22 0 M0.25 42.03 C11.15 29.18, 24.29 16.2, 35.49 1.31 M-0.01 41.95 C13.02 27.64, 25.1 14.07, 36.7 -0.12 M-1.56 50.31 C11.89 38.57, 21.77 26.27, 41.03 -0.88 M-0.93 48.69 C8.12 39.27, 17.92 29.03, 42.08 -0.38 M-1.32 54.51 C13.62 38.34, 26.78 22.38, 46.32 0.27 M-0.24 53.68 C15.61 34.84, 32.43 17.77, 46.78 0.92 M0.32 61.21 C16.34 39.94, 32.74 23.67, 54.05 0.39 M-0.08 61.18 C18.43 39.98, 37.69 18.4, 53.11 -1.13 M1.12 64.67 C15.62 47.9, 31.42 31.47, 57.52 -0.41 M2.26 64.57 C22.03 42.21, 40.73 19.97, 57.18 -0.27 M9.51 63.59 C30.07 40.92, 47.99 15.98, 65.51 0.91 M7.3 64.42 C23.07 46.55, 37.26 28.99, 64.49 0.63 M14.11 63.94 C27.22 47.31, 43.49 27.4, 68.42 0.86 M13.72 64.44 C34.06 40.85, 53.15 19.54, 68.87 -0.64 M17.11 64.08 C39.87 42.72, 56.5 20.68, 73.81 1.41 M18.43 64 C40.56 40.13, 61.63 14.84, 72.7 1.62 M21.84 64.36 C44.53 43.45, 61.62 20.31, 72.56 8.49 M22.92 64.84 C35.19 50.75, 47.21 36.39, 71.91 6.78 M29.57 65.54 C42.5 45.99, 59.81 27.09, 70.89 14.18 M28.8 64.85 C38.9 52.24, 49.89 41.78, 72.65 13.28 M33.76 63.39 C49.25 50.56, 62.3 33.21, 73.39 19.54 M34.78 63.86 C46.8 50.18, 56.97 36.72, 73.16 18.76 M40.75 63.08 C49.69 54.67, 57.41 45.56, 72.46 24.86 M40.16 63.28 C48.94 53.69, 56.89 43.2, 71.88 25.5 M44.1 65.77 C55.41 52.21, 62.2 43.6, 72.44 32.84 M45.85 63.99 C53.16 55.34, 61.56 46.54, 72.41 30.94 M49.24 63.04 C56.11 57.28, 61.32 48.07, 71.84 39.18 M49.86 63.96 C55.85 56.37, 63.81 49.84, 72.41 37.4 M55.81 63.45 C57.74 59.11, 62.97 53.6, 71.41 43.74 M56.3 64.09 C61.28 56.88, 66.14 50.54, 72.5 44.62 M61.64 63.8 C64.13 60.68, 64.88 57.52, 71.78 49.4 M60.24 64.66 C64.03 60.16, 66.62 56.86, 72.55 49.74 M65.38 63.9 C68.42 61.96, 70.52 58.53, 73.7 56.58 M66.04 63.76 C67.56 62.28, 69.71 59.49, 72.28 56.9" stroke="#fa5252" stroke-width="0.5" fill="none"></path><path d="M-0.14 -0.66 C21.37 0.84, 42.13 -0.13, 72.88 0.73 M-0.04 -0.08 C25.77 0.66, 53.36 -0.53, 71.54 0.74 M72.2 0.04 C70.79 14.52, 71.28 33.48, 69.66 61.02 M71.29 -0.8 C72.23 13.06, 72.36 26.23, 71.44 62.55 M69.09 63.58 C43.33 61.44, 16.62 60.9, 1.64 62.21 M71.01 62.93 C53.23 61.83, 36.06 62.94, -0.39 61.91 M-1.56 61.56 C0.81 43.76, -0.23 24.9, 0.89 -1.56 M0.34 62.97 C-0.09 44.2, 0.63 25.15, 0.26 -0.7" stroke="#000000" stroke-width="1" fill="none"></path></g><g transform="translate(54.98916415998974 100.76131302575413) rotate(0 9.5 13)"><text x="9.5" y="18" font-family="Virgil, Segoe UI Emoji" font-size="20px" fill="#000000" text-anchor="middle" style="white-space: pre;" direction="ltr">d1</text></g><g stroke-linecap="round" transform="translate(547.4891641599897 88.76131302575413) rotate(0 35.5 31)"><path d="M0 0 C0 0, 0 0, 0 0 M0 0 C0 0, 0 0, 0 0 M-0.73 5.89 C0.27 4.45, 1.06 3.51, 4.31 -0.22 M-0.08 6.78 C1.32 4.73, 2.99 2.78, 5.1 0.02 M-0.65 12.37 C4.18 6.99, 6.96 3.69, 11.58 -0.22 M0.69 11.92 C2.7 8.57, 6.44 5.7, 11.06 0.01 M-0.34 18.04 C3.31 15.92, 7.99 12.96, 13.76 0.01 M0.51 19 C6.98 12.08, 12.23 4.57, 15.5 -0.34 M1.18 22.12 C8.67 15.41, 17.83 7.99, 20.41 -1.48 M0.77 24.98 C5.7 17.2, 13.48 9.39, 20.88 -0.68 M1.47 31.35 C8.69 18.27, 19.14 8.72, 27.18 0.99 M0.04 30.32 C6.86 23.03, 12.8 14.26, 27.02 -0.2 M-0.93 38.09 C10.84 23.64, 23.5 9.89, 30.46 -1.38 M0.42 36.12 C7.08 29.4, 12.65 21.26, 32.21 -0.44 M-1.19 43.15 C10.14 32.31, 19.56 19.7, 37.76 -1.44 M0.01 42.13 C9.96 31.29, 20.96 18.27, 36.37 0.43 M1.36 50.56 C11.41 38.17, 19.63 23.84, 40.56 -1.61 M-0.85 48.78 C9.49 38.46, 17.36 28.6, 42.5 -0.58 M-0.72 54.79 C15.33 36.03, 32.6 16.57, 48.47 0.68 M-0.72 53.6 C12.51 41.42, 24.97 26.75, 47.73 0.41 M-0.65 59.27 C10.99 48.29, 25.71 32.81, 54.05 -0.57 M-0.03 61.07 C16.78 42.25, 31.71 23.43, 52.75 -0.06 M1.19 64.6 C19.93 45.18, 36.22 24.46, 59.02 -1.4 M2.31 64.01 C15.71 47.83, 29.13 31.95, 58.89 0.95 M9.64 65.38 C26.74 40.93, 50.44 17.78, 63.03 -1.41 M8.05 63.67 C27.65 40.15, 48.37 19.44, 63.56 0.54 M12.19 64.9 C26.77 46.63, 40.64 32.51, 69.88 -1.23 M13.78 63.72 C29.82 45.31, 47.16 23.73, 69.28 -0.31 M20.43 64.4 C31.26 49.55, 45.55 34.43, 75.01 1.47 M19.07 64.72 C33.06 47.68, 47.05 31.25, 73.86 0.53 M25.59 64.58 C37.65 47.79, 49.81 35.21, 71.7 6.47 M22.87 64.86 C41.44 43.17, 59.32 21.44, 73.39 8.13 M27.33 64.07 C45.76 43.43, 60.72 25.43, 71.07 13.23 M28.96 63.73 C46.46 45.63, 61.59 25.86, 72.98 13.89 M35.98 65.99 C50.05 47.76, 62.98 31.81, 73.08 19.65 M34.97 64.08 C47.72 47.52, 63.48 29.77, 72.52 19.62 M41.29 64.37 C51.06 52.85, 60.65 38.39, 72.03 24.39 M39.89 63.54 C47.01 54.08, 54.96 45.04, 72.91 27.08 M46.69 62.73 C54.39 53.01, 63.97 42.52, 72.65 30.01 M45.05 64.43 C54.67 53.93, 62.58 41.95, 72.9 32.37 M50.03 64.51 C56.46 54.18, 64.26 48.17, 72.33 37.56 M49.65 63.41 C58.27 56.29, 63.48 47.84, 72.1 37.79 M53.83 63.65 C61.48 55.39, 66.91 48.95, 73.23 45.77 M55.73 63.33 C59.16 58.48, 64.07 54.15, 71.8 44.24 M61.32 63.77 C62.12 60.51, 65.02 57.14, 71.87 49.85 M61 63.72 C65.28 58.49, 69.48 53.3, 73.26 49.35 M66.19 64.49 C68.44 60.95, 71.73 58.93, 72.53 56.37 M65.7 64.35 C67.48 62.05, 68.67 61.12, 72.39 56.89" stroke="#4c6ef5" stroke-width="0.5" fill="none"></path><path d="M-0.38 0.28 C14.32 -0.46, 33.27 0.96, 72.43 0.54 M-0.61 0.25 C17.89 -0.88, 35.09 0.8, 70.66 0.69 M70.37 -1.94 C71.22 24.29, 70.03 46.52, 69.36 63.22 M71.85 -0.45 C72.16 13.32, 71.62 28.78, 71.86 62.76 M70.72 61.12 C46.91 61.14, 23.68 62.77, -0.96 62.97 M71.13 61.57 C48 63.34, 22.88 62.57, -0.15 61.44 M0.46 61.42 C-0.09 42.08, 1.38 24.17, -0.05 -0.2 M-0.16 62.64 C0.36 44.25, 0.05 25.74, -0.96 0.88" stroke="#000000" stroke-width="1" fill="none"></path></g><g transform="translate(569.4891641599897 106.76131302575413) rotate(0 13.5 13)"><text x="13.5" y="18" font-family="Virgil, Segoe UI Emoji" font-size="20px" fill="#000000" text-anchor="middle" style="white-space: pre;" direction="ltr">d3</text></g><g stroke-linecap="round" transform="translate(821.4891641599897 89.76131302575413) rotate(0 35.5 31)"><path d="M0 0 C0 0, 0 0, 0 0 M0 0 C0 0, 0 0, 0 0 M-0.76 5.71 C0.81 3.93, 2.73 1.67, 5.08 -0.31 M-0.36 6.56 C0.7 5.23, 1.93 3.59, 5.1 0.73 M0.86 10.88 C2.74 8.66, 6.12 6.11, 10.16 0.64 M-0.09 11.79 C3.35 9.19, 5.71 6.08, 9.9 0.6 M0.16 19.62 C5.4 16.07, 5.67 9.37, 17.48 0.92 M0.84 19.33 C5.76 11.98, 11.59 3.94, 16.33 0.22 M0.85 24.29 C7.45 19.89, 10.01 10.55, 21.19 -0.33 M-0.56 24.36 C7.22 16.22, 12.45 8.69, 21.89 0.26 M-0.74 29.14 C6.93 22.43, 14.64 15.06, 25.49 2.15 M0.26 30.99 C7.69 20.54, 17.51 10.77, 27.03 0.63 M-1.18 37.89 C11.84 23.67, 23.2 6.92, 30.14 0.41 M0.34 37.26 C8.38 26.23, 18.93 14.79, 31.72 -0.05 M-0.25 44.2 C9.16 31.81, 21.55 17.41, 36.58 -0.04 M-0.57 43.12 C8.94 32.02, 17.54 22.3, 36.33 -0.46 M0.61 50.48 C13.77 29.71, 29.05 10.86, 40.63 -1.75 M0.33 48.44 C11.62 35.13, 23.87 21.32, 43.02 -0.94 M-1.65 55.04 C13.4 38.4, 29.59 22.66, 46.83 -0.81 M-0.35 55.47 C10.08 44.21, 21.02 32.2, 46.85 0.38 M-1.36 62.68 C17.72 42.86, 34.35 22.78, 53.11 -0.35 M0.88 60.6 C17.09 40.28, 33.83 21.67, 53.2 -0.8 M2.5 64.86 C19.79 43.36, 38.94 22.07, 57.1 -0.04 M1.81 63.86 C19.49 43.32, 39.24 23.79, 58.83 0.93 M6.63 64.52 C24.97 46.54, 38.25 26.1, 64.81 -1.64 M7.6 62.95 C28.07 42.65, 46.52 20.27, 63.32 0.35 M12.95 62.83 C28.63 46.77, 45.81 26.6, 68.96 1.59 M13.02 65.24 C30.12 43.69, 48.05 23.86, 68.13 -0.62 M17.92 64.38 C35.6 44.58, 53.61 25.31, 72.36 0.83 M18.59 64.21 C34.8 44.48, 52.77 24.04, 72.74 0.37 M24.16 62.74 C37.78 47.78, 51.9 28.54, 74.2 6.24 M22.93 64.28 C40.69 42.9, 59.73 24.05, 73.67 7.82 M29.23 62.89 C44.68 44.84, 61.46 24.79, 73.97 13.12 M30.23 64.46 C46.75 43.33, 64.31 24.11, 73.22 13.81 M35.84 63.81 C44.28 52.25, 53.95 40.88, 74.53 20.74 M33.32 64.2 C44.29 51.66, 53.81 40.85, 73.19 20.13 M40.65 64.89 C47.99 52.62, 56.16 42.26, 71.58 26.61 M39.12 63.09 C47.11 54.11, 56.15 46.46, 73.18 25.71 M44.45 64.51 C54.61 53.22, 65.49 38.12, 73.73 33.66 M45.64 64.62 C52.02 54.27, 60.38 46.66, 73.37 31.1 M49.01 62.47 C55.43 58.05, 61.76 49.72, 72.76 36.79 M51.5 63.92 C57.36 55.06, 64.08 47.36, 73.53 38.29 M55.21 62.57 C59.02 58.22, 65.36 55.06, 71.73 46.09 M54.92 63.52 C60.39 58.65, 64.67 52.53, 71.9 45.14 M59.31 63.79 C62.52 60.04, 65.88 56.73, 74.4 49.65 M60.56 63.89 C63.93 59.67, 68.57 54.77, 73.41 49.45 M66.12 63.54 C68.95 62.01, 69.61 59.71, 71.95 56.36 M66 63.69 C67.27 62.71, 68.87 61, 72.4 56.69" stroke="#15aabf" stroke-width="0.5" fill="none"></path><path d="M-1.38 -0.69 C20.84 0.63, 39.36 0.44, 69.87 -0.08 M0.62 -0.94 C21.24 0.56, 41.05 0.51, 71.83 0.6 M70.85 0.54 C69.47 17.73, 69.16 38.64, 69.55 62.57 M71.98 -0.8 C71.97 14.19, 72.39 28.04, 71.45 61.04 M71.39 60.58 C45.72 61.9, 16.21 62.66, 0.72 62.03 M71.87 62.68 C42.74 61.61, 15.11 61.14, -0.07 61.22 M-0.57 60.22 C0.75 43.2, -0.19 27.31, -0.26 0.68 M0.57 62.03 C0.36 36.7, -0.87 13.67, 0.1 0.73" stroke="#000000" stroke-width="1" fill="none"></path></g><g transform="translate(843.9891641599897 114.26131302575413) rotate(0 13 13)"><text x="13" y="18" font-family="Virgil, Segoe UI Emoji" font-size="20px" fill="#000000" text-anchor="middle" style="white-space: pre;" direction="ltr">d4</text></g><g stroke-linecap="round" transform="translate(10 61) rotate(0 457.32982742793956 51.5)"><path d="M0.75 0.29 C287.56 1.48, 573.52 1.24, 914.59 -0.49 M915.73 1.48 C914.61 34.89, 916.96 68.22, 914.7 102.37 M914.12 102.61 C728.52 104.48, 543.11 104.22, -0.64 103.68 M0.89 104.09 C0.7 78.27, -0.12 48.58, 1.58 -0.28" stroke="#000000" stroke-width="1.5" fill="none" stroke-dasharray="1.5 7"></path></g><g transform="translate(523.613130257545 10) rotate(0 63 13)"><text x="0" y="18" font-family="Virgil, Segoe UI Emoji" font-size="20px" fill="#000000" text-anchor="start" style="white-space: pre;" direction="ltr">input stream</text></g><g stroke-linecap="round"><g transform="translate(100.98916415998974 113.76638990100946) rotate(0 93.0342277258635 1.3539903053195985)"><path d="M1.04 0.82 C31.85 1.22, 154.32 1.81, 185.03 1.89" stroke="#000000" stroke-width="1.5" fill="none" stroke-dasharray="8 9"></path></g><g transform="translate(100.98916415998974 113.76638990100946) rotate(0 93.0342277258635 1.3539903053195985)"><path d="M158.16 11.25 C165.5 8.31, 173.4 5.29, 183.47 1.45" stroke="#000000" stroke-width="1.5" fill="none"></path></g><g transform="translate(100.98916415998974 113.76638990100946) rotate(0 93.0342277258635 1.3539903053195985)"><path d="M158.25 -9.27 C165.47 -5.79, 173.34 -2.38, 183.47 1.45" stroke="#000000" stroke-width="1.5" fill="none"></path></g></g><g stroke-linecap="round"><g transform="translate(366.14818276821006 117.53775448078704) rotate(0 90.02704585080937 -1.346345744022301)"><path d="M0.82 -0.47 C30.78 -1.01, 149.59 -1.95, 179.24 -2.22" stroke="#000000" stroke-width="1.5" fill="none" stroke-dasharray="8 9"></path></g><g transform="translate(366.14818276821006 117.53775448078704) rotate(0 90.02704585080937 -1.346345744022301)"><path d="M150.35 8.11 C157.97 4.27, 165.35 1.13, 178.8 -1.76" stroke="#000000" stroke-width="1.5" fill="none"></path></g><g transform="translate(366.14818276821006 117.53775448078704) rotate(0 90.02704585080937 -1.346345744022301)"><path d="M150.17 -12.41 C158.01 -10.97, 165.44 -8.84, 178.8 -1.76" stroke="#000000" stroke-width="1.5" fill="none"></path></g></g><g stroke-linecap="round"><g transform="translate(621.4891641599897 120.75642441917262) rotate(0 99.17388312518597 3.1144845150811307)"><path d="M-0.47 -0.11 C32.49 0.81, 165.59 5.3, 198.82 6.33" stroke="#000000" stroke-width="1.5" fill="none" stroke-dasharray="8 9"></path></g><g transform="translate(621.4891641599897 120.75642441917262) rotate(0 99.17388312518597 3.1144845150811307)"><path d="M170.13 15.37 C180.15 12.03, 190.73 8.13, 199.28 5.76" stroke="#000000" stroke-width="1.5" fill="none"></path></g><g transform="translate(621.4891641599897 120.75642441917262) rotate(0 99.17388312518597 3.1144845150811307)"><path d="M170.8 -5.14 C180.7 -0.56, 191.02 3.47, 199.28 5.76" stroke="#000000" stroke-width="1.5" fill="none"></path></g></g><g transform="translate(431.363130257545 637.5) rotate(0 73 13)"><text x="0" y="18" font-family="Virgil, Segoe UI Emoji" font-size="20px" fill="#000000" text-anchor="start" style="white-space: pre;" direction="ltr">output stream</text></g><g stroke-linecap="round" transform="translate(139.10118098413204 725.1704906958894) rotate(0 29.5 32)"><path d="M6.97 11.36 C6.97 11.36, 6.97 11.36, 6.97 11.36 M6.97 11.36 C6.97 11.36, 6.97 11.36, 6.97 11.36 M2.77 22.28 C8.06 16.2, 13.34 10.12, 19.83 2.66 M2.77 22.28 C9.38 14.68, 15.99 7.07, 19.83 2.66 M2.51 28.68 C7.32 23.15, 12.13 17.61, 26.13 1.51 M2.51 28.68 C9.86 20.22, 17.21 11.77, 26.13 1.51 M2.9 34.32 C12.15 23.69, 21.39 13.05, 31.11 1.87 M2.9 34.32 C10.54 25.54, 18.17 16.76, 31.11 1.87 M3.3 39.97 C10.15 32.09, 17 24.2, 36.1 2.23 M3.3 39.97 C16.19 25.13, 29.09 10.29, 36.1 2.23 M4.35 44.85 C18 29.15, 31.65 13.45, 41.09 2.59 M4.35 44.85 C15.23 32.33, 26.12 19.81, 41.09 2.59 M5.4 49.74 C19.69 33.31, 33.98 16.87, 44.76 4.46 M5.4 49.74 C15.71 37.87, 26.03 26.01, 44.76 4.46 M7.76 53.12 C22.88 35.73, 38 18.33, 47.78 7.08 M7.76 53.12 C16.27 43.33, 24.78 33.54, 47.78 7.08 M10.12 56.5 C21.65 43.24, 33.18 29.97, 50.8 9.71 M10.12 56.5 C21.71 43.17, 33.3 29.84, 50.8 9.71 M13.14 59.12 C23.11 47.66, 33.07 36.2, 53.82 12.33 M13.14 59.12 C21.5 49.51, 29.87 39.89, 53.82 12.33 M16.82 60.99 C30.37 45.4, 43.92 29.81, 55.52 16.47 M16.82 60.99 C27.12 49.14, 37.42 37.29, 55.52 16.47 M20.49 62.86 C29.1 52.96, 37.7 43.06, 57.23 20.6 M20.49 62.86 C31.45 50.26, 42.4 37.66, 57.23 20.6 M24.82 63.98 C35.64 51.53, 46.46 39.09, 60.25 23.22 M24.82 63.98 C33.6 53.88, 42.39 43.77, 60.25 23.22 M29.81 64.34 C41.2 51.24, 52.58 38.14, 60.64 28.87 M29.81 64.34 C40.64 51.88, 51.48 39.41, 60.64 28.87 M35.45 63.94 C42.12 56.27, 48.79 48.6, 61.7 33.76 M35.45 63.94 C43.57 54.6, 51.7 45.26, 61.7 33.76 M44.38 59.78 C47.63 56.03, 50.88 52.29, 58.15 43.93 M44.38 59.78 C48 55.61, 51.63 51.43, 58.15 43.93" stroke="#fa5252" stroke-width="0.5" fill="none"></path><path d="M59 32 C59 33.85, 58.85 35.73, 58.55 37.56 C58.26 39.38, 57.8 41.2, 57.22 42.94 C56.64 44.69, 55.9 46.4, 55.05 48 C54.19 49.6, 53.2 51.15, 52.1 52.57 C51 53.99, 49.77 55.32, 48.46 56.51 C47.15 57.7, 45.73 58.79, 44.25 59.71 C42.77 60.64, 41.19 61.44, 39.59 62.07 C37.99 62.7, 36.3 63.19, 34.62 63.51 C32.94 63.84, 31.21 64, 29.5 64 C27.79 64, 26.06 63.84, 24.38 63.51 C22.7 63.19, 21.01 62.7, 19.41 62.07 C17.81 61.44, 16.23 60.64, 14.75 59.71 C13.27 58.79, 11.85 57.7, 10.54 56.51 C9.23 55.32, 8 53.99, 6.9 52.57 C5.8 51.15, 4.81 49.6, 3.95 48 C3.1 46.4, 2.36 44.69, 1.78 42.94 C1.2 41.2, 0.74 39.38, 0.45 37.56 C0.15 35.73, 0 33.85, 0 32 C0 30.15, 0.15 28.27, 0.45 26.44 C0.74 24.62, 1.2 22.8, 1.78 21.06 C2.36 19.31, 3.1 17.6, 3.95 16 C4.81 14.4, 5.8 12.85, 6.9 11.43 C8 10.01, 9.23 8.68, 10.54 7.49 C11.85 6.3, 13.27 5.21, 14.75 4.29 C16.23 3.36, 17.81 2.56, 19.41 1.93 C21.01 1.3, 22.7 0.81, 24.38 0.49 C26.06 0.16, 27.79 0, 29.5 0 C31.21 0, 32.94 0.16, 34.62 0.49 C36.3 0.81, 37.99 1.3, 39.59 1.93 C41.19 2.56, 42.77 3.36, 44.25 4.29 C45.73 5.21, 47.15 6.3, 48.46 7.49 C49.77 8.68, 51 10.01, 52.1 11.43 C53.2 12.85, 54.19 14.4, 55.05 16 C55.9 17.6, 56.64 19.31, 57.22 21.06 C57.8 22.8, 58.26 24.62, 58.55 26.44 C58.85 28.27, 58.93 31.07, 59 32 C59.07 32.93, 59.07 31.07, 59 32" stroke="#000000" stroke-width="1" fill="none"></path></g><g transform="translate(159.10118098413204 744.1704906958894) rotate(0 9.5 13)"><text x="9.5" y="18" font-family="Virgil, Segoe UI Emoji" font-size="20px" fill="#000000" text-anchor="middle" style="white-space: pre;" direction="ltr">o1</text></g><g stroke-linecap="round" transform="translate(392.85118098413204 725.1704906958894) rotate(0 29.5 32)"><path d="M6.97 11.36 C6.97 11.36, 6.97 11.36, 6.97 11.36 M6.97 11.36 C6.97 11.36, 6.97 11.36, 6.97 11.36 M2.77 22.28 C8.75 15.4, 14.73 8.52, 19.83 2.66 M2.77 22.28 C8.49 15.7, 14.21 9.12, 19.83 2.66 M2.51 28.68 C10.69 19.27, 18.87 9.86, 26.13 1.51 M2.51 28.68 C7.24 23.23, 11.98 17.78, 26.13 1.51 M2.9 34.32 C9.59 26.63, 16.27 18.94, 31.11 1.87 M2.9 34.32 C9.94 26.23, 16.98 18.13, 31.11 1.87 M3.3 39.97 C11.25 30.82, 19.2 21.67, 36.1 2.23 M3.3 39.97 C15.74 25.65, 28.19 11.33, 36.1 2.23 M4.35 44.85 C13.72 34.07, 23.09 23.29, 41.09 2.59 M4.35 44.85 C15.44 32.09, 26.54 19.33, 41.09 2.59 M5.4 49.74 C15.83 37.74, 26.27 25.73, 44.76 4.46 M5.4 49.74 C17.96 35.29, 30.52 20.84, 44.76 4.46 M7.76 53.12 C23.17 35.39, 38.59 17.66, 47.78 7.08 M7.76 53.12 C19.66 39.44, 31.56 25.75, 47.78 7.08 M10.12 56.5 C21.33 43.61, 32.54 30.72, 50.8 9.71 M10.12 56.5 C20.01 45.13, 29.89 33.76, 50.8 9.71 M13.14 59.12 C28.17 41.84, 43.19 24.56, 53.82 12.33 M13.14 59.12 C24.42 46.15, 35.71 33.17, 53.82 12.33 M16.82 60.99 C28.32 47.76, 39.83 34.52, 55.52 16.47 M16.82 60.99 C25.01 51.57, 33.2 42.15, 55.52 16.47 M20.49 62.86 C31.98 49.65, 43.47 36.44, 57.23 20.6 M20.49 62.86 C32.31 49.27, 44.13 35.67, 57.23 20.6 M24.82 63.98 C36.04 51.08, 47.25 38.18, 60.25 23.22 M24.82 63.98 C36.28 50.8, 47.74 37.62, 60.25 23.22 M29.81 64.34 C38.52 54.32, 47.23 44.3, 60.64 28.87 M29.81 64.34 C40.52 52.02, 51.23 39.69, 60.64 28.87 M35.45 63.94 C42.85 55.44, 50.25 46.93, 61.7 33.76 M35.45 63.94 C43.7 54.46, 51.94 44.98, 61.7 33.76 M44.38 59.78 C48.63 54.88, 52.88 49.99, 58.15 43.93 M44.38 59.78 C48.63 54.88, 52.89 49.99, 58.15 43.93" stroke="#be4bdb" stroke-width="0.5" fill="none"></path><path d="M59 32 C59 33.85, 58.85 35.73, 58.55 37.56 C58.26 39.38, 57.8 41.2, 57.22 42.94 C56.64 44.69, 55.9 46.4, 55.05 48 C54.19 49.6, 53.2 51.15, 52.1 52.57 C51 53.99, 49.77 55.32, 48.46 56.51 C47.15 57.7, 45.73 58.79, 44.25 59.71 C42.77 60.64, 41.19 61.44, 39.59 62.07 C37.99 62.7, 36.3 63.19, 34.62 63.51 C32.94 63.84, 31.21 64, 29.5 64 C27.79 64, 26.06 63.84, 24.38 63.51 C22.7 63.19, 21.01 62.7, 19.41 62.07 C17.81 61.44, 16.23 60.64, 14.75 59.71 C13.27 58.79, 11.85 57.7, 10.54 56.51 C9.23 55.32, 8 53.99, 6.9 52.57 C5.8 51.15, 4.81 49.6, 3.95 48 C3.1 46.4, 2.36 44.69, 1.78 42.94 C1.2 41.2, 0.74 39.38, 0.45 37.56 C0.15 35.73, 0 33.85, 0 32 C0 30.15, 0.15 28.27, 0.45 26.44 C0.74 24.62, 1.2 22.8, 1.78 21.06 C2.36 19.31, 3.1 17.6, 3.95 16 C4.81 14.4, 5.8 12.85, 6.9 11.43 C8 10.01, 9.23 8.68, 10.54 7.49 C11.85 6.3, 13.27 5.21, 14.75 4.29 C16.23 3.36, 17.81 2.56, 19.41 1.93 C21.01 1.3, 22.7 0.81, 24.38 0.49 C26.06 0.16, 27.79 0, 29.5 0 C31.21 0, 32.94 0.16, 34.62 0.49 C36.3 0.81, 37.99 1.3, 39.59 1.93 C41.19 2.56, 42.77 3.36, 44.25 4.29 C45.73 5.21, 47.15 6.3, 48.46 7.49 C49.77 8.68, 51 10.01, 52.1 11.43 C53.2 12.85, 54.19 14.4, 55.05 16 C55.9 17.6, 56.64 19.31, 57.22 21.06 C57.8 22.8, 58.26 24.62, 58.55 26.44 C58.85 28.27, 58.93 31.07, 59 32 C59.07 32.93, 59.07 31.07, 59 32" stroke="#000000" stroke-width="1" fill="none"></path></g><g transform="translate(408.85118098413204 744.1704906958894) rotate(0 13.5 13)"><text x="13.5" y="18" font-family="Virgil, Segoe UI Emoji" font-size="20px" fill="#000000" text-anchor="middle" style="white-space: pre;" direction="ltr">o2</text></g><g stroke-linecap="round" transform="translate(654.351180984132 725.1704906958894) rotate(0 29.5 32)"><path d="M6.97 11.36 C6.97 11.36, 6.97 11.36, 6.97 11.36 M6.97 11.36 C6.97 11.36, 6.97 11.36, 6.97 11.36 M2.77 22.28 C7.75 16.55, 12.74 10.81, 19.83 2.66 M2.77 22.28 C7.01 17.41, 11.24 12.53, 19.83 2.66 M2.51 28.68 C8.1 22.24, 13.7 15.8, 26.13 1.51 M2.51 28.68 C11.87 17.91, 21.23 7.14, 26.13 1.51 M2.9 34.32 C11.94 23.92, 20.98 13.53, 31.11 1.87 M2.9 34.32 C10.94 25.07, 18.98 15.83, 31.11 1.87 M3.3 39.97 C12.49 29.39, 21.69 18.81, 36.1 2.23 M3.3 39.97 C14.97 26.54, 26.63 13.12, 36.1 2.23 M4.35 44.85 C11.77 36.32, 19.19 27.78, 41.09 2.59 M4.35 44.85 C18.68 28.37, 33.01 11.89, 41.09 2.59 M5.4 49.74 C18.92 34.19, 32.44 18.64, 44.76 4.46 M5.4 49.74 C16.58 36.87, 27.77 24.01, 44.76 4.46 M7.76 53.12 C22.19 36.53, 36.61 19.93, 47.78 7.08 M7.76 53.12 C16.74 42.8, 25.71 32.47, 47.78 7.08 M10.12 56.5 C23.6 41, 37.08 25.49, 50.8 9.71 M10.12 56.5 C20.75 44.27, 31.38 32.04, 50.8 9.71 M13.14 59.12 C28.68 41.25, 44.23 23.37, 53.82 12.33 M13.14 59.12 C24.78 45.74, 36.41 32.36, 53.82 12.33 M16.82 60.99 C28.87 47.13, 40.92 33.27, 55.52 16.47 M16.82 60.99 C24.72 51.91, 32.62 42.82, 55.52 16.47 M20.49 62.86 C28.41 53.76, 36.32 44.65, 57.23 20.6 M20.49 62.86 C31.92 49.72, 43.35 36.57, 57.23 20.6 M24.82 63.98 C35.92 51.21, 47.03 38.44, 60.25 23.22 M24.82 63.98 C34.28 53.09, 43.75 42.21, 60.25 23.22 M29.81 64.34 C41.27 51.16, 52.73 37.97, 60.64 28.87 M29.81 64.34 C38.21 54.68, 46.61 45.01, 60.64 28.87 M35.45 63.94 C44.11 53.99, 52.76 44.04, 61.7 33.76 M35.45 63.94 C41.81 56.63, 48.16 49.32, 61.7 33.76 M44.38 59.78 C48.85 54.63, 53.31 49.49, 58.15 43.93 M44.38 59.78 C49.63 53.74, 54.88 47.7, 58.15 43.93" stroke="#4c6ef5" stroke-width="0.5" fill="none"></path><path d="M59 32 C59 33.85, 58.85 35.73, 58.55 37.56 C58.26 39.38, 57.8 41.2, 57.22 42.94 C56.64 44.69, 55.9 46.4, 55.05 48 C54.19 49.6, 53.2 51.15, 52.1 52.57 C51 53.99, 49.77 55.32, 48.46 56.51 C47.15 57.7, 45.73 58.79, 44.25 59.71 C42.77 60.64, 41.19 61.44, 39.59 62.07 C37.99 62.7, 36.3 63.19, 34.62 63.51 C32.94 63.84, 31.21 64, 29.5 64 C27.79 64, 26.06 63.84, 24.38 63.51 C22.7 63.19, 21.01 62.7, 19.41 62.07 C17.81 61.44, 16.23 60.64, 14.75 59.71 C13.27 58.79, 11.85 57.7, 10.54 56.51 C9.23 55.32, 8 53.99, 6.9 52.57 C5.8 51.15, 4.81 49.6, 3.95 48 C3.1 46.4, 2.36 44.69, 1.78 42.94 C1.2 41.2, 0.74 39.38, 0.45 37.56 C0.15 35.73, 0 33.85, 0 32 C0 30.15, 0.15 28.27, 0.45 26.44 C0.74 24.62, 1.2 22.8, 1.78 21.06 C2.36 19.31, 3.1 17.6, 3.95 16 C4.81 14.4, 5.8 12.85, 6.9 11.43 C8 10.01, 9.23 8.68, 10.54 7.49 C11.85 6.3, 13.27 5.21, 14.75 4.29 C16.23 3.36, 17.81 2.56, 19.41 1.93 C21.01 1.3, 22.7 0.81, 24.38 0.49 C26.06 0.16, 27.79 0, 29.5 0 C31.21 0, 32.94 0.16, 34.62 0.49 C36.3 0.81, 37.99 1.3, 39.59 1.93 C41.19 2.56, 42.77 3.36, 44.25 4.29 C45.73 5.21, 47.15 6.3, 48.46 7.49 C49.77 8.68, 51 10.01, 52.1 11.43 C53.2 12.85, 54.19 14.4, 55.05 16 C55.9 17.6, 56.64 19.31, 57.22 21.06 C57.8 22.8, 58.26 24.62, 58.55 26.44 C58.85 28.27, 58.93 31.07, 59 32 C59.07 32.93, 59.07 31.07, 59 32" stroke="#000000" stroke-width="1" fill="none"></path></g><g transform="translate(670.351180984132 744.1704906958894) rotate(0 13.5 13)"><text x="13.5" y="18" font-family="Virgil, Segoe UI Emoji" font-size="20px" fill="#000000" text-anchor="middle" style="white-space: pre;" direction="ltr">o3</text></g><g stroke-linecap="round" transform="translate(928.351180984132 725.1704906958894) rotate(0 29.5 32)"><path d="M6.97 11.36 C6.97 11.36, 6.97 11.36, 6.97 11.36 M6.97 11.36 C6.97 11.36, 6.97 11.36, 6.97 11.36 M2.77 22.28 C6.79 17.66, 10.81 13.04, 19.83 2.66 M2.77 22.28 C6.89 17.54, 11.01 12.8, 19.83 2.66 M2.51 28.68 C7.55 22.88, 12.6 17.07, 26.13 1.51 M2.51 28.68 C10.52 19.46, 18.54 10.23, 26.13 1.51 M2.9 34.32 C9.33 26.93, 15.75 19.54, 31.11 1.87 M2.9 34.32 C10.47 25.61, 18.04 16.91, 31.11 1.87 M3.3 39.97 C15.07 26.42, 26.84 12.88, 36.1 2.23 M3.3 39.97 C16.07 25.28, 28.84 10.58, 36.1 2.23 M4.35 44.85 C15.74 31.74, 27.14 18.63, 41.09 2.59 M4.35 44.85 C16.41 30.98, 28.47 17.11, 41.09 2.59 M5.4 49.74 C14.56 39.2, 23.73 28.65, 44.76 4.46 M5.4 49.74 C19.21 33.85, 33.03 17.95, 44.76 4.46 M7.76 53.12 C21.78 36.99, 35.81 20.86, 47.78 7.08 M7.76 53.12 C21.29 37.55, 34.83 21.98, 47.78 7.08 M10.12 56.5 C25.75 38.52, 41.38 20.54, 50.8 9.71 M10.12 56.5 C24.78 39.64, 39.43 22.78, 50.8 9.71 M13.14 59.12 C28.53 41.43, 43.91 23.73, 53.82 12.33 M13.14 59.12 C23.42 47.3, 33.7 35.48, 53.82 12.33 M16.82 60.99 C29.36 46.56, 41.91 32.13, 55.52 16.47 M16.82 60.99 C31.93 43.61, 47.04 26.23, 55.52 16.47 M20.49 62.86 C34.68 46.55, 48.86 30.23, 57.23 20.6 M20.49 62.86 C30.18 51.72, 39.86 40.58, 57.23 20.6 M24.82 63.98 C36.37 50.69, 47.93 37.4, 60.25 23.22 M24.82 63.98 C33.76 53.7, 42.69 43.43, 60.25 23.22 M29.81 64.34 C39.95 52.68, 50.08 41.02, 60.64 28.87 M29.81 64.34 C36 57.22, 42.18 50.11, 60.64 28.87 M35.45 63.94 C41.39 57.11, 47.33 50.28, 61.7 33.76 M35.45 63.94 C45.78 52.06, 56.11 40.18, 61.7 33.76 M44.38 59.78 C48.84 54.65, 53.3 49.52, 58.15 43.93 M44.38 59.78 C48.93 54.54, 53.49 49.3, 58.15 43.93" stroke="#15aabf" stroke-width="0.5" fill="none"></path><path d="M59 32 C59 33.85, 58.85 35.73, 58.55 37.56 C58.26 39.38, 57.8 41.2, 57.22 42.94 C56.64 44.69, 55.9 46.4, 55.05 48 C54.19 49.6, 53.2 51.15, 52.1 52.57 C51 53.99, 49.77 55.32, 48.46 56.51 C47.15 57.7, 45.73 58.79, 44.25 59.71 C42.77 60.64, 41.19 61.44, 39.59 62.07 C37.99 62.7, 36.3 63.19, 34.62 63.51 C32.94 63.84, 31.21 64, 29.5 64 C27.79 64, 26.06 63.84, 24.38 63.51 C22.7 63.19, 21.01 62.7, 19.41 62.07 C17.81 61.44, 16.23 60.64, 14.75 59.71 C13.27 58.79, 11.85 57.7, 10.54 56.51 C9.23 55.32, 8 53.99, 6.9 52.57 C5.8 51.15, 4.81 49.6, 3.95 48 C3.1 46.4, 2.36 44.69, 1.78 42.94 C1.2 41.2, 0.74 39.38, 0.45 37.56 C0.15 35.73, 0 33.85, 0 32 C0 30.15, 0.15 28.27, 0.45 26.44 C0.74 24.62, 1.2 22.8, 1.78 21.06 C2.36 19.31, 3.1 17.6, 3.95 16 C4.81 14.4, 5.8 12.85, 6.9 11.43 C8 10.01, 9.23 8.68, 10.54 7.49 C11.85 6.3, 13.27 5.21, 14.75 4.29 C16.23 3.36, 17.81 2.56, 19.41 1.93 C21.01 1.3, 22.7 0.81, 24.38 0.49 C26.06 0.16, 27.79 0, 29.5 0 C31.21 0, 32.94 0.16, 34.62 0.49 C36.3 0.81, 37.99 1.3, 39.59 1.93 C41.19 2.56, 42.77 3.36, 44.25 4.29 C45.73 5.21, 47.15 6.3, 48.46 7.49 C49.77 8.68, 51 10.01, 52.1 11.43 C53.2 12.85, 54.19 14.4, 55.05 16 C55.9 17.6, 56.64 19.31, 57.22 21.06 C57.8 22.8, 58.26 24.62, 58.55 26.44 C58.85 28.27, 58.93 31.07, 59 32 C59.07 32.93, 59.07 31.07, 59 32" stroke="#000000" stroke-width="1" fill="none"></path></g><g transform="translate(944.851180984132 744.1704906958894) rotate(0 13 13)"><text x="13" y="18" font-family="Virgil, Segoe UI Emoji" font-size="20px" fill="#000000" text-anchor="middle" style="white-space: pre;" direction="ltr">o4</text></g><g stroke-linecap="round"><g transform="translate(200.85118098413204 754.1704906958894) rotate(0 93.99831063449392 0.7526376515626225)"><path d="M-1.07 0.54 C30.5 0.75, 157.24 0.92, 189.07 0.97" stroke="#000000" stroke-width="1.5" fill="none" stroke-dasharray="8 9"></path></g><g transform="translate(200.85118098413204 754.1704906958894) rotate(0 93.99831063449392 0.7526376515626225)"><path d="M161.75 9.63 C168.48 8.47, 175.92 6.58, 191 0.66" stroke="#000000" stroke-width="1.5" fill="none"></path></g><g transform="translate(200.85118098413204 754.1704906958894) rotate(0 93.99831063449392 0.7526376515626225)"><path d="M161.78 -10.89 C168.45 -6.49, 175.87 -2.82, 191 0.66" stroke="#000000" stroke-width="1.5" fill="none"></path></g></g><g stroke-linecap="round"><g transform="translate(454.85118098413204 755.1704906958894) rotate(0 98.25263765156274 -0.027921417355514677)"><path d="M0.54 -0.93 C33.25 -0.61, 163.42 0.49, 195.97 0.88" stroke="#000000" stroke-width="1.5" fill="none" stroke-dasharray="8 9"></path></g><g transform="translate(454.85118098413204 755.1704906958894) rotate(0 98.25263765156274 -0.027921417355514677)"><path d="M166.12 10.81 C175.24 7.76, 183.8 7.25, 195.66 2.16" stroke="#000000" stroke-width="1.5" fill="none"></path></g><g transform="translate(454.85118098413204 755.1704906958894) rotate(0 98.25263765156274 -0.027921417355514677)"><path d="M166.33 -9.71 C175.21 -7.19, 183.71 -2.13, 195.66 2.16" stroke="#000000" stroke-width="1.5" fill="none"></path></g></g><g stroke-linecap="round"><g transform="translate(716.851180984132 759.1704906958894) rotate(0 105.4720785826446 -1.0947371691465833)"><path d="M-0.93 -0.03 C34.56 -0.48, 176.32 -2.02, 211.88 -2.16" stroke="#000000" stroke-width="1.5" fill="none" stroke-dasharray="8 9"></path></g><g transform="translate(716.851180984132 759.1704906958894) rotate(0 105.4720785826446 -1.0947371691465833)"><path d="M183.72 8.12 C189.38 7.01, 197.51 3.81, 213.16 -1.03" stroke="#000000" stroke-width="1.5" fill="none"></path></g><g transform="translate(716.851180984132 759.1704906958894) rotate(0 105.4720785826446 -1.0947371691465833)"><path d="M183.56 -12.4 C189.35 -9.18, 197.51 -8.06, 213.16 -1.03" stroke="#000000" stroke-width="1.5" fill="none"></path></g></g><g stroke-linecap="round" transform="translate(120.85118098413204 681.6704906958894) rotate(0 442.8412995156086 60.5)"><path d="M-0.08 -0.11 C305.52 0.86, 610.37 0.6, 886.14 0.03 M887.44 0.2 C886.3 40.5, 884.03 78.81, 886.14 119.71 M885.35 121.7 C562.3 119.24, 239.71 118.55, -0.51 120.53 M-1.23 119.07 C1.09 81.25, -1.26 38.38, -1.25 -1.73" stroke="#000000" stroke-width="1.5" fill="none" stroke-dasharray="1.5 7"></path></g><g stroke-linecap="round"><g transform="translate(95.71103926878823 145.76131302575413) rotate(0 43.95650072049352 79.12076482246232)"><path d="M-0.12 -0.16 C14.71 26.25, 73.44 132.04, 88.03 158.4" stroke="#000000" stroke-width="1.5" fill="none" stroke-dasharray="1.5 7"></path></g><g transform="translate(95.71103926878823 145.76131302575413) rotate(0 43.95650072049352 79.12076482246232)"><path d="M65.12 139.4 C72.35 142.81, 76.73 148.62, 88.1 158.93" stroke="#000000" stroke-width="1.5" fill="none" stroke-dasharray="1.5 5"></path></g><g transform="translate(95.71103926878823 145.76131302575413) rotate(0 43.95650072049352 79.12076482246232)"><path d="M83.07 129.45 C86.31 135.05, 86.7 143.08, 88.1 158.93" stroke="#000000" stroke-width="1.5" fill="none" stroke-dasharray="1.5 5"></path></g></g><g stroke-linecap="round"><g transform="translate(329.4550660208115 148.72721488657635) rotate(0 68.08045345370601 79.74567073194657)"><path d="M-0.16 0.41 C22.57 26.94, 113.64 132.49, 136.32 159.09" stroke="#000000" stroke-width="1.5" fill="none" stroke-dasharray="1.5 7"></path></g><g transform="translate(329.4550660208115 148.72721488657635) rotate(0 68.08045345370601 79.74567073194657)"><path d="M110.85 146.32 C117.62 150.07, 126.85 153.23, 136.85 157.68" stroke="#000000" stroke-width="1.5" fill="none" stroke-dasharray="1.5 5"></path></g><g transform="translate(329.4550660208115 148.72721488657635) rotate(0 68.08045345370601 79.74567073194657)"><path d="M126.42 132.95 C128.55 140.66, 133.14 147.79, 136.85 157.68" stroke="#000000" stroke-width="1.5" fill="none" stroke-dasharray="1.5 5"></path></g></g><g stroke-linecap="round"><g transform="translate(605.4612359891826 153.76131302575413) rotate(0 48.13008313682576 76.33614024589372)"><path d="M0.41 1.16 C16.4 26.44, 79.8 126.57, 95.85 151.51" stroke="#000000" stroke-width="1.5" fill="none" stroke-dasharray="1.5 7"></path></g><g transform="translate(605.4612359891826 153.76131302575413) rotate(0 48.13008313682576 76.33614024589372)"><path d="M73.98 132.94 C80.21 139.6, 85.89 144.28, 94.45 149.59" stroke="#000000" stroke-width="1.5" fill="none" stroke-dasharray="1.5 5"></path></g><g transform="translate(605.4612359891826 153.76131302575413) rotate(0 48.13008313682576 76.33614024589372)"><path d="M91.29 121.91 C92.48 131.82, 93.15 139.7, 94.45 149.59" stroke="#000000" stroke-width="1.5" fill="none" stroke-dasharray="1.5 5"></path></g></g><g stroke-linecap="round"><g transform="translate(878.1772329013511 152.76131302575413) rotate(0 45.48540102541779 74.36568611929738)"><path d="M1.16 -0.19 C16.16 24.56, 75.16 124.13, 89.81 148.92" stroke="#000000" stroke-width="1.5" fill="none" stroke-dasharray="1.5 7"></path></g><g transform="translate(878.1772329013511 152.76131302575413) rotate(0 45.48540102541779 74.36568611929738)"><path d="M66.3 131.18 C74.46 135.19, 80.51 139.18, 87.88 150.68" stroke="#000000" stroke-width="1.5" fill="none" stroke-dasharray="1.5 5"></path></g><g transform="translate(878.1772329013511 152.76131302575413) rotate(0 45.48540102541779 74.36568611929738)"><path d="M83.96 120.72 C87.09 127.9, 88.07 134.89, 87.88 150.68" stroke="#000000" stroke-width="1.5" fill="none" stroke-dasharray="1.5 5"></path></g></g><g stroke-linecap="round"><g transform="translate(91.61313025754498 534) rotate(0 31.989126803084673 94.94201029406133)"><path d="M0.04 0.32 C10.57 31.8, 52.97 157.81, 63.94 189.57" stroke="#000000" stroke-width="1.5" fill="none" stroke-dasharray="1.5 7"></path></g><g transform="translate(91.61313025754498 534) rotate(0 31.989126803084673 94.94201029406133)"><path d="M45.67 164.78 C50.2 176.46, 59.17 184.69, 64.95 188.76" stroke="#000000" stroke-width="1.5" fill="none" stroke-dasharray="1.5 5"></path></g><g transform="translate(91.61313025754498 534) rotate(0 31.989126803084673 94.94201029406133)"><path d="M65.1 158.17 C62.59 172.26, 64.48 182.9, 64.95 188.76" stroke="#000000" stroke-width="1.5" fill="none" stroke-dasharray="1.5 5"></path></g></g><g stroke-linecap="round"><g transform="translate(345.613130257545 534) rotate(0 33.5421087483046 95.31541597861406)"><path d="M0.32 -0.84 C11.33 31.06, 55.48 159.45, 66.77 191.47" stroke="#000000" stroke-width="1.5" fill="none" stroke-dasharray="1.5 7"></path></g><g transform="translate(345.613130257545 534) rotate(0 33.5421087483046 95.31541597861406)"><path d="M46.42 166.29 C56.35 176.66, 62.82 185.77, 65.96 191.32" stroke="#000000" stroke-width="1.5" fill="none" stroke-dasharray="1.5 5"></path></g><g transform="translate(345.613130257545 534) rotate(0 33.5421087483046 95.31541597861406)"><path d="M65.8 159.55 C68.82 172.38, 68.37 183.89, 65.96 191.32" stroke="#000000" stroke-width="1.5" fill="none" stroke-dasharray="1.5 5"></path></g></g><g stroke-linecap="round"><g transform="translate(614.1943412784585 536.1669608202956) rotate(0 30.083074125762096 94.34184432680581)"><path d="M-0.84 -1.15 C9.32 30.43, 50.73 157.92, 61.01 189.84" stroke="#000000" stroke-width="1.5" fill="none" stroke-dasharray="1.5 7"></path></g><g transform="translate(614.1943412784585 536.1669608202956) rotate(0 30.083074125762096 94.34184432680581)"><path d="M40.64 167.93 C48.42 174.95, 54.83 179.85, 60.85 190.29" stroke="#000000" stroke-width="1.5" fill="none" stroke-dasharray="1.5 5"></path></g><g transform="translate(614.1943412784585 536.1669608202956) rotate(0 30.083074125762096 94.34184432680581)"><path d="M60.17 161.62 C62.04 170.41, 62.53 177.23, 60.85 190.29" stroke="#000000" stroke-width="1.5" fill="none" stroke-dasharray="1.5 5"></path></g></g><g stroke-linecap="round"><g transform="translate(893.1067274538218 534.972218590784) rotate(0 27.497497305743764 94.65403473234767)"><path d="M-1.15 1.06 C8.15 32.57, 46.52 157.28, 56.15 188.25" stroke="#000000" stroke-width="1.5" fill="none" stroke-dasharray="1.5 7"></path></g><g transform="translate(893.1067274538218 534.972218590784) rotate(0 27.497497305743764 94.65403473234767)"><path d="M39.79 164.54 C45.24 173.34, 48.88 179.97, 56.6 186.97" stroke="#000000" stroke-width="1.5" fill="none" stroke-dasharray="1.5 5"></path></g><g transform="translate(893.1067274538218 534.972218590784) rotate(0 27.497497305743764 94.65403473234767)"><path d="M59.39 158.49 C58.41 169.07, 55.65 177.67, 56.6 186.97" stroke="#000000" stroke-width="1.5" fill="none" stroke-dasharray="1.5 5"></path></g></g><g stroke-linecap="round" transform="translate(22.973231795439006 265.5019120146112) rotate(0 497.5000000000002 149.375)"><path d="M74.69 0 L920.31 0 L929.36 0.29 L945.69 2.63 L952.99 4.67 L965.83 10.5 L976.33 18.67 L980.7 23.63 L987.71 35.3 L992.37 49.31 L994.71 65.64 L995 74.69 L995 224.06 L994.71 233.11 L992.37 249.44 L990.33 256.74 L984.5 269.58 L980.7 275.12 L971.37 284.45 L965.83 288.25 L952.99 294.08 L945.69 296.12 L929.36 298.46 L74.69 298.75 L65.64 298.46 L49.31 296.12 L42.01 294.08 L29.17 288.25 L18.67 280.08 L10.5 269.58 L7.29 263.45 L2.63 249.44 L0.29 233.11 L0 224.06 L0.29 65.64 L2.63 49.31 L7.29 35.3 L14.3 23.63 L23.63 14.3 L29.17 10.5 L42.01 4.67 L57.18 1.17 L74.69 0" stroke="none" stroke-width="0" fill="#fff"></path><path d="M74.69 0 M74.69 0 C321.27 0, 567.86 0, 920.31 0 M920.31 0 C970.1 0, 995 24.9, 995 74.69 M995 74.69 C995 105.29, 995 135.9, 995 224.06 M995 224.06 C995 273.85, 970.1 298.75, 920.31 298.75 M920.31 298.75 C719.42 298.75, 518.52 298.75, 74.69 298.75 M74.69 298.75 C24.9 298.75, 0 273.85, 0 224.06 M0 224.06 C0 188.26, 0 152.46, 0 74.69 M0 74.69 C0 24.9, 24.9 0, 74.69 0" stroke="#000000" stroke-width="1.5" fill="none" stroke-dasharray="8 9"></path></g><g transform="translate(459.223231795439 404.2519120146112) rotate(0 85 23)"><text x="0" y="32" font-family="Virgil, Segoe UI Emoji" font-size="36px" fill="#000000" text-anchor="start" style="white-space: pre;" direction="ltr">mapAccum</text></g></svg>