<svg version="1.1" xmlns="http://www.w3.org/2000/svg" viewBox="0 0 443.59039253782976 443.2572564069926" width="443.59039253782976" height="443.2572564069926">
    <!-- svg-source:excalidraw -->

    <defs>
        <style class="style-fonts">
            @font-face {
            font-family: "Virgil";
            src: url("https://excalidraw.com/Virgil.woff2");
            }
            @font-face {
            font-family: "Cascadia";
            src: url("https://excalidraw.com/Cascadia.woff2");
            }
        </style>
    </defs>
    <rect x="0" y="0" width="443.59039253782976" height="443.2572564069926" fill="#ffffff"></rect><g transform="translate(32.59039253782976 303.5) rotate(0 47.5 13)"><text x="0" y="18" font-family="Virgil, Segoe UI Emoji" font-size="20px" fill="#000000" text-anchor="start" style="white-space: pre;" direction="ltr">Streaming</text></g><g transform="translate(28.590392537829757 361) rotate(0 29.5 13)"><text x="0" y="18" font-family="Virgil, Segoe UI Emoji" font-size="20px" fill="#000000" text-anchor="start" style="white-space: pre;" direction="ltr">names</text></g><g stroke-linecap="round" transform="translate(14.590392537829757 350) rotate(0 47.5 24)"><path d="M0 0 C0 0, 0 0, 0 0 M0 0 C0 0, 0 0, 0 0 M-0.73 6.92 C1.73 4.85, 3.38 1.96, 4.75 0.65 M-0.59 6.43 C1.16 4.28, 2.8 2.8, 5.33 0.55 M0.05 12 C5.47 7.22, 8.41 3.82, 9.83 -0.94 M0.62 11.34 C3.42 8.43, 7.13 4.7, 10.19 -0.63 M-1.37 18.4 C3.46 13.62, 7.23 9.92, 17.3 1.27 M0.39 17.65 C3.44 13.48, 9.5 7.52, 15.19 -0.53 M1.07 22.78 C6.46 17.94, 14.1 10.28, 22.22 1.57 M1.19 23.43 C5.63 18.46, 10.03 13.62, 21.83 -0.5 M1.72 29.66 C5.38 23.78, 12.51 16.53, 24.27 2.19 M-0.14 29.55 C5.16 24.47, 12.2 17.23, 26.37 -0.53 M1.58 38.56 C11.99 22.96, 22.47 12.93, 31.97 0.48 M-1.1 36.47 C5.97 29.33, 13.11 21.76, 31.95 -1.09 M0.67 41.96 C8.58 31.62, 19.16 20.26, 35.6 -1.64 M0.45 41.55 C11.02 28.96, 21.06 16.76, 37.02 -0.06 M-0.92 46.33 C17.2 30.33, 29.55 13.91, 42.87 -0.13 M0.81 47.75 C14.74 32.47, 27.87 17.4, 42.44 0.42 M5.96 48.32 C20.07 31.09, 33.24 18.27, 48 0.87 M4.78 49.22 C18.24 32.84, 31.55 19.53, 48.02 1.2 M12.05 50.12 C20.42 39.25, 28.44 29.28, 51.36 -1.4 M11.73 48.41 C21.2 38.1, 29.54 28.03, 53.59 -0.78 M15.27 50.35 C29.2 33.44, 38.78 22.9, 56.6 1.37 M16.53 48.36 C27.57 35.6, 38.01 22.26, 57.56 0.79 M23.05 47.64 C35.43 33.88, 46.58 21.4, 62.3 -1.89 M21.38 47.93 C31.39 36.81, 42.58 24.08, 63.98 0.71 M25.47 50.28 C36.8 36.69, 44.27 25.99, 67.02 0.06 M26.38 49.03 C35.59 37.99, 45.34 27.69, 69.11 -0.51 M30.91 49.85 C45.64 30.98, 59.6 14.78, 73 -1.63 M32.59 47.72 C43.41 35.75, 54.43 22.88, 74.47 0.51 M39.13 46.84 C48.4 35.94, 56.65 23.44, 79.26 1.72 M36.58 47.48 C46.17 38.21, 56.05 27.73, 79.41 -0.74 M44.93 48.27 C57.36 31.99, 73.63 13.62, 85.21 -2.05 M43.5 48.36 C55.64 34.77, 66.95 19.63, 84.19 0.46 M47.24 49.33 C60.39 33.36, 72.63 19.7, 91.79 -0.32 M47.63 48.18 C61.72 32.09, 75.14 15.88, 90.49 -0.69 M52.8 46.99 C67.1 32.12, 83.93 12.78, 96.45 -1.3 M53.49 47.7 C64.14 37.33, 73.23 26.01, 95.89 1.38 M57.23 49.62 C66.59 37.43, 79.97 24.6, 96.27 5.86 M58.33 47.82 C68.99 36.68, 79.58 23.8, 96.41 6.11 M64.03 47.39 C74.24 34.78, 88.63 19.62, 96.16 10.87 M64.59 49.52 C73.31 38.17, 82.5 25.61, 96.1 12.12 M68.98 50.13 C75.81 39.95, 82.78 32.82, 96.04 18.74 M69.73 49.29 C78.29 36.96, 88.8 24.29, 95.74 17.28 M72.52 49.2 C80.85 40.2, 87.36 31.42, 97.24 25.39 M74.08 48.59 C81.97 40.08, 87.06 33.58, 94.63 23.84 M78.78 47.85 C84.39 43.78, 89.02 37.43, 93.46 32.04 M79.21 47.73 C84.98 41.19, 90.97 34.69, 94.96 30.4 M84.69 47.26 C89.41 44.02, 91.25 41.17, 95.23 35.35 M84.62 49.04 C88.72 44.18, 91.15 41.54, 95.67 37.13 M90.85 47.58 C92.5 46.81, 92.58 44.92, 94.77 43.27 M90.5 48.32 C92.14 46.89, 92.85 45.66, 94.94 42.64" stroke="#868e96" stroke-width="0.5" fill="none"></path><path d="M-0.67 0.84 C31.79 0.85, 65 2.14, 93.67 -0.96 M0.3 -0.5 C27.49 1.51, 55.38 0.65, 95.4 0.75 M94.06 0.54 C94.92 10.32, 94.08 22.79, 95.15 47.25 M94.54 -0.38 C93.94 16.31, 94.91 29.66, 95.89 48.85 M95.6 48.89 C75.37 49.39, 56.25 46.88, 0.75 49.46 M95.08 47.88 C62.42 46.93, 30.79 48.56, -0.32 47.26 M1.58 49.3 C-1.41 32.4, -2.39 19.78, -0.64 -0.7 M-0.96 48.53 C0.32 29.11, -0.59 12.77, -0.35 -0.75" stroke="#000000" stroke-width="1" fill="none"></path></g><g stroke-linecap="round" transform="translate(116.59039253782976 350) rotate(0 5.5 24)"><path d="M0 0 C0 0, 0 0, 0 0 M0 0 C0 0, 0 0, 0 0 M-0.81 5.9 C0.93 4.75, 2.12 3.19, 5.46 1.03 M-0.1 6.6 C1.25 3.93, 3.5 2.46, 4.78 0.19 M-0.57 12.68 C1.31 9.01, 5.88 7.09, 12.04 0.73 M-0.17 12.78 C3.7 7.9, 8.12 2.94, 11.1 0.42 M0.41 20.16 C2.66 13.05, 8.09 9.41, 15.17 0.62 M0.05 18.29 C4.5 11.42, 11.58 6.43, 13.77 2.72 M-0.15 25.92 C4.88 21.42, 5.14 17.21, 15.88 8.31 M0.32 23.23 C4.55 18.82, 9.44 14.25, 13.89 8.29 M-1.03 31.01 C2.29 26.7, 5.15 24.87, 12.55 13.36 M0.59 30.79 C1.87 27.3, 4.85 23.2, 13.31 14.77 M-1.17 35.43 C1.54 34.58, 5.58 28.31, 12.16 21.38 M-0.66 37.15 C3.43 32.83, 7.65 27.7, 13.63 20.94 M1.75 42.96 C4.79 37.89, 8.61 31.69, 15.6 27.16 M0.78 41.78 C5.4 37.26, 8.7 32.4, 14.86 27.18 M1.65 49.05 C7.88 42.36, 12.6 35.56, 15.33 31.28 M0.66 48.73 C4.07 45.49, 7.45 41.09, 14.61 33.51 M6 47.95 C8.79 47.02, 8.71 43.27, 15.06 37.72 M5.89 48.77 C8.53 45.2, 11.85 41.17, 13.95 38.34" stroke="#868e96" stroke-width="0.5" fill="none"></path><path d="M-0.25 0.33 C4.72 -0.22, 9.35 -0.21, 10.5 0.41 M-0.23 0.05 C4.04 -0.52, 7.84 -0.48, 11.52 -0.18 M11.3 1.58 C12.32 9.86, 10.12 19.75, 12.15 47.36 M11.81 -0.96 C11.88 12.69, 10.4 24.51, 11.64 47.65 M10 46.93 C8.92 47.32, 6.98 48.63, 0.28 47.25 M10.84 48.26 C8.72 48.5, 5.75 48.19, 0.38 48.53 M-1.93 46.83 C1.03 36.98, 1.13 25.21, -0.39 -0.6 M-0.52 47.18 C-0.02 31.05, -0.62 14.79, 0.6 0.86" stroke="#000000" stroke-width="1" fill="none"></path></g><g stroke-linecap="round" transform="translate(134.59039253782976 350) rotate(0 5.5 24)"><path d="M0 0 C0 0, 0 0, 0 0 M0 0 C0 0, 0 0, 0 0 M-0.25 6.61 C2.33 3.93, 2.99 2.54, 4.63 0.97 M-0.55 6.47 C0.68 4.85, 1.45 4.29, 5.15 0.41 M-1.35 11.7 C4.99 9.56, 7.33 3.59, 10.55 1.44 M0.92 12.08 C2.61 8.15, 6.56 4.76, 11.22 -0.15 M1.27 17.4 C4.77 13.1, 7.96 8.33, 14.51 1.36 M0.19 19.02 C3.59 13.73, 6.65 10.14, 12.91 2.11 M-1.65 23.17 C3.19 17.22, 10.79 12.59, 13.84 6.87 M0.25 23.68 C4.91 18.6, 9.72 13.65, 14.39 8.34 M1.17 32.09 C4.37 25.62, 9.05 19.91, 14.32 16.31 M0.51 31.12 C3.68 26.02, 8.97 19.6, 14.27 15.57 M-1.62 38 C5.31 33.43, 9.37 27.37, 12.83 22.71 M-0.18 37.01 C3.3 33.93, 6.58 30.85, 13.67 21.99 M0.01 43.26 C4.09 38.96, 11 30.25, 13.04 28.23 M0.47 43.1 C3.5 38.89, 6.56 35.75, 13.49 26.52 M-1.42 47.9 C4.88 44.07, 7.89 40.49, 13.81 34.11 M0.7 47.91 C3.21 44.67, 6.11 41.71, 14.21 32.31 M5.83 49.3 C7.31 46.63, 11.13 42.12, 12.79 38.88 M5.24 48.42 C7.08 46.88, 8.88 44.33, 14.25 38.66" stroke="#868e96" stroke-width="0.5" fill="none"></path><path d="M-1.04 -1 C1.84 0.42, 5.26 0.95, 11.73 0.28 M0.01 -0.16 C2.81 0.31, 5.6 -0.17, 11.19 0.38 M9.58 -1.93 C9.51 20.37, 10.85 39.53, 10.59 47.61 M10.05 -0.52 C10.36 13.04, 10.38 25.4, 10.11 48.6 M11.72 48.43 C6.7 48.07, 3.43 48.02, 0.16 48.8 M11.1 48.36 C8.58 47.51, 5.62 48.04, 0.51 47.96 M-1.03 46.62 C-0.89 36.19, -0.41 24.43, -1.27 1.19 M0.17 48.4 C0.29 28.78, -1.13 11.42, 0.66 -0.51" stroke="#000000" stroke-width="1" fill="none"></path></g><g stroke-linecap="round" transform="translate(149.59039253782976 350) rotate(0 5.5 24)"><path d="M0 0 C0 0, 0 0, 0 0 M0 0 C0 0, 0 0, 0 0 M0.14 5.65 C1.2 5.29, 3.68 2.93, 4.56 0.32 M-0.65 6.79 C1.82 3.68, 3.69 1.69, 4.97 0.66 M-0.65 13.16 C2.29 9.13, 5.66 4.87, 10.24 0.66 M0.11 12.3 C3.18 9.51, 4.44 6.47, 9.98 -0.62 M0.72 16.52 C2.41 13.03, 4.97 12.3, 12.17 2.39 M0.09 18.42 C2.64 15.04, 5.82 11.79, 13.31 2.93 M0.81 25.25 C6.17 19.52, 8.63 15.26, 12.75 8.77 M0.34 24.59 C6.16 17.21, 11.51 11.94, 13.46 8.72 M-1.79 29.12 C6.48 24.98, 12.78 17.96, 15.28 13.94 M-0.82 30.56 C5.57 25.04, 11 19.34, 14.31 14.78 M-0.67 36.75 C5.87 29.8, 12.45 25.7, 12.12 20.16 M-0.58 37.21 C5.65 31.18, 10.14 25.18, 13.78 20.6 M-0.11 40.57 C3.89 39.18, 7.61 34.51, 13.54 26.82 M-0.44 42.68 C4.85 36.64, 9.8 31, 14.21 27.23 M-0.81 48.64 C4.63 43.36, 8.2 41.65, 13.38 31.14 M-0.32 47.73 C4.62 43.05, 9.45 38.3, 13.5 33.39 M6.03 47.87 C7.69 44.74, 11.62 42.05, 13.53 37.72 M5.31 48.14 C8.37 46.06, 9.95 42.96, 14.65 38.23" stroke="#868e96" stroke-width="0.5" fill="none"></path><path d="M0.64 -0.78 C3.01 -0.57, 8.85 0.17, 11.78 -0.23 M0.11 -0.52 C2.8 -0.49, 6.21 -0.48, 10.71 -0.49 M12.74 1.31 C12.19 17.19, 11.37 36.27, 10.87 48.29 M10.98 0.19 C11.42 18.48, 9.88 35.98, 11.08 48.94 M10.68 47.43 C7.03 47.23, 4.55 47.49, -0.01 47.3 M10.92 48.09 C7.27 48.34, 2.65 47.56, 0.15 48.37 M0.48 49.01 C-0.68 36.84, -1.09 23.59, 1.6 0.35 M-0.7 48.5 C-0.61 30.29, -0.88 11.39, -0.14 0.21" stroke="#000000" stroke-width="1" fill="none"></path></g><g stroke-linecap="round" transform="translate(189.59039253782976 350) rotate(0 5.5 24)"><path d="M0 0 C0 0, 0 0, 0 0 M0 0 C0 0, 0 0, 0 0 M-0.31 6.17 C1.27 3.87, 4.28 1.71, 4.91 0.5 M-0.31 6.27 C1.2 4.74, 2.49 3.03, 4.96 0.24 M0.85 13.3 C2.57 9.6, 4.76 5.61, 11.45 1.03 M0.55 12.65 C3.1 8.71, 6.2 4.29, 10.12 0.33 M0.89 20.44 C4.33 12.25, 9.46 8.13, 12.55 3.28 M0.56 17.66 C3.93 12.39, 10.16 6.48, 14.21 1.87 M1.25 25.57 C3.98 21.03, 6.67 15.85, 13.88 9.35 M-0.59 24.02 C4.62 18.23, 10.12 13.68, 13.55 7.74 M0.55 29.35 C5.03 24.61, 9.22 22.52, 15.69 15.32 M-0.57 30.4 C5.86 25.06, 10.73 19.18, 13.47 15.56 M-2.15 38.26 C5.13 30.29, 10.1 25.47, 12 20.29 M-1.15 37 C5.16 31.29, 10.75 26.08, 12.83 20.64 M-1.47 41.56 C3.79 38.58, 7.47 33.96, 15.74 27.5 M1.1 41.82 C4.09 38.81, 7.05 34.15, 14.35 26.36 M0.54 47.15 C4.31 42.43, 6.68 39.58, 12.39 33 M0.69 47.9 C5.6 41.99, 9.68 37.88, 13.89 32.26 M4.93 48.48 C7.78 45.36, 9.89 44.05, 12.87 38.72 M5.15 47.97 C6.98 46.77, 9.64 43.52, 14.14 38.62" stroke="#868e96" stroke-width="0.5" fill="none"></path><path d="M-0.08 0.67 C3.97 -0.71, 6.85 -0.75, 10.08 0.44 M0.27 0.29 C4.59 0.2, 8.86 -0.19, 11.17 -0.16 M10.68 -0.63 C12.89 15.05, 9.62 26.76, 9.18 49.06 M11.58 -0.49 C11.47 11.18, 10.16 21.93, 11.75 47.1 M11.91 47.48 C7.68 48.99, 3.72 48.27, -0.75 47.04 M10.66 48.14 C8.35 47.94, 4.33 48.29, 0.11 47.6 M1.7 46.59 C0.55 37.13, -0.66 23.6, -1.82 1.68 M-0.67 48.1 C-0.76 37.02, 0.5 27.51, 0.89 0.47" stroke="#000000" stroke-width="1" fill="none"></path></g><g stroke-linecap="round" transform="translate(255.59039253782976 350) rotate(0 5.5 24)"><path d="M0 0 C0 0, 0 0, 0 0 M0 0 C0 0, 0 0, 0 0 M0.03 6.55 C0.81 4.6, 2.52 3.32, 5.08 0.85 M-0.31 6.21 C1.21 4.47, 3.2 2.14, 5.17 0.43 M1.03 10.48 C3.32 8.79, 6.54 3.82, 9.94 0.99 M0.21 11.67 C3.94 8.14, 6.91 3.48, 10.15 -0.05 M-1.94 20.3 C4.14 12.94, 8.46 8.81, 15.14 2.02 M-0.66 18.35 C3.08 14.97, 5.2 11.59, 14.26 2.27 M1.4 25.3 C3.11 21.95, 4.05 19.22, 13.42 7.88 M0.67 24.37 C4.71 19.09, 9.83 13.56, 14.49 8.99 M-1.82 28.95 C3.41 25.54, 9.67 18.29, 15.05 14.09 M0.96 29.72 C3.39 25.98, 7.77 22.51, 13.05 14.88 M-1.28 37.35 C4.08 33.14, 6.6 27.78, 11.95 22.59 M0.38 36.25 C3.86 32.12, 6.23 28.48, 12.68 21 M1.07 40.78 C2.21 37.18, 8.46 35.05, 13.19 28.09 M0.36 43.12 C3.97 39.52, 5.6 36.77, 13.74 26.36 M0.15 46.8 C5.41 44.72, 8.99 38.77, 13.39 31.97 M0.11 47.41 C4.23 44.26, 8.82 39.28, 13.98 33.37 M4.95 48.42 C8.14 45.29, 9.88 41.98, 15.13 39.97 M5.16 48.07 C7.92 46.75, 9.34 43.47, 14.67 38.09" stroke="#868e96" stroke-width="0.5" fill="none"></path><path d="M-0.52 0.63 C1.85 -0.26, 4.7 0.42, 10.79 -0.37 M0.15 -0.51 C2.8 -0.53, 4.32 0.08, 11.3 0.39 M9.55 -0.61 C12.55 17.06, 12.46 35.05, 9.63 48.81 M11.29 0.3 C11.28 13.43, 11.15 28.33, 11.43 47.09 M10.43 47.69 C6.96 48.66, 1.84 47.45, -0.22 48.32 M11.33 47.64 C7.34 48.22, 3.36 48.13, 0.3 48.05 M1.97 48.53 C2.22 31.11, -0.34 16.08, 0.23 1.34 M0.6 47.21 C1.39 30.71, -0.31 14.51, 0.67 -0.89" stroke="#000000" stroke-width="1" fill="none"></path></g><g stroke-linecap="round" transform="translate(207.59039253782976 350) rotate(0 5.5 24)"><path d="M0 0 C0 0, 0 0, 0 0 M0 0 C0 0, 0 0, 0 0 M-0.49 6.05 C0.88 5.45, 2.39 2.81, 5.13 0.26 M-0.38 6.31 C0.96 4.77, 2.15 3.72, 4.87 0.17 M1.4 11.91 C4.53 7.04, 7.39 4.06, 11.69 0.25 M0.74 11.66 C3.77 7.78, 6.31 4.31, 11 -0.19 M1.87 18.97 C1.84 15.92, 5.85 8.81, 14.34 3.69 M-0.91 17.72 C4.54 13.08, 9.36 7.16, 12.93 1.91 M1.75 24.67 C5.58 18.71, 8.76 13.05, 15.16 9.1 M0.2 23.56 C2.72 21.13, 6.5 17.07, 13.55 8.03 M-1.12 31.7 C3.1 26.76, 9.98 21.91, 14.47 15.72 M-0.08 31.46 C4.45 26.63, 8.44 20.45, 14.71 14.75 M1.13 38.08 C3.14 33.07, 8.32 23.85, 12.78 22.37 M-0.13 37.09 C2.86 34.41, 6.37 29.63, 13.13 20.4 M-0.82 43 C4.9 37.85, 8.98 33.08, 14.74 25.69 M-0.57 42.88 C3.42 38.8, 5.74 35.93, 13.6 26.79 M-0.48 47.94 C4.24 40.77, 10.84 35.99, 13.59 33.97 M0.27 48.73 C3.74 43.47, 9 38.8, 12.85 32.64 M5.47 48.66 C7.98 45.04, 12.29 40.24, 14.05 37.94 M4.96 47.94 C8.67 45.67, 10.32 42.81, 13.96 39.2" stroke="#868e96" stroke-width="0.5" fill="none"></path><path d="M0.67 0.21 C3.1 -0.65, 6.81 -0.91, 11.44 1.06 M0.29 0.23 C4.12 0.08, 7.58 0.12, 10.84 -0.02 M10.37 1.82 C11.83 13.64, 9.27 28.36, 12.06 46.36 M10.51 0.62 C11.46 12.25, 11.74 26.64, 10.1 48.22 M10.48 48.22 C9.58 47.9, 6.53 47.34, -0.96 47.78 M11.14 48.43 C7.83 47.43, 5.1 48.04, -0.4 47.68 M-1.41 48.3 C0.75 35.2, -1.21 22.38, 1.68 -1.77 M0.1 47.23 C-1.16 34.15, -0.51 20.2, 0.47 -0.26" stroke="#000000" stroke-width="1" fill="none"></path></g><g stroke-linecap="round" transform="translate(273.59039253782976 350) rotate(0 5.5 24)"><path d="M0 0 C0 0, 0 0, 0 0 M0 0 C0 0, 0 0, 0 0 M-0.11 6.28 C1.47 4.33, 3.7 1.69, 5.48 0.79 M-0.45 6.01 C1.53 4.34, 2.91 2.96, 5.06 0.31 M-1.43 12.23 C3.68 8.55, 5.51 3.66, 11.66 0.84 M-0.23 12.07 C3.19 8.23, 5.49 5.4, 10.62 -0.05 M1.73 18.5 C2.46 14.99, 6.41 12.36, 13.07 0.9 M-0.22 18.75 C4.64 12.45, 9.48 8.07, 13.33 1.7 M1.48 24.06 C5.97 16.84, 11.09 13.02, 13.69 8.76 M0.56 24.01 C4.4 20.04, 7.99 15.39, 14.8 8.49 M-1.53 29.42 C4.54 26.36, 6.77 21.93, 13.24 13.67 M-0.76 30.54 C4.95 25.08, 10.89 17.13, 14.03 14.43 M0.21 37.29 C4.07 31.87, 6.76 27.09, 15.08 20.11 M-0.88 37.65 C4.49 30.13, 10.35 23.35, 13.49 20.39 M-1.61 41.28 C2.14 40.05, 7.38 33.4, 15.33 24.8 M0.74 43.36 C3.26 38.84, 6.65 35.74, 13.6 26.21 M-0.83 49.8 C5.64 44.65, 8.25 37.05, 12.55 33.41 M-0.22 47.7 C5.32 43.69, 9.03 39.56, 13.96 32.84 M5.41 48.75 C7.29 45.53, 8.98 44.4, 15.3 37.99 M5.07 48.83 C8.61 45.38, 10.19 43.53, 13.43 38.81" stroke="#868e96" stroke-width="0.5" fill="none"></path><path d="M0.63 -0.85 C3.69 -0.65, 8.24 -0.16, 10.63 -0.99 M-0.51 0.49 C3.44 -0.33, 7.91 0.27, 11.39 0.44 M10.39 1.22 C9.44 18.85, 9.19 34.06, 11.81 47.78 M11.3 0.05 C10.9 16.68, 11.92 33.97, 10.09 48.92 M10.69 48.27 C9.32 47.4, 5.75 47.73, 0.32 48.78 M10.64 48.42 C7.68 48.59, 3.99 48.37, 0.05 48.29 M0.53 49.95 C0.04 35.76, 1.9 24.97, 1.34 0.9 M-0.79 48.94 C-1.07 37.38, -0.7 28.94, -0.89 0.82" stroke="#000000" stroke-width="1" fill="none"></path></g><g stroke-linecap="round" transform="translate(222.59039253782976 350) rotate(0 5.5 24)"><path d="M0 0 C0 0, 0 0, 0 0 M0 0 C0 0, 0 0, 0 0 M-0.6 6.02 C2.15 4.17, 2.87 2.87, 4.88 -0.28 M-0.35 6.52 C1.47 4.22, 3.79 1.61, 4.79 0.61 M0 12.65 C2.74 7.89, 7.38 5.56, 10.92 -0.08 M-0.24 12.5 C2.03 8.87, 4.72 6.4, 10.48 -0.3 M0.41 16.59 C4.47 13.46, 4.48 12.33, 14.75 4 M-0.85 18.13 C5.61 11.93, 10.8 5.78, 12.96 3 M0.85 24.69 C4.26 18.49, 7.99 15.93, 14.91 6.42 M-0.25 23.8 C6.05 18.49, 10.72 11.17, 13.85 8.53 M1.22 29.15 C6.62 25.69, 12.1 19.48, 14.87 14.82 M0.99 30.74 C5.92 24.91, 9.48 20.27, 13.9 15.3 M0.95 35.29 C6.52 29.84, 7.88 25.11, 14.87 19.24 M-0.04 37.22 C5.89 31.76, 9.71 24.37, 12.89 21.62 M0.62 42.31 C5.05 37.05, 9.85 34.49, 12.94 25.02 M0.5 42.71 C3.11 38.36, 6.96 34.78, 14.03 27.28 M0.31 47.21 C3.23 43.79, 8.55 37.48, 14.56 33.42 M1.09 47.19 C4.4 43.97, 8.3 38.7, 13.22 33.71 M5.65 47.93 C8.64 45.66, 10.43 41.57, 13.27 38.69 M4.93 49.13 C8.14 45.38, 10.76 42.65, 14.53 38.53" stroke="#868e96" stroke-width="0.5" fill="none"></path><path d="M0.21 -0.64 C3.39 -0.74, 7.18 0.37, 12.06 0.55 M0.23 0.27 C4.07 -0.19, 8.05 -0.22, 10.98 0.08 M12.82 0.78 C9.47 13.09, 9.1 30.81, 9.36 47.39 M11.62 0.7 C10.58 12.94, 12.03 23.02, 11.22 47.12 M11.22 48.91 C6.72 48.14, 2.08 46.99, -0.22 47.78 M11.43 47.9 C6.85 48.28, 3.83 47.63, -0.32 47.71 M0.3 48.7 C-1.32 32.89, -2.23 21.99, -1.77 -0.02 M-0.77 47.18 C0.82 30.05, 1.21 12.91, -0.26 0.41" stroke="#000000" stroke-width="1" fill="none"></path></g><g stroke-linecap="round" transform="translate(288.59039253782976 350) rotate(0 5.5 24)"><path d="M0 0 C0 0, 0 0, 0 0 M0 0 C0 0, 0 0, 0 0 M-0.37 6 C1.27 4.75, 2.22 4.11, 5.42 0.36 M-0.65 6.58 C0.8 4.9, 2.55 3.48, 4.94 0.42 M0.32 12.23 C3.32 7.55, 5.12 6.57, 11.5 -0.76 M0.17 12.42 C2.51 8.51, 5.87 4.91, 10.62 -0.49 M-0.07 17.55 C3.25 14.63, 7.41 10.94, 11.96 3.56 M0.18 18.28 C2.48 14.81, 6.7 11.08, 12.76 2.86 M0.25 25.35 C2.93 20.43, 9.02 12.75, 14.57 7.97 M0.19 24.22 C4.49 19.53, 8.12 16.21, 14.3 8.37 M-1.05 30.63 C4.36 24.62, 8.4 22.01, 12.82 16.51 M0.07 29.86 C3.83 27.04, 5.12 23.93, 13.59 14.25 M0.15 37.48 C1.92 33.04, 4.31 31.43, 12.6 22.98 M0.52 36.13 C3.29 32, 6.8 27.73, 12.88 20.66 M-1.1 41.03 C7.09 36.7, 9.88 31.93, 12.04 24.82 M0.98 42.77 C3.68 38.67, 7.82 33.05, 13.45 27.28 M2.17 48.58 C6.75 41.62, 8.88 37.28, 13.99 33.02 M0.07 49.03 C4.4 44.53, 8.59 39.75, 13.43 32.74 M5.75 47.98 C7.42 44.79, 11.17 44.59, 13.32 38.56 M5.83 49.06 C6.94 46.26, 9.64 44, 14.15 38.62" stroke="#868e96" stroke-width="0.5" fill="none"></path><path d="M-0.85 -0.17 C3.44 0.44, 8.07 -0.43, 10.01 0.56 M0.49 -0.42 C4.1 0.29, 9.1 0.49, 11.44 0.38 M12.22 -1.18 C11.78 9.22, 9.29 22.13, 10.78 48.99 M11.05 -0.45 C11.06 18.53, 11.58 35.04, 11.92 47.14 M11.27 48.67 C7.23 47.43, 4.32 48.29, 0.78 48.3 M11.42 48.28 C8.85 48.12, 5.94 47.98, 0.29 47.68 M1.95 48 C-1.09 35.86, -0.24 21.33, 0.9 -1.89 M0.94 47.26 C-1.05 29.9, 0.38 11.65, 0.82 -0.89" stroke="#000000" stroke-width="1" fill="none"></path></g><g stroke-linecap="round" transform="translate(309.59039253782976 350) rotate(0 5.5 24)"><path d="M0 0 C0 0, 0 0, 0 0 M0 0 C0 0, 0 0, 0 0 M0.33 6.2 C1.61 4.64, 1.81 3.59, 5.64 1.14 M-0.12 6.53 C1.62 3.96, 3.5 1.97, 4.91 0.27 M-0.69 12.76 C1.74 11.2, 5.06 7.35, 12.19 -0.53 M0.28 11.94 C3.51 8.01, 8.24 2.22, 11.03 0.35 M0.88 19.23 C5.63 13.74, 7.43 8.96, 15.01 2.7 M0.76 18.41 C2.47 15.39, 7.49 10.09, 14.2 2.39 M0.14 22.7 C2.19 20.34, 6.23 14.84, 15.76 7.81 M1.21 23.22 C2.96 19.87, 5.99 16.16, 14.82 8.89 M-0.26 31.47 C6.64 25.88, 9.54 19.6, 15.15 16.39 M0.25 30.96 C5.28 23.92, 9.37 19.15, 13.83 15.5 M0.05 36.9 C6.71 31.55, 9.82 23.33, 12.38 22.56 M-1.02 36.34 C4.77 32.06, 9.02 24.91, 14.03 21.98 M0.59 42.27 C2.57 39.68, 7.99 37.02, 14.4 25.7 M0.28 42.31 C5.05 35.7, 10.76 30.33, 14.65 26.61 M2.36 46.65 C6.17 42.8, 7.69 39.78, 13.63 31.14 M0.66 47.33 C4.24 44.9, 6.4 41.11, 14.63 32.27 M5.85 47.99 C7.5 45.43, 11.75 43.81, 12.81 39.02 M5.85 47.95 C8.59 45.11, 11.67 40.74, 14.23 38.87" stroke="#868e96" stroke-width="0.5" fill="none"></path><path d="M1.06 -0.7 C2 -0.64, 6.94 1, 10.51 0.8 M0.3 -0.35 C2.13 0.44, 5.57 -0.54, 11.25 -0.27 M12.55 -0.73 C10.78 16.33, 8.75 28.3, 9.44 49.82 M10.94 0.35 C10.08 14.71, 10.33 32.14, 11.81 48.53 M11.09 48.68 C9.14 47.24, 5.41 47.6, 0.47 48.58 M10.46 48.33 C7.71 48.26, 5.55 47.91, 0.05 47.75 M0.88 47.93 C1.31 34.73, 1.65 19.08, -0.12 -0.4 M-0.88 48.92 C-0.34 31.48, 0.75 12.7, 0.56 0.16" stroke="#000000" stroke-width="1" fill="none"></path></g><g stroke-linecap="round" transform="translate(327.59039253782976 350) rotate(0 5.5 24)"><path d="M0 0 C0 0, 0 0, 0 0 M0 0 C0 0, 0 0, 0 0 M-0.46 6.96 C1.1 3.95, 3.17 3.3, 5.77 1.03 M-0.13 6.26 C1.1 4.39, 2.93 2.86, 4.9 -0.02 M0.86 11.52 C5.22 8.79, 7.29 5.75, 10.13 1.31 M0.03 11.42 C4.26 8.05, 6.63 4.32, 11.01 -0.19 M0.66 20.31 C3.61 13.6, 7.25 10.57, 13.76 1.63 M-0.16 17.59 C5.2 13.98, 8.28 8.78, 13.45 2.17 M-1.11 22.57 C5.81 17.11, 9.57 13.9, 13.62 6.9 M-0.59 23.41 C2.66 19.78, 5.54 18.09, 14.7 8.9 M0.99 31.94 C4.27 26.3, 6.85 24.84, 15.54 15.54 M0.48 31.1 C3.98 24.56, 9.76 18.83, 14.65 15.6 M-0.23 38.37 C4.79 31.3, 6.93 26.35, 15.05 22.19 M-0.79 36.9 C4.12 32.3, 6.14 29.44, 14.47 20.28 M-0.11 41.82 C4.69 39.69, 9.45 34.14, 12.95 28.13 M-0.07 42.37 C4.02 37.42, 9.35 32.22, 13.85 26.93 M-0.98 49.45 C3.36 42.82, 8.52 40.51, 11.72 31.2 M-0.3 49.11 C3.9 44.5, 6.75 41.02, 12.86 33.02 M4.98 47.95 C7.54 47.1, 11.04 42.15, 14.36 39.63 M4.95 48.43 C8.23 45.43, 9.99 42.92, 14.21 39.16" stroke="#868e96" stroke-width="0.5" fill="none"></path><path d="M-0.7 -0.93 C2.72 0.96, 7.8 -0.59, 11.8 -0.73 M-0.35 -0.45 C3.42 0.36, 5.36 0.19, 10.73 0 M10.27 0.04 C13.05 9.82, 10.64 22.05, 12.82 48.5 M11.35 -0.53 C10.23 10.29, 12.05 21.95, 11.53 47.58 M11.68 48.98 C7.61 48.1, 5.34 48.48, 0.58 47.58 M11.33 47.59 C8.89 48.21, 6.24 47.94, -0.25 47.9 M-0.07 49.47 C0.59 33.88, -1.56 16.03, -0.4 1.17 M0.92 47.54 C0.82 35.41, -0.76 22.12, 0.16 0.59" stroke="#000000" stroke-width="1" fill="none"></path></g><g stroke-linecap="round" transform="translate(167.59039253782976 350) rotate(0 5.5 24)"><path d="M0 0 C0 0, 0 0, 0 0 M0 0 C0 0, 0 0, 0 0 M-0.59 6.47 C1.79 4.62, 3.8 1.67, 4.2 -0.03 M-0.37 6.3 C1.61 4.33, 3.4 1.67, 4.61 0.35 M-1.41 12.23 C2.25 6.82, 6.27 4.21, 10.12 0.64 M-0.6 12.77 C1.74 9.57, 3.93 7.33, 10.63 0.14 M-0.96 19.85 C3.36 14.36, 8.36 8.78, 14.77 3.13 M-0.23 18.99 C4.04 13, 10.46 7.29, 13.97 2.66 M1.66 24.23 C3.83 19.59, 11.71 14.09, 15.99 6.43 M1.26 24.14 C4.12 20, 7.4 15.78, 13.43 7.41 M0.56 32.36 C5.27 25.82, 10.38 21.53, 12.57 14.22 M0.94 31.12 C3.29 25.45, 8.82 20.46, 14.37 14.3 M-0.52 37.59 C4.77 30.69, 8.51 25.13, 14.73 20.78 M-0.48 37.42 C2.37 33.66, 5.86 29.63, 12.68 20.45 M-0.19 41.56 C5.12 38.68, 7.37 32.96, 15.75 25.33 M1.05 42.7 C4.37 36.51, 9.1 31.47, 13.87 25.82 M1.68 47.33 C3.61 44.98, 7.11 41.17, 12.32 33.85 M1.43 47.54 C3.45 43.72, 6.82 40.01, 12.96 32.75 M5.07 47.83 C8.7 45.18, 10.83 43.87, 15.02 37.92 M5.01 48.86 C7.95 45.07, 10.36 42.15, 14.57 38.12" stroke="#868e96" stroke-width="0.5" fill="none"></path><path d="M0.09 -0.87 C1.67 -0.89, 5.17 1.04, 11.51 0.96 M-0.01 0.47 C3.98 0.09, 8.44 -0.27, 10.69 -0.01 M9.24 0.44 C11.48 17.17, 11.16 29.51, 9.51 47.42 M10.98 -0.39 C10.66 11.3, 11.27 24.7, 11.47 47.86 M10.13 47.01 C7.82 48.79, 3.48 47.59, -0.94 48.27 M10.64 47.87 C7.58 48.14, 3.77 48.31, 0.45 47.62 M-1.3 49.31 C-0.1 31.63, 1.35 15.55, -0.86 -0.9 M-0.41 47.34 C0.41 33.1, 0.63 18.1, 0.95 -0.79" stroke="#000000" stroke-width="1" fill="none"></path></g><g stroke-linecap="round" transform="translate(342.59039253782976 350) rotate(0 5.5 24)"><path d="M0 0 C0 0, 0 0, 0 0 M0 0 C0 0, 0 0, 0 0 M0.3 6.2 C1.22 4.29, 4.49 2.42, 5.65 0.24 M-0.4 6.32 C1.43 4.34, 3.61 1.72, 4.61 0.47 M-0.39 13.58 C3.02 9.67, 6.1 6.49, 11.98 0.53 M-0.48 12.66 C3.44 7.78, 7.01 4.95, 10.47 -0.12 M1.75 18.14 C3.24 13.56, 8.42 10.14, 12.69 2.96 M-0.98 19.4 C4.71 13.18, 8.83 8.41, 13.23 3.35 M-1.25 24.3 C2.11 19.7, 7.71 17.18, 12.71 6.42 M-0.4 23.45 C2.2 20.18, 6.77 18.1, 14.71 7.45 M1.46 31.66 C3.24 26.63, 9.2 23.2, 14.69 15.99 M0.63 29.49 C4.96 24.33, 10.1 19.68, 14.75 14.59 M1.23 37.79 C2.37 31.8, 5.62 30.3, 14.68 20.11 M-0.24 37.62 C2.13 32.84, 6.22 31.16, 12.77 20.81 M-0.56 43.28 C6.25 39, 9.64 31.15, 15.37 27.62 M-0.01 41.57 C4.29 37.82, 8.36 33.86, 14.17 26.16 M1.82 47.67 C2.38 45.69, 7.28 38.38, 11.78 32.44 M1.48 48.04 C5.16 42.6, 9.98 37.71, 13.61 32.67 M4.94 48.32 C9.18 46.72, 9.32 43.04, 14.97 38.62 M5.42 48.82 C8.56 44.4, 12.19 41.24, 14.49 38.88" stroke="#868e96" stroke-width="0.5" fill="none"></path><path d="M-0.93 -0.73 C3.47 0.98, 4.31 0.87, 10.27 -0.38 M-0.45 0.5 C4.26 -0.41, 7.94 -0.2, 11 -0.3 M11.04 1.95 C9.38 15, 9.81 32.75, 11.5 46.4 M10.47 -0.9 C10.69 16.54, 11.78 31.76, 10.58 47.38 M11.98 47.22 C7.58 47.64, 4.46 48.65, -0.42 46.99 M10.59 48.18 C7.22 47.89, 2.85 47.81, -0.1 48.17 M1.47 48.23 C1.6 35.28, -0.33 25.99, 1.17 -0.49 M-0.46 48.69 C1.05 33.98, 0.98 21.89, 0.59 0.17" stroke="#000000" stroke-width="1" fill="none"></path></g><g stroke-linecap="round" transform="translate(240.59039253782976 350) rotate(0 5.5 24)"><path d="M0 0 C0 0, 0 0, 0 0 M0 0 C0 0, 0 0, 0 0 M-0.64 7.2 C0.9 4.57, 2.98 2.77, 4.35 1.07 M-0.14 6.09 C1.42 4.64, 2.67 2.74, 5.24 0.4 M0.74 11.46 C3.31 8.71, 8.34 4.02, 10.58 -0.91 M0.59 11.42 C3.6 7.34, 7.79 3.45, 10.36 -0.75 M-1.98 20.22 C3.03 11.74, 10.08 8.38, 15.06 4.19 M-0.43 19.05 C4.49 13.25, 9.45 6.15, 14.06 2.48 M0.87 24.17 C4.05 18.34, 10.89 13.84, 12.23 10.07 M-0.02 24.33 C3.84 20.27, 5.68 17.17, 14.34 8.95 M-1.32 32.02 C5.62 27.12, 9.8 21.11, 13.97 15.67 M0.27 31.45 C3.35 26.2, 7.63 22.78, 14.45 15.08 M-1.84 38.75 C0.99 32.02, 4.56 31.63, 11.73 22.67 M0.09 37.62 C3.58 32.82, 5.14 29.54, 14.11 20.84 M-0.07 43.42 C2.17 40.83, 7.1 34.55, 12.27 25.42 M0.32 42.38 C5.22 36.62, 10.87 30.02, 14.53 27.21 M-0.42 46.22 C5.45 42.38, 8.42 40.02, 14 32.83 M-0.44 48.28 C4.84 43.56, 8.06 38.12, 14.3 33.62 M4.92 48.58 C8.31 44.84, 9.87 42.74, 14.02 38.69 M6.12 48.54 C7.39 46.31, 9.65 44.32, 13.86 38.16" stroke="#868e96" stroke-width="0.5" fill="none"></path><path d="M-0.64 -0.66 C2.54 -0.94, 6.87 1.04, 11.55 0.64 M0.27 0.13 C3.7 0.13, 7.5 -0.06, 11.08 0.05 M11.78 -1.45 C9.07 11.81, 11.91 25.62, 10.39 46.98 M11.7 -0.69 C11.75 17.92, 9.86 34.55, 10.12 48.71 M11.91 47.81 C6.98 47.27, 1.62 47.8, -0.22 48.34 M10.9 47.49 C8.63 48.2, 5.35 47.76, -0.29 47.94 M0.7 47.09 C-0.93 27.69, 2.02 9.25, -0.02 1.41 M-0.82 48.49 C-0.22 37.72, 0.42 25.4, 0.41 0.48" stroke="#000000" stroke-width="1" fill="none"></path></g><g stroke-linecap="round" transform="translate(13.590392537829757 136) rotate(0 75.5 24)"><path d="M0 0 C0 0, 0 0, 0 0 M0 0 C0 0, 0 0, 0 0 M0.44 6.36 C0.84 4.71, 2.48 2.36, 5.54 -0.13 M0.02 6.53 C1.26 4.38, 3.23 2.76, 4.7 0.61 M0.36 11.98 C3.12 10.52, 6.03 7.43, 12.2 -0.37 M0.46 12.69 C4.34 6.63, 8.2 3.17, 10.56 -0.13 M0.28 16.66 C4.43 11.33, 10.81 5.96, 17.49 -0.54 M0.82 19.01 C4.03 14.94, 7.15 11.03, 15.85 0.77 M-0.19 23.56 C8.87 14.84, 16.91 6.88, 21.68 1.63 M0.13 24.46 C8.35 15.46, 14.69 7.33, 21.53 0.33 M1.14 28.8 C9.49 20.77, 17.95 9.28, 26.54 -1.62 M0.86 29.88 C9.84 18.72, 19.13 7.78, 26.74 1.19 M0.79 35.76 C9.96 25.05, 21.36 11.22, 33.88 1.16 M-0.68 37.24 C6.87 28.1, 12.31 21.29, 31.56 -0.73 M2.05 41.01 C9.04 35.51, 14.93 23.66, 35 2.24 M-0.42 43.3 C9.54 32.54, 17.47 21.87, 37.49 0.95 M0.06 47.39 C15.2 33.86, 26.77 16.5, 42.38 0.26 M-0.02 48.26 C9.76 36.35, 21.22 24.38, 42.56 0.23 M6.71 48.12 C19.94 27.86, 39.59 12.25, 46.76 1.93 M5.51 49.42 C16.86 36.62, 26.85 23.67, 47.89 -0.04 M11.29 46.28 C26.06 33.47, 36.86 16.04, 52.8 -0.4 M11.82 48.24 C19.99 37.85, 30.29 26.24, 52.72 -1.02 M17.97 49.56 C32.32 28.89, 48.41 9.11, 56.16 0.92 M16.22 48.65 C30.3 33.12, 43.77 16.59, 59.03 -0.64 M20.23 49.95 C39.08 31.85, 54.85 12.35, 63.19 -1.58 M21.46 48.28 C33.63 33.01, 47.02 19.63, 64.53 -0.47 M25.91 49.35 C38.58 37.22, 50.64 22.24, 67.99 -0.79 M26.32 47.65 C41.66 31.74, 55.07 16.49, 69.28 -0.48 M32.9 49.18 C43.16 35.65, 55.48 18.31, 76.06 -1.47 M32.65 47.35 C43.09 35.77, 52.43 25.64, 74.74 0.1 M38.25 48.04 C50.87 33.76, 66.01 17.31, 77.45 1.41 M37.95 49.25 C53.77 29.58, 69.74 12.34, 80.3 0 M41.78 47.3 C54.46 35.36, 60.73 27.94, 86.33 0.28 M42.42 47.65 C53.31 35.3, 64.64 22.08, 84.39 -0.89 M47.2 48.76 C59.98 37.15, 70.66 24.18, 90.19 0.64 M47.52 48.51 C56.18 38.69, 64.6 27.29, 91.01 -0.39 M53.76 48.21 C60.33 39.83, 70.52 27.93, 97.38 -1.39 M53.06 48.61 C62.77 38.54, 70.61 28.91, 94.8 -0.79 M57.36 49.17 C68.71 37.61, 80.92 24.77, 102.31 -1.38 M57.73 48.73 C76.59 28.66, 92.13 9.35, 101.63 0.35 M65.52 49.12 C75.08 35.11, 87.11 22.61, 105.01 -1 M63.52 49.61 C74.15 34.17, 86.17 21.13, 105.59 -0.7 M69.79 49.51 C79.24 38.28, 87.1 25.08, 112.32 1.62 M69.56 47.38 C82.92 32.16, 96.54 17.54, 111.65 -0.55 M74.15 49.54 C86.45 37.78, 96.29 25.95, 116.81 2.26 M73.97 49.01 C91.77 29.55, 107.44 9.65, 115.98 1.19 M77.99 48.59 C89.98 35.74, 103.08 20.34, 121.21 0.47 M80.26 48.2 C96.57 28.58, 113.48 9.19, 121.85 -0.63 M85.22 47.81 C96.12 35.67, 110.38 20.94, 126.78 1.5 M85.91 48.63 C94.57 37.74, 103.54 28.29, 127.44 0.71 M91.89 47.77 C106.14 30.47, 120.58 15.14, 132.35 -1.42 M91.39 49.11 C100.01 35.92, 109.95 24.86, 132.28 -0.23 M95.36 50.07 C106.84 36.65, 120.9 21.74, 139.38 -1.36 M94.77 48.77 C107.33 35.52, 118.39 21.87, 137.78 0.13 M101.87 46.98 C115.78 30.87, 133.09 15.48, 143.6 -0.12 M100.76 48.27 C114.7 33.7, 127.47 19.93, 142.3 -0.45 M107.68 47.04 C121.53 31.41, 139.25 12.06, 148.17 1.43 M105.27 48.95 C118.11 33.11, 131.54 19.89, 147.71 1.2 M110.72 48.7 C127.65 32.14, 141.75 14.53, 153.92 2.43 M112.48 48.05 C122.88 36.46, 132.34 23.77, 153.19 2.32 M115.7 49.98 C129.1 33.57, 142.7 17.45, 152.58 7.71 M117.39 47.89 C127.03 37.88, 135.37 26.39, 151.7 7.44 M121.7 50 C132.39 36.32, 142.73 27.78, 154.16 12.34 M122.92 49.04 C128.98 41.5, 134.68 34.31, 152.99 12.47 M127.37 46.72 C134.05 39.89, 141.01 31.45, 153.66 19.33 M128.43 47.54 C135.16 39.58, 143.06 30.99, 151.65 20 M134.49 46.47 C139.12 41.24, 146.97 32.82, 154.63 24.72 M132.77 48.05 C138.03 42.64, 143.24 37.62, 152.07 25.96 M137.11 49.66 C141.04 41.59, 147.13 38.25, 154.24 31.2 M138.92 49.08 C142.96 44.29, 145.29 38.78, 153.07 32.77 M144.68 48.23 C145.86 43.74, 151.03 41.02, 150.97 38.42 M143.23 48.1 C146.02 44.96, 149.05 41.22, 152.24 37.65 M149.01 48.23 C149.84 46.44, 150.88 45.67, 152.93 44.32 M148.7 48.57 C149.87 46.78, 151.19 45.22, 152.39 44.05" stroke="#868e96" stroke-width="0.5" fill="none"></path><path d="M1.49 1.98 C46.63 0.65, 92.81 -1.63, 151.04 -0.76 M-0.21 -0.35 C42.06 0.21, 85.12 -0.69, 151.19 0.75 M151.82 0.16 C151.56 13.55, 152.07 31.55, 151.58 47.38 M151.55 0.85 C151.87 18.01, 152.47 34.72, 150.65 48.17 M152.88 46.85 C119.69 47.44, 88.58 46.72, -0.14 48.06 M150.07 47.73 C103.2 47.39, 53.26 47.93, 0.08 47.07 M-0.41 47.6 C-1.57 37.44, 0.55 22.04, -0.18 -0.73 M-0.62 48.93 C-0.29 33.34, -0.27 19.3, 0.41 -0.05" stroke="#000000" stroke-width="1" fill="none"></path></g><g stroke-linecap="round" transform="translate(162.59039253782976 192) rotate(0 135.5 24)"><path d="M0 0 C0 0, 0 0, 0 0 M0 0 C0 0, 0 0, 0 0 M-0.3 6.06 C0.88 4.83, 1.38 4.1, 4.5 0.5 M-0.13 6.22 C0.95 4.97, 2.56 3.06, 5.23 0.12 M0.08 12.58 C5.31 8.58, 8.93 4.82, 10.3 1.43 M0.78 12.06 C1.92 8.93, 5.65 6.26, 10.53 0.31 M-1.91 17.53 C3.13 13.67, 8.15 10.69, 14.75 -1.62 M0.44 19.29 C3.74 14.83, 7.18 10.05, 16.06 1.18 M-0.25 24.47 C5.49 18.49, 12.03 12.6, 22.96 0.95 M0.65 24.84 C6.78 16.2, 13.77 9.09, 21.65 0.72 M-1.67 30.22 C11.41 17.48, 21.02 8.44, 24.34 1.56 M-0.6 30.53 C5.02 23.37, 10.87 17.36, 27.14 0.57 M-1.37 36.71 C11.17 24.63, 20.57 13.18, 33.16 -1.86 M0.11 37.33 C9.75 23.48, 21.74 11.47, 31.26 -1.04 M-1.37 43.77 C12.27 29.8, 19.51 16.42, 38.86 -1.1 M0.92 43.38 C10.91 30.39, 20.99 18.17, 37.57 0.64 M-0.24 49.03 C18.7 27.95, 33.8 11.04, 42.92 -1.29 M0.63 47.36 C14.36 32.91, 27.98 16.49, 42.88 0.69 M5.12 46.72 C14.82 36.83, 29.19 21.11, 49.22 -0.54 M6.42 48.75 C17.72 34.54, 28.9 22.49, 47.24 0.36 M9.31 49.93 C24.8 32.38, 35.69 17.41, 52.92 -1.57 M11.28 47.47 C26.17 31.56, 39.82 14.89, 52.31 0.8 M17.22 48.11 C29.47 31.38, 42.58 14.62, 58.87 0.71 M16.31 48.88 C28.64 34.65, 40.01 21.41, 57.31 0.98 M23.65 49.48 C36.81 34.82, 48.54 18.18, 62.41 -0.48 M21.98 47.61 C30.51 37.58, 40.99 25.94, 63.52 -0.57 M27.67 49.43 C42.89 33.8, 55.25 14.21, 67.83 0.61 M25.97 49.35 C34.57 39.1, 43.88 28.57, 68.14 0.06 M33.54 46.86 C49.04 29.68, 60.7 15.2, 73.18 -1.37 M31.71 48.7 C46.35 31.14, 62.4 15.14, 74.75 0 M37.03 48.59 C53.87 32.09, 68.6 10.63, 80.68 1.52 M38.24 48.96 C46.57 37.5, 57.35 25.76, 79.28 -0.59 M42.33 49.69 C53.14 33.21, 68.43 22.81, 85.6 -1.15 M42.68 47.94 C58.87 30.13, 74.23 10.36, 84.42 -0.75 M48.41 49.92 C63.34 33.75, 76.84 15.86, 90.58 -1.76 M48.17 47.79 C60.89 33.26, 72.08 20.71, 89.55 -0.86 M53.91 46.03 C68.4 32.73, 79.33 20.02, 94.59 -2.3 M54.3 48.8 C67.81 32.51, 81.75 15.47, 95.2 -0.85 M59.48 48.2 C73.88 34.19, 87 17.97, 99.23 2.03 M59.05 49.22 C68.27 36.9, 78.22 26.74, 100.95 -0.36 M64.07 49.13 C75.77 34.76, 88.97 17.09, 105.64 -0.84 M64.56 47.8 C78.27 30.09, 94.43 11.93, 105.94 -1 M70.49 48.65 C85.12 29.81, 97.81 15.72, 112.89 0.56 M68.37 47.89 C79 36.12, 90.22 25.47, 110.72 -0.44 M75.15 50.41 C90.5 32.58, 105.75 15.22, 118.16 2.36 M74.62 49.48 C87.81 33.09, 100.61 17.66, 117.09 0.09 M80.24 46.92 C92.83 34.79, 102.92 19.48, 122.41 1.96 M79.85 47.75 C88.42 37.57, 97.16 27.65, 121.31 -0.14 M84.09 47.99 C100.62 33.13, 114.56 14.52, 128.06 -1.35 M84.91 48.91 C94.14 37.22, 104.82 26.4, 127.28 0.76 M90.08 49.08 C98.36 38.42, 108.64 26.8, 131.18 -1.22 M91.42 48 C106.35 28.53, 123.4 9.79, 132.38 -0.23 M97.01 47.69 C106.78 38.96, 115.04 28.55, 135.87 0.06 M95.71 48.7 C112.38 29.61, 128.62 12.4, 137.36 0.88 M99.96 47.69 C112.57 36.64, 125.93 22.03, 143.15 0.01 M101.24 49.13 C115.95 32.61, 131.4 14.16, 142.82 0.8 M104.64 47.75 C121.5 33.08, 134.61 16.74, 149.32 0.3 M106.55 47.72 C116.63 35.79, 129.35 22.3, 149.1 0.85 M112.35 49.68 C127.1 32.65, 140.84 16.2, 154.85 -0.9 M111.69 48.93 C127.62 29.86, 142.47 13.32, 154.74 0.73 M118.24 46.85 C126.58 36.53, 135.29 28.12, 158.72 -0.49 M116.15 49.15 C126.77 36.55, 135.92 25.03, 158.45 0.36 M124.3 48.48 C131.69 37.77, 144.24 26.23, 163.35 -2.1 M123.34 48.45 C134.45 34.66, 145.76 21.95, 163.48 -0.35 M125.65 48.11 C139.15 34.05, 150.95 21.74, 168.93 0.3 M126.47 48.44 C137.25 37.06, 147.19 24.84, 169.6 0.36 M131.45 47.91 C145.43 35.3, 156.27 21.82, 174.32 -1.26 M133.02 48.03 C142.08 38.01, 151.78 26.53, 175.56 -0.1 M139.26 47.09 C151.13 31.6, 167.97 15.78, 179.39 -0.32 M138.67 49.31 C148.83 35.06, 158.54 24.18, 180.96 1.11 M143.95 46.25 C156.77 32.83, 172.35 14.02, 185.94 0.34 M143.75 47.28 C155.56 34.57, 166.39 21.61, 184.76 0.12 M148.03 47.78 C158.11 34.33, 171.32 24.56, 192.06 1.12 M149.15 47.77 C161.44 32.48, 174.66 17.36, 191.15 0.13 M154.55 48.21 C167.68 31.56, 184.52 15.66, 197 -2.1 M154.78 47.12 C165.28 36.27, 176.43 23.2, 196.05 -0.77 M157.47 46.62 C171.51 35.46, 177.49 24.09, 199.52 -1.48 M159.5 48.11 C171.02 36.31, 182.06 23.05, 201 0.22 M166.55 48.96 C172.3 36.79, 179.75 29.41, 206.82 -0.96 M165.57 47.72 C176.94 33.05, 188.78 20.44, 207.64 0.42 M169.68 48.48 C185.03 29.88, 203.84 10.66, 212.88 0.22 M170.56 48.92 C185.58 30.45, 200.27 13.13, 211.59 -0.52 M173.81 46.07 C190.02 32.15, 206.15 13.06, 219.31 -0.19 M175.81 48.54 C185.46 37.31, 195.15 25.05, 216.95 -0.82 M179.3 46.66 C197.51 29.54, 210.91 9.86, 221.8 1 M180.37 49.04 C195.18 32.01, 207.89 17.31, 222.18 -0.73 M184.11 48.33 C196.44 35.91, 209.33 19.27, 226.92 0.71 M184.75 49.08 C198.68 33.43, 211.13 19.71, 228.61 -0.74 M189.53 46.92 C205.37 28.76, 220.58 11.31, 234.53 -1.94 M192.19 47.6 C202.02 35.81, 212.62 23.37, 232.28 0.24 M197.75 48.69 C208.03 34.22, 219.39 20.52, 238.01 -0.57 M195.82 47.87 C211.83 31.42, 228.5 11.7, 237.82 -0.54 M200.15 47.42 C215.48 36.38, 227.7 21.73, 241.88 -0.93 M202.5 48.03 C215.54 31.58, 231.57 15.59, 243.6 0.34 M207.62 48.81 C222.19 32.19, 234.74 14.45, 247.48 -0.18 M206.71 48.96 C220.88 32.15, 234.97 16.32, 248.98 0.59 M211.49 46.8 C225.99 32.48, 237.7 18.37, 253.2 -1.89 M213.01 48.02 C227.67 30.25, 243.75 12.45, 254.08 0.76 M217.84 48.02 C233.32 32.63, 244.82 14.98, 260.82 0.45 M217.98 48.94 C230.19 31.48, 244.57 15.9, 259.72 0.02 M224.44 48.11 C238.47 30.15, 257.96 10.09, 264.42 -0.29 M222.64 47.55 C238.1 32.16, 250.5 15.81, 265.87 0.01 M227.08 48.11 C241.6 32.58, 256.1 18.22, 268.73 -0.44 M228.41 47.67 C238.36 34.65, 251.42 22.06, 269.56 0.63 M232.47 46.84 C249.17 32.2, 264.33 14.9, 272.06 1.09 M233.52 48.88 C245.2 35.96, 255.46 22.1, 273.37 2.12 M240.59 49.28 C246.79 39.85, 251.89 30.5, 275.28 8.14 M238.98 48.33 C245.52 39.43, 252.05 31.42, 274 7.88 M245.59 46.93 C253.25 38.78, 258.43 28, 274.63 15.2 M245.01 48.55 C253.29 38.12, 261.14 28.71, 274.62 13.7 M250.16 50.2 C254.96 39.15, 262.45 32.22, 272.23 20.79 M248.93 49.32 C255.41 42.01, 262.15 34.52, 272.95 20.7 M254.38 48.75 C259.78 40.37, 268.11 33, 271.59 28.83 M255.68 47.39 C260.11 42.4, 264.34 37.7, 274.3 26.03 M258.15 47.94 C264.34 42.09, 269.77 37.85, 275.25 33.27 M259.69 48.37 C265.24 43.47, 268.52 36.86, 272.83 33.03 M265.85 48.68 C268.48 46.61, 268.86 43.83, 274.07 38.84 M265.45 48.32 C268.17 45.63, 269.81 42.97, 273.05 39.14 M270.34 48.82 C271.49 47.98, 272.29 46.85, 273.75 44.88 M270.69 48.43 C271.33 47.54, 272.6 46.23, 273.94 44.71" stroke="#868e96" stroke-width="0.5" fill="none"></path><path d="M1.55 -0.19 C66.63 -2.31, 130.5 -1.54, 270.41 -0.25 M-0.27 -0.66 C64.46 -0.09, 127.82 0.59, 271.59 0.13 M271.16 0.95 C269.63 12.02, 272.44 21.72, 270.38 49.29 M271.85 0.39 C271.6 20.16, 270.81 38, 271.17 47.02 M270.1 47.32 C207.8 48.79, 143.8 49.89, 0.05 48.32 M270.79 48.47 C176.83 45.28, 83.2 46.1, -0.73 47.61 M-0.4 46.19 C1.64 36.3, -1.74 23.79, -0.73 0.02 M0.93 47.78 C0.08 32.72, 0.5 18.24, -0.05 -0.5" stroke="#000000" stroke-width="1" fill="none"></path></g><g stroke-linecap="round"><g transform="translate(9.802773215854359 21.58315892151552) rotate(0 0.6959689390496351 205.20067739375867)"><path d="M1.19 -0.15 C1.23 68.11, 1.05 341.9, 0.75 410.43 M0.35 -1.27 C0.26 67.06, 0.54 342.74, 0.2 411.67" stroke="#000000" stroke-width="1" fill="none"></path></g></g><g stroke-linecap="round" transform="translate(14.590392537829757 49) rotate(0 181 24)"><path d="M0 0 C0 0, 0 0, 0 0 M0 0 C0 0, 0 0, 0 0 M-1.02 6.95 C0.6 5, 2.04 3.35, 5.55 0.63 M-0.06 6.11 C1.34 4.6, 2.69 3.51, 5.04 0.35 M1.36 13.61 C3.2 9.41, 5.99 3.33, 11.29 1.27 M0.68 11.97 C3.32 8.77, 6.31 5.48, 10.79 -0.75 M-0.03 20.31 C3.08 11.87, 6.63 7.41, 17.51 1.47 M-0.35 18.67 C6.37 12.2, 11.46 5.3, 15.39 0.07 M1.87 24.5 C8.65 17.34, 13.99 7.59, 20.99 0.69 M0.36 24.35 C8.6 15.86, 16.76 5.19, 21.83 -0.91 M1.49 30.78 C5.4 23.31, 13.28 14.75, 27.97 -0.91 M-0.57 30.98 C9.1 21.59, 16.67 11.66, 26.77 -0.27 M-1.77 38.87 C10.35 24.23, 19.27 16.35, 31.05 0.63 M0.03 36.55 C10.49 23.46, 22.05 10.76, 32.85 -0.86 M-1.61 40.64 C15.14 25.93, 26.43 12.41, 35.76 1.82 M-0.79 43.13 C15.04 26.5, 29.37 9.66, 36.64 -0.13 M1.49 48.02 C14.87 30.8, 29.49 13.62, 41.42 0.05 M-0.21 48.2 C10.36 38.18, 18.95 27.23, 43.12 -0.34 M6.47 47.78 C16.51 37.24, 23.09 28.49, 47.49 2.02 M6.08 48.9 C18.38 33.41, 32.32 18.11, 47.57 -0.7 M9.52 47.78 C27.16 28.01, 44.5 9.78, 54.47 0.06 M11.35 47.7 C19.82 37.81, 30.75 24.87, 54.06 0.36 M14.86 46.52 C28.85 35.64, 39.7 23.09, 58.28 0.52 M16.1 49.38 C29.24 32.82, 44.39 14.81, 57.35 1.12 M22.37 47.51 C35.51 29.73, 51.15 13.6, 63.12 0.16 M21.3 48.84 C32.55 35.22, 43.85 23.38, 63.34 0.24 M25.97 47.68 C40.13 31.65, 53.98 15.66, 67.85 -1.46 M26.3 48.97 C42.92 29.22, 60.48 9.87, 69.01 0.71 M30.49 49.71 C40.94 35.57, 53.11 23.8, 74.87 -1.67 M33.28 48.38 C48.42 30.84, 64.06 13.95, 74.83 -0.43 M38.05 46.47 C51.3 34.57, 61.8 18.73, 80.48 1.77 M37.17 49.32 C52.57 30.22, 67.31 13.33, 78.76 -0.24 M44.91 49.32 C60.14 28.99, 77.39 12.62, 83.77 -1.03 M42.14 47.37 C54.69 33.29, 67.93 18.91, 84.62 -0.09 M47.89 48.55 C64.26 28.01, 79.5 13.59, 88.99 0.34 M47.44 49.36 C57.29 36.21, 67.94 24.84, 90.06 0.2 M53.21 49.7 C60.72 36.34, 70.89 28.37, 94.43 0.92 M53.95 47.12 C69.1 28.97, 85.91 11.02, 95.01 0.1 M58.87 50 C69.25 35.84, 81.73 18.86, 98.78 0.8 M58.04 49.32 C75.49 29.4, 91.49 11, 101.59 0.26 M62.88 47.42 C76.92 32.17, 92.62 18.38, 106.02 1.45 M63.37 48 C72.59 38.04, 82.34 28.94, 106.54 0.25 M68.9 49.35 C83.84 33.91, 94.32 17.98, 111.8 -1.85 M70.12 48.68 C79.73 35.64, 91.65 23.15, 111.22 0.45 M75.93 49.22 C92.11 31.81, 106.84 12.9, 115.64 1.04 M74.21 48.38 C90.83 30.13, 105.94 12.74, 115.3 0.53 M78.49 47.57 C89.94 39, 97.4 24.37, 122.58 -0.19 M79.06 48.21 C90.04 36.4, 101.52 24.47, 122.07 -0.43 M84.99 48.52 C97.09 33.72, 105.79 23.18, 128.89 0.32 M85.55 49.18 C99.18 33.19, 111.71 17.52, 127.57 0.1 M90.67 48.05 C103.8 30.37, 121.36 14.76, 134.21 1.67 M90.44 47.98 C102.28 34.97, 113.27 21.71, 132.46 0.68 M95.89 50.45 C104.16 35.82, 118.11 22.52, 135.98 0.64 M96.33 48.85 C108.08 34.65, 120.96 19.45, 137.87 -0.31 M103.07 48.64 C112.65 34.72, 125.07 20.04, 142.31 0.02 M102.08 47.33 C117.32 29.79, 134.4 9.57, 143.93 -0.86 M107.02 48.58 C117.85 35.98, 126.98 24.18, 146.34 1.02 M106.74 48.12 C116.49 38.81, 125.06 28.38, 147.62 0.53 M111.86 49.61 C128.39 29.05, 144.41 12.57, 155.12 -0.39 M112.01 48.87 C128.19 31.07, 142.19 12.71, 153.25 0.6 M117.34 48.88 C125.55 37.78, 133.37 28.07, 159.97 -1.07 M116.15 48 C131.59 31.37, 146.55 13.9, 158.42 1.16 M123.78 49.67 C134.89 30.64, 148.73 15.69, 165.39 1.63 M122.46 48.51 C135.3 32.02, 150.05 15.89, 164.41 -1.05 M126.37 49.8 C138.87 35.16, 149.79 19.76, 171.4 -1.73 M127.18 47.78 C140.13 34.4, 152.15 20.24, 170.13 -0.61 M132.13 49.98 C144.42 32.74, 155.69 21.54, 174.45 -0.31 M133.92 47.42 C145.69 33.98, 158.04 20.48, 174.59 0.4 M138.2 50.21 C147.49 36.78, 156.93 27.8, 181.76 1.38 M137.64 49.04 C154.83 31.22, 170.32 11.87, 180.8 0.29 M144.77 46.12 C152.88 38.36, 160.94 27.48, 184.21 -0.15 M143.06 48.07 C151.97 37.93, 161.74 25.98, 186.23 -0.56 M149.46 49.41 C161.72 36.84, 171.83 23.88, 190.72 1.03 M148.59 47.62 C159.04 37.51, 168.73 25.91, 190.72 0.24 M156.14 48.13 C168.2 31.34, 179.63 18.09, 197.12 0.61 M154.79 48.21 C162.74 37.14, 171.11 26.98, 196.95 -1.19 M157.37 47.15 C165.92 36.89, 175.71 27.34, 200.52 0.45 M160.29 47.66 C170.08 35.36, 180.8 22.91, 200.37 0.89 M163.23 48.46 C179.62 30.95, 194.18 14.52, 208.2 0.9 M164.23 48.86 C177.19 35.89, 188.69 21.55, 207.62 -0.43 M171.7 47.61 C184 33.73, 197.04 18.36, 211.97 1.27 M170.22 47.59 C184.26 30.9, 199.93 14.05, 212.48 -0.83 M177.57 46.01 C185.91 38.05, 191.64 27.61, 217.04 0.09 M174.72 48.32 C190.12 29.87, 206.59 13.64, 218.31 -0.98 M178.78 47.41 C188.67 38.81, 198.83 25.72, 224.42 -0.41 M181.07 48.09 C195.28 29.98, 211.07 11.9, 221.98 -0.7 M184.64 46.89 C196.71 35.75, 210.02 19.02, 227.77 -2.01 M185.17 48.95 C200.47 31.97, 215.29 16.62, 228.32 -1.21 M189.5 47.61 C202.52 35.5, 210.08 26.06, 231.8 1.94 M190.78 48.14 C200.04 37.52, 210.59 25.71, 234.03 0.77 M194.42 49.36 C208.87 33.13, 223.33 20.01, 236.46 -0.41 M196.67 48.1 C205.23 36.76, 214.81 27.37, 237.5 -0.49 M203.33 49.7 C210.34 34.51, 224.11 23.65, 242.61 1.27 M202.47 49.01 C213.61 35.32, 225.96 21.97, 243.99 0.36 M205.49 48.37 C218.27 33.07, 233.26 16.78, 249.68 0.08 M206.55 48.68 C221.18 32.88, 235.04 16.49, 248.89 -0.17 M212.29 47.62 C220.61 35.61, 232.82 24.74, 255.89 1 M212.5 48.24 C224.12 35.55, 236.74 22.14, 253.47 0.11 M215.66 48.6 C229.87 35.5, 240.53 23.24, 260.62 1.32 M217.04 48.11 C232.23 32.53, 246.94 16.55, 258.8 0.95 M224.95 47.74 C235.12 33.59, 248.8 17.89, 265.27 -1.04 M222.46 47.66 C233.39 36.97, 242.74 26.24, 264.26 -0.61 M229.29 49.12 C238.34 34.59, 250.88 23.44, 271.66 0.87 M228.57 49.12 C236.95 38.77, 247.09 27.93, 269.39 -0.38 M234.47 48.86 C241.76 35.64, 252.8 24.33, 274.91 -0.58 M233.13 47.35 C248.89 30.05, 263.98 11.99, 276.4 0.79 M237.31 47.47 C254.53 31.82, 264.96 14.47, 281.77 0.73 M237.79 47.69 C251.24 34.69, 262.23 22.16, 280.05 0.83 M242.54 46.23 C254.95 37.63, 263.85 23.58, 287.55 1.1 M244.53 47.72 C259.25 31.28, 272.67 15.78, 286.14 0.22 M249.2 47.6 C264.37 30.44, 281.22 13.01, 290.46 -0.66 M249.58 49.11 C264.84 29.78, 282.06 10.99, 291.39 -0.12 M255.45 47.53 C267.58 33.97, 281.96 16.34, 296.5 1.15 M255.88 47.42 C265.15 36.42, 274 25.55, 297.94 -1.13 M261.02 47.92 C273.01 36.14, 284.02 23.93, 301.82 -0.45 M259.02 47.93 C271.04 34.55, 283.87 19.64, 301.23 0.34 M264.03 48.89 C281.07 30.46, 294.19 13.24, 305.62 -0.84 M265.65 47.4 C278.96 31.75, 293.47 15.78, 308.48 -0.8 M271.38 49.26 C285.86 30.6, 301.95 12.9, 312.5 0.68 M271.44 47.98 C283.92 33.63, 296.88 18.95, 312.61 0.06 M275.66 46.86 C292.94 29.77, 307.03 13.11, 317.34 1.16 M275.5 48.9 C286.74 37.3, 294.84 26.93, 318.68 -1.05 M281.46 46.91 C291.91 39.93, 300.23 30.42, 323.7 -1.52 M280.35 48.39 C292.41 36.31, 302.36 24.19, 323.8 -0.81 M286.31 46.43 C296.28 36.25, 305.02 23.07, 328.65 -0.39 M286.31 47.43 C296.49 36.96, 307.56 24.38, 329.64 -0.85 M291 46.57 C305.73 29.89, 322.83 14.44, 333.19 1.12 M291.5 47.57 C303.79 34.47, 316.72 20.43, 334.29 0.13 M295.85 49.79 C310.25 32.34, 322.74 17.69, 339.09 1.41 M297.55 49.52 C313.23 31.51, 327.79 13.04, 338.73 0.1 M302.3 48.41 C320.91 28.33, 337.45 11.12, 343.3 1.23 M302.86 49.18 C314.5 33, 327.08 19.81, 344.77 -0.42 M306.66 49.3 C319.92 36.36, 329.57 22.28, 350.13 0.66 M307.84 47.74 C318.48 36.44, 330.52 22.63, 348.83 0.15 M312.23 46.99 C329.52 30.25, 346.2 10.5, 356.94 -0.14 M312.62 48.2 C325.04 35.6, 337.04 20.13, 355.16 0.53 M319.74 48.03 C331.15 33.65, 344.6 21.42, 359.76 -0.38 M319.07 49.21 C333.13 32.25, 347.43 15.19, 361.04 0.67 M324.2 47.37 C334.18 33.7, 347.86 24.14, 363.59 0.77 M323.18 48.87 C332.05 39.53, 339.88 29.68, 364.63 2.5 M329.3 48.73 C340.92 33.5, 353.46 21.78, 364 8.8 M329.01 48.55 C340.48 35.03, 352.06 22.19, 364.14 8.09 M336.22 48.99 C340.29 39.1, 346.62 34.67, 364.71 13.45 M335.16 48.71 C343.35 37.39, 352.63 27.84, 362.97 14.58 M338.1 50.56 C344.78 42.94, 352.43 36.03, 363.27 21.85 M338.64 48.69 C347.38 41.09, 352.43 33.08, 364.97 20.84 M344.83 49.75 C349.62 45.14, 352.25 37.87, 365.41 26.45 M345.4 48.53 C348.47 43.56, 353.05 39.68, 364.31 26.77 M349.48 49.16 C356.57 44.86, 360.26 37.78, 365.22 34.07 M350.17 48.81 C354.29 43.72, 360.6 38.31, 363.25 31.85 M356.62 49.35 C358.07 46.63, 361.06 42.47, 363.31 38.49 M355.21 48.33 C357.41 46.03, 359.2 43.32, 363.68 38.88 M360.32 48.52 C361.84 47.62, 362.27 45.86, 363.47 44.92 M360.73 48.48 C361.52 47.47, 362.83 46.08, 363.68 44.95" stroke="#868e96" stroke-width="0.5" fill="none"></path><path d="M-0.64 0.03 C103.63 0.88, 207.41 1.34, 361.74 -0.44 M-0.23 0.12 C78.5 1.66, 155.54 1.91, 362.26 0.05 M363.17 0.58 C360.99 17.97, 363.59 33.75, 363.1 49.69 M361.71 -0.35 C362.42 15.31, 361.58 32.01, 362.94 47.43 M361.74 47.91 C269.09 46.51, 176.69 45.87, -1.17 47.66 M362.25 48.05 C231.27 45.5, 101.4 45.59, -0.13 47.87 M-1.91 47.82 C-1.08 37.97, -0.07 26.72, -1.24 1.87 M0.22 48.41 C0.05 34.17, 0.97 21.63, -0.49 -0.15" stroke="#000000" stroke-width="1" fill="none"></path></g><g transform="translate(142.59039253782976 10) rotate(0 69 13)"><text x="0" y="18" font-family="Virgil, Segoe UI Emoji" font-size="20px" fill="#000000" text-anchor="start" style="white-space: pre;" direction="ltr">single request</text></g><g stroke-linecap="round"><g transform="translate(378.80277321585527 13.583158921515519) rotate(0 -0.7056497899588976 204.81754804884082)"><path d="M0.02 -0.45 C0.09 68.02, -0.23 341.7, -0.19 410.24 M-1.42 -1.74 C-1.48 66.93, -1.41 342.43, -1.24 411.37" stroke="#000000" stroke-width="1" fill="none"></path></g></g><g transform="translate(123.59039253782976 256) rotate(0 98 13)"><text x="0" y="18" font-family="Virgil, Segoe UI Emoji" font-size="20px" fill="#000000" text-anchor="start" style="white-space: pre;" direction="ltr">two steps requests</text></g><g stroke-linecap="round" transform="translate(360.59039253782976 350) rotate(0 5.5 24)"><path d="M0 0 C0 0, 0 0, 0 0 M0 0 C0 0, 0 0, 0 0 M-0.46 5.85 C1.98 4.76, 4.45 2.52, 4.86 0.99 M-0.34 6.12 C1.72 4.32, 3.14 2, 5.1 -0.01 M1.67 12.69 C2.86 10.63, 4.79 7.43, 11.2 0.12 M0.75 12.12 C2.96 8.68, 7.21 4.28, 10.54 -0.33 M-0.43 18.25 C4 14.12, 9.58 6.24, 14.01 2.79 M0.83 19.14 C4.88 12.95, 10.38 5.82, 14.4 1.66 M0.49 23.06 C3.23 21.25, 8.05 13.54, 12.23 6.49 M-0.37 23.23 C5.2 18.7, 11.94 12.32, 13.26 8.07 M1.19 29.8 C4.59 27.2, 9.59 22.2, 15.14 15.95 M-0.99 30.43 C4.12 25.3, 9.74 21.07, 13.74 14.19 M0.65 36 C3.06 30.63, 9.96 27.94, 12.6 19.28 M0.48 36.22 C2.17 33.83, 6.94 29.03, 13.31 21.32 M0.9 44.14 C6.28 37.94, 8.08 33.8, 14.87 26.12 M-0.82 42.95 C4.09 38.3, 8.77 32.84, 13.4 26.3 M0.04 46.69 C7.19 42.14, 8.99 34.39, 13.02 33.54 M0.41 48.57 C3.97 44.3, 8.07 38.55, 13.26 33.04 M5.32 49.67 C9.42 44.13, 11.42 43.09, 13.96 39.79 M5.82 48.34 C8.15 45.28, 11.74 42.1, 14.21 38.47" stroke="#868e96" stroke-width="0.5" fill="none"></path><path d="M-0.73 1.07 C5.27 -0.4, 9.52 -0.63, 10.62 0.55 M0.5 0.42 C3.42 0.34, 7.54 0.09, 10.7 0.12 M12.95 -1.99 C10.36 16.55, 12.64 36.74, 9.4 48.51 M10.1 -0.28 C12.1 14.93, 11.7 27.83, 10.38 48.19 M10.22 48.09 C7.18 48.56, 4.8 47.68, -1.01 48.8 M11.18 48.32 C8.61 47.97, 6.32 47.82, 0.17 47.59 M0.23 49.81 C-1.9 31.38, -0.39 16.16, -0.49 -0.53 M0.69 48.63 C-1.33 38.37, -0.28 28.21, 0.17 -0.33" stroke="#000000" stroke-width="1" fill="none"></path></g></svg>